OpakSans.ufo
<glyph name="exclam" format="1">
  <advance width="270"/>
  <unicode hex="0021"/>
  <outline>
    <contour>
      <point x="135" y="-7" type="curve" smooth="yes"/>
      <point x="89" y="-7"/>
      <point x="76" y="13"/>
      <point x="76" y="48" type="curve" smooth="yes"/>
      <point x="76" y="87"/>
      <point x="93" y="103"/>
      <point x="135" y="103" type="curve" smooth="yes"/>
      <point x="179" y="103"/>
      <point x="195" y="87"/>
      <point x="195" y="48" type="curve" smooth="yes"/>
      <point x="195" y="7"/>
      <point x="177" y="-7"/>
    </contour>
    <contour>
      <point x="101" y="195" type="line"/>
      <point x="87" y="690" type="line"/>
      <point x="184" y="690" type="line"/>
      <point x="172" y="195" type="line"/>
    </contour>
  </outline>
</glyph>
<glyph name="quotedbl" format="1">
  <advance width="451"/>
  <unicode hex="0022"/>
  <outline>
    <contour>
      <point x="105" y="407" type="line"/>
      <point x="85" y="676" type="line"/>
      <point x="187" y="676" type="line"/>
      <point x="167" y="407" type="line"/>
    </contour>
    <contour>
      <point x="284" y="407" type="line"/>
      <point x="264" y="676" type="line"/>
      <point x="366" y="676" type="line"/>
      <point x="346" y="407" type="line"/>
    </contour>
  </outline>
</glyph>
<glyph name="numbersign" format="1">
  <advance width="706"/>
  <unicode hex="0023"/>
  <outline>
    <contour>
      <point x="124" y="0" type="line" smooth="no"/>
      <point x="175" y="192" type="line" smooth="no"/>
      <point x="50" y="192" type="line" smooth="no"/>
      <point x="50" y="252" type="line" smooth="no"/>
      <point x="191" y="252" type="line" smooth="no"/>
      <point x="238" y="424" type="line" smooth="no"/>
      <point x="107" y="424" type="line" smooth="no"/>
      <point x="107" y="485" type="line" smooth="no"/>
      <point x="254" y="485" type="line" smooth="no"/>
      <point x="305" y="676" type="line" smooth="no"/>
      <point x="368" y="676" type="line" smooth="no"/>
      <point x="317" y="485" type="line" smooth="no"/>
      <point x="468" y="485" type="line" smooth="no"/>
      <point x="520" y="676" type="line" smooth="no"/>
      <point x="583" y="676" type="line" smooth="no"/>
      <point x="532" y="485" type="line" smooth="no"/>
      <point x="656" y="485" type="line" smooth="no"/>
      <point x="656" y="424" type="line" smooth="no"/>
      <point x="516" y="424" type="line" smooth="no"/>
      <point x="470" y="252" type="line" smooth="no"/>
      <point x="599" y="252" type="line" smooth="no"/>
      <point x="599" y="192" type="line" smooth="no"/>
      <point x="453" y="192" type="line" smooth="no"/>
      <point x="402" y="0" type="line" smooth="no"/>
      <point x="339" y="0" type="line" smooth="no"/>
      <point x="389" y="192" type="line" smooth="no"/>
      <point x="238" y="192" type="line" smooth="no"/>
      <point x="187" y="0" type="line" smooth="no"/>
    </contour>
    <contour>
      <point x="254" y="252" type="line" smooth="no"/>
      <point x="406" y="252" type="line" smooth="no"/>
      <point x="453" y="424" type="line" smooth="no"/>
      <point x="301" y="424" type="line" smooth="no"/>
    </contour>
  </outline>
</glyph>
<glyph name="dollar" format="1">
  <advance width="617"/>
  <unicode hex="0024"/>
  <outline>
    <component base="S"/>
    <contour>
      <point x="277" y="-115" type="line" smooth="no"/>
      <point x="277" y="780" type="line" smooth="no"/>
      <point x="340" y="780" type="line" smooth="no"/>
      <point x="340" y="-115" type="line" smooth="no"/>
    </contour>
  </outline>
</glyph>
<glyph name="percent" format="1">
  <advance width="1020"/>
  <unicode hex="0025"/>
  <outline>
    <contour>
      <point x="234" y="324" type="curve" smooth="yes"/>
      <point x="166" y="324"/>
      <point x="142" y="362"/>
      <point x="142" y="474" type="curve" smooth="yes"/>
      <point x="142" y="594"/>
      <point x="171" y="625"/>
      <point x="234" y="625" type="curve" smooth="yes"/>
      <point x="298" y="625"/>
      <point x="327" y="594"/>
      <point x="327" y="474" type="curve" smooth="yes"/>
      <point x="327" y="362"/>
      <point x="300" y="324"/>
    </contour>
    <contour>
      <point x="786" y="50" type="curve" smooth="yes"/>
      <point x="721" y="50"/>
      <point x="693" y="92"/>
      <point x="693" y="201" type="curve" smooth="yes"/>
      <point x="693" y="313"/>
      <point x="721" y="351"/>
      <point x="786" y="351" type="curve" smooth="yes"/>
      <point x="854" y="351"/>
      <point x="879" y="313"/>
      <point x="879" y="201" type="curve" smooth="yes"/>
      <point x="879" y="92"/>
      <point x="871" y="50"/>
    </contour>
    <contour>
      <point x="234" y="259" type="curve" smooth="yes"/>
      <point x="359" y="259"/>
      <point x="414" y="339"/>
      <point x="414" y="474" type="curve" smooth="yes"/>
      <point x="414" y="607"/>
      <point x="359" y="690"/>
      <point x="234" y="690" type="curve" smooth="yes"/>
      <point x="115" y="690"/>
      <point x="55" y="618"/>
      <point x="55" y="474" type="curve" smooth="yes"/>
      <point x="55" y="338"/>
      <point x="108" y="259"/>
    </contour>
    <contour>
      <point x="283" y="-25" type="line"/>
      <point x="363" y="-25" type="line"/>
      <point x="744" y="701" type="line"/>
      <point x="663" y="701" type="line"/>
    </contour>
    <contour>
      <point x="786" y="-15" type="curve" smooth="yes"/>
      <point x="905" y="-15"/>
      <point x="965" y="57"/>
      <point x="965" y="201" type="curve" smooth="yes"/>
      <point x="965" y="337"/>
      <point x="912" y="416"/>
      <point x="786" y="416" type="curve" smooth="yes"/>
      <point x="666" y="416"/>
      <point x="607" y="344"/>
      <point x="607" y="201" type="curve" smooth="yes"/>
      <point x="607" y="56"/>
      <point x="666" y="-15"/>
    </contour>
  </outline>
</glyph>
<glyph name="ampersand" format="1">
  <advance width="695"/>
  <unicode hex="0026"/>
  <outline>
    <contour>
      <point x="297" y="424" type="curve"/>
      <point x="366" y="463"/>
      <point x="407" y="511"/>
      <point x="407" y="558" type="curve" smooth="yes"/>
      <point x="407" y="597"/>
      <point x="379" y="625"/>
      <point x="323" y="625" type="curve" smooth="yes"/>
      <point x="262" y="625"/>
      <point x="231" y="595"/>
      <point x="231" y="540" type="curve" smooth="yes"/>
      <point x="231" y="505"/>
      <point x="262" y="466"/>
    </contour>
    <contour>
      <point x="307" y="59" type="curve" smooth="yes"/>
      <point x="383" y="59"/>
      <point x="428" y="90"/>
      <point x="453" y="111" type="curve"/>
      <point x="274" y="323" type="line"/>
      <point x="240" y="301"/>
      <point x="215" y="283"/>
      <point x="200" y="269" type="curve" smooth="yes"/>
      <point x="169" y="241"/>
      <point x="158" y="217"/>
      <point x="158" y="174" type="curve" smooth="yes"/>
      <point x="158" y="106"/>
      <point x="219" y="59"/>
    </contour>
    <contour>
      <point x="305" y="-14" type="curve" smooth="yes"/>
      <point x="157" y="-14"/>
      <point x="67" y="61"/>
      <point x="67" y="176" type="curve" smooth="yes"/>
      <point x="67" y="234"/>
      <point x="84" y="274"/>
      <point x="124" y="312" type="curve" smooth="yes"/>
      <point x="144" y="331"/>
      <point x="177" y="353"/>
      <point x="224" y="381" type="curve"/>
      <point x="180" y="432"/>
      <point x="145" y="484"/>
      <point x="145" y="536" type="curve" smooth="yes"/>
      <point x="145" y="639"/>
      <point x="205" y="690"/>
      <point x="326" y="690" type="curve" smooth="yes"/>
      <point x="432" y="690"/>
      <point x="493" y="635"/>
      <point x="493" y="559" type="curve" smooth="yes"/>
      <point x="493" y="487"/>
      <point x="448" y="428"/>
      <point x="346" y="366" type="curve"/>
      <point x="508" y="175" type="line"/>
      <point x="538" y="210"/>
      <point x="559" y="254"/>
      <point x="572" y="307" type="curve"/>
      <point x="648" y="288" type="line"/>
      <point x="627" y="213"/>
      <point x="598" y="155"/>
      <point x="560" y="113" type="curve"/>
      <point x="656" y="0" type="line"/>
      <point x="547" y="0" type="line"/>
      <point x="501" y="54" type="line"/>
      <point x="435" y="3"/>
      <point x="376" y="-14"/>
    </contour>
  </outline>
</glyph>
<glyph name="quotesingle" format="1">
  <advance width="271"/>
  <unicode hex="0027"/>
  <outline>
    <contour>
      <point x="105" y="407" type="line"/>
      <point x="167" y="407" type="line"/>
      <point x="187" y="676" type="line"/>
      <point x="85" y="676" type="line"/>
    </contour>
  </outline>
</glyph>
<glyph name="parenleft" format="1">
  <advance width="389"/>
  <unicode hex="0028"/>
  <outline>
    <contour>
      <point x="254" y="-193" type="line"/>
      <point x="130" y="-51"/>
      <point x="75" y="94"/>
      <point x="75" y="274" type="curve" smooth="yes"/>
      <point x="75" y="458"/>
      <point x="130" y="598"/>
      <point x="254" y="742" type="curve"/>
      <point x="349" y="742" type="line"/>
      <point x="222" y="619"/>
      <point x="154" y="457"/>
      <point x="154" y="274" type="curve" smooth="yes"/>
      <point x="154" y="89"/>
      <point x="224" y="-71"/>
      <point x="349" y="-193" type="curve"/>
    </contour>
  </outline>
</glyph>
<glyph name="parenright" format="1">
  <advance width="389"/>
  <unicode hex="0029"/>
  <outline>
    <contour>
      <point x="40" y="-193" type="line"/>
      <point x="167" y="-68"/>
      <point x="235" y="92"/>
      <point x="235" y="274" type="curve" smooth="yes"/>
      <point x="235" y="441"/>
      <point x="179" y="607"/>
      <point x="40" y="742" type="curve"/>
      <point x="135" y="742" type="line"/>
      <point x="258" y="600"/>
      <point x="314" y="460"/>
      <point x="314" y="274" type="curve" smooth="yes"/>
      <point x="314" y="95"/>
      <point x="262" y="-44"/>
      <point x="135" y="-193" type="curve"/>
    </contour>
  </outline>
</glyph>
<glyph name="asterisk" format="1">
  <advance width="462"/>
  <unicode hex="002a"/>
  <outline>
    <contour>
      <point x="204" y="388" type="line" smooth="no"/>
      <point x="205" y="519" type="line" smooth="no"/>
      <point x="73" y="441" type="line" smooth="no"/>
      <point x="45" y="489" type="line" smooth="no"/>
      <point x="184" y="565" type="line" smooth="no"/>
      <point x="45" y="641" type="line" smooth="no"/>
      <point x="73" y="688" type="line" smooth="no"/>
      <point x="205" y="611" type="line" smooth="no"/>
      <point x="204" y="742" type="line" smooth="no"/>
      <point x="259" y="742" type="line" smooth="no"/>
      <point x="257" y="611" type="line" smooth="no"/>
      <point x="390" y="688" type="line" smooth="no"/>
      <point x="418" y="640" type="line" smooth="no"/>
      <point x="279" y="565" type="line" smooth="no"/>
      <point x="418" y="489" type="line" smooth="no"/>
      <point x="390" y="442" type="line" smooth="no"/>
      <point x="258" y="519" type="line" smooth="no"/>
      <point x="259" y="388" type="line" smooth="no"/>
    </contour>
  </outline>
</glyph>
<glyph name="plus" format="1">
  <advance width="645"/>
  <unicode hex="002b"/>
  <outline>
    <contour>
      <point x="282" y="39" type="line" smooth="no"/>
      <point x="282" y="269" type="line" smooth="no"/>
      <point x="63" y="269" type="line" smooth="no"/>
      <point x="63" y="346" type="line" smooth="no"/>
      <point x="282" y="346" type="line" smooth="no"/>
      <point x="282" y="569" type="line" smooth="no"/>
      <point x="362" y="569" type="line" smooth="no"/>
      <point x="362" y="346" type="line" smooth="no"/>
      <point x="581" y="346" type="line" smooth="no"/>
      <point x="581" y="269" type="line" smooth="no"/>
      <point x="362" y="269" type="line" smooth="no"/>
      <point x="362" y="39" type="line" smooth="no"/>
    </contour>
  </outline>
</glyph>
<glyph name="comma" format="1">
  <advance width="241"/>
  <unicode hex="002c"/>
  <outline>
    <contour>
      <point x="89" y="-143" type="line" smooth="no"/>
      <point x="113" y="-113"/>
      <point x="130" y="-55"/>
      <point x="130" y="-7" type="curve" smooth="no"/>
      <point x="91" y="-7"/>
      <point x="76" y="9"/>
      <point x="76" y="48" type="curve" smooth="yes"/>
      <point x="76" y="84"/>
      <point x="92" y="103"/>
      <point x="135" y="103" type="curve" smooth="yes"/>
      <point x="178" y="103"/>
      <point x="195" y="81"/>
      <point x="195" y="38" type="curve" smooth="yes"/>
      <point x="195" y="-42"/>
      <point x="166" y="-112"/>
      <point x="140" y="-143" type="curve" smooth="no"/>
    </contour>
  </outline>
</glyph>
<glyph name="hyphen" format="1">
  <advance width="351"/>
  <unicode hex="002d"/>
  <outline>
    <contour>
      <point x="174" y="275" type="move" smooth="yes"/>
    </contour>
    <contour>
      <point x="37" y="236" type="line" smooth="no"/>
      <point x="37" y="311" type="line" smooth="no"/>
      <point x="315" y="311" type="line" smooth="no"/>
      <point x="315" y="236" type="line" smooth="no"/>
    </contour>
  </outline>
</glyph>
<glyph name="period" format="1">
  <advance width="269"/>
  <unicode hex="002E"/>
  <outline>
    <contour>
      <point x="135" y="-7" type="curve" smooth="yes"/>
      <point x="88" y="-7"/>
      <point x="76" y="13"/>
      <point x="76" y="48" type="curve" smooth="yes"/>
      <point x="76" y="87"/>
      <point x="92" y="103"/>
      <point x="135" y="103" type="curve" smooth="yes"/>
      <point x="179" y="103"/>
      <point x="195" y="87"/>
      <point x="195" y="48" type="curve" smooth="yes"/>
      <point x="195" y="7"/>
      <point x="176" y="-7"/>
    </contour>
  </outline>
</glyph>
<glyph name="slash" format="1">
  <advance width="456"/>
  <unicode hex="002f"/>
  <outline>
    <contour>
      <point x="19" y="-68" type="line" smooth="no"/>
      <point x="348" y="774" type="line" smooth="no"/>
      <point x="416" y="774" type="line" smooth="no"/>
      <point x="87" y="-68" type="line" smooth="no"/>
    </contour>
  </outline>
</glyph>
<glyph name="zero" format="1">
  <advance width="573"/>
  <unicode hex="0030"/>
  <outline>
    <contour>
      <point x="286.5" y="64" type="curve" smooth="yes"/>
      <point x="387.5" y="64"/>
      <point x="428.5" y="145"/>
      <point x="429.5" y="298" type="curve"/>
      <point x="429.5" y="386" type="line" smooth="yes"/>
      <point x="429.5" y="541"/>
      <point x="388.5" y="624"/>
      <point x="286.5" y="624" type="curve" smooth="yes"/>
      <point x="185.5" y="624"/>
      <point x="142.5" y="541"/>
      <point x="142.5" y="386" type="curve" smooth="yes"/>
      <point x="142.5" y="297" type="line"/>
      <point x="143.5" y="145"/>
      <point x="186.5" y="64"/>
    </contour>
    <contour>
      <point x="286.5" y="-13" type="curve" smooth="yes"/>
      <point x="124.5" y="-13"/>
      <point x="48.5" y="97"/>
      <point x="47.5" y="304" type="curve"/>
      <point x="47.5" y="378" type="line" smooth="yes"/>
      <point x="47.5" y="588"/>
      <point x="123.5" y="701"/>
      <point x="286.5" y="701" type="curve" smooth="yes"/>
      <point x="450.5" y="701"/>
      <point x="525.5" y="588"/>
      <point x="525.5" y="378" type="curve" smooth="yes"/>
      <point x="525.5" y="306" type="line"/>
      <point x="524.5" y="99"/>
      <point x="448.5" y="-13"/>
    </contour>
  </outline>
</glyph>
<glyph name="one" format="1">
  <advance width="525"/>
  <unicode hex="0031"/>
  <outline>
    <contour>
      <point x="264" y="0" type="line"/>
      <point x="264" y="537" type="line"/>
      <point x="108" y="536" type="line"/>
      <point x="108" y="602" type="line"/>
      <point x="188" y="607"/>
      <point x="275" y="624"/>
      <point x="292" y="690" type="curve"/>
      <point x="356" y="690" type="line"/>
      <point x="356" y="0" type="line"/>
    </contour>
  </outline>
</glyph>
<glyph name="two" format="1">
  <advance width="573"/>
  <unicode hex="0032"/>
  <outline>
    <contour>
      <point x="64" y="0" type="line"/>
      <point x="64" y="84" type="line"/>
      <point x="112" y="125"/>
      <point x="240" y="258"/>
      <point x="261" y="279" type="curve" smooth="yes"/>
      <point x="321" y="338"/>
      <point x="360" y="383"/>
      <point x="381" y="424" type="curve" smooth="yes"/>
      <point x="395" y="450"/>
      <point x="401" y="478"/>
      <point x="401" y="507" type="curve" smooth="yes"/>
      <point x="401" y="575"/>
      <point x="355" y="624"/>
      <point x="283" y="624" type="curve" smooth="yes"/>
      <point x="203" y="624"/>
      <point x="159" y="584"/>
      <point x="141" y="517" type="curve"/>
      <point x="59" y="546" type="line"/>
      <point x="60" y="549"/>
      <point x="60" y="552"/>
      <point x="61" y="555" type="curve" smooth="yes"/>
      <point x="89" y="647"/>
      <point x="168" y="703"/>
      <point x="285" y="703" type="curve" smooth="yes"/>
      <point x="412" y="703"/>
      <point x="497" y="631"/>
      <point x="497" y="512" type="curve" smooth="yes"/>
      <point x="497" y="460"/>
      <point x="483" y="414"/>
      <point x="452" y="370" type="curve" smooth="yes"/>
      <point x="432" y="340"/>
      <point x="405" y="307"/>
      <point x="370" y="271" type="curve" smooth="yes"/>
      <point x="352" y="253"/>
      <point x="236" y="133"/>
      <point x="173" y="79" type="curve"/>
      <point x="520" y="79" type="line"/>
      <point x="520" y="0" type="line"/>
    </contour>
  </outline>
</glyph>
<glyph name="three" format="1">
  <advance width="573"/>
  <unicode hex="0033"/>
  <outline>
    <contour>
      <point x="267" y="-13" type="curve" smooth="yes"/>
      <point x="166" y="-13"/>
      <point x="79" y="36"/>
      <point x="56" y="117" type="curve"/>
      <point x="53" y="126" type="line"/>
      <point x="135" y="155" type="line"/>
      <point x="149" y="102"/>
      <point x="198" y="65"/>
      <point x="266" y="65" type="curve" smooth="yes"/>
      <point x="360" y="65"/>
      <point x="407" y="109"/>
      <point x="407" y="198" type="curve" smooth="yes"/>
      <point x="407" y="282"/>
      <point x="360" y="322"/>
      <point x="263" y="322" type="curve" smooth="yes"/>
      <point x="199" y="322" type="line"/>
      <point x="199" y="399" type="line"/>
      <point x="258" y="399" type="line" smooth="yes"/>
      <point x="347" y="399"/>
      <point x="395" y="441"/>
      <point x="395" y="517" type="curve" smooth="yes"/>
      <point x="395" y="589"/>
      <point x="350" y="625"/>
      <point x="275" y="625" type="curve" smooth="yes"/>
      <point x="208" y="625"/>
      <point x="160" y="591"/>
      <point x="141" y="532" type="curve"/>
      <point x="59" y="561" type="line"/>
      <point x="60" y="564"/>
      <point x="61" y="567"/>
      <point x="62" y="571" type="curve" smooth="yes"/>
      <point x="87" y="651"/>
      <point x="169" y="703"/>
      <point x="279" y="703" type="curve" smooth="yes"/>
      <point x="410" y="703"/>
      <point x="491" y="635"/>
      <point x="491" y="524" type="curve" smooth="yes"/>
      <point x="491" y="440"/>
      <point x="445" y="388"/>
      <point x="367" y="364" type="curve"/>
      <point x="448" y="351"/>
      <point x="502" y="295"/>
      <point x="502" y="195" type="curve" smooth="yes"/>
      <point x="502" y="60"/>
      <point x="411" y="-13"/>
    </contour>
  </outline>
</glyph>
<glyph name="four" format="1">
  <advance width="573"/>
  <unicode hex="0034"/>
  <outline>
    <contour>
      <point x="113" y="233" type="line"/>
      <point x="356" y="233" type="line"/>
      <point x="356" y="565" type="line"/>
    </contour>
    <contour>
      <point x="356" y="0" type="line"/>
      <point x="356" y="156" type="line"/>
      <point x="19" y="156" type="line"/>
      <point x="19" y="230" type="line"/>
      <point x="356" y="690" type="line"/>
      <point x="446" y="690" type="line"/>
      <point x="446" y="233" type="line"/>
      <point x="541" y="233" type="line"/>
      <point x="541" y="156" type="line"/>
      <point x="446" y="156" type="line"/>
      <point x="446" y="0" type="line"/>
    </contour>
  </outline>
</glyph>
<glyph name="five" format="1">
  <advance width="573"/>
  <unicode hex="0035"/>
  <outline>
    <contour>
      <point x="274" y="-13" type="curve" smooth="yes"/>
      <point x="168" y="-13"/>
      <point x="90" y="36"/>
      <point x="68" y="115" type="curve" smooth="yes"/>
      <point x="67" y="119"/>
      <point x="65" y="123"/>
      <point x="64" y="126" type="curve" smooth="yes"/>
      <point x="144" y="155" type="line"/>
      <point x="158" y="104"/>
      <point x="203" y="65"/>
      <point x="272" y="65" type="curve" smooth="yes"/>
      <point x="368" y="65"/>
      <point x="415" y="127"/>
      <point x="415" y="220" type="curve" smooth="yes"/>
      <point x="415" y="303"/>
      <point x="365" y="362"/>
      <point x="273" y="362" type="curve" smooth="yes"/>
      <point x="215" y="362"/>
      <point x="178" y="347"/>
      <point x="150" y="313" type="curve"/>
      <point x="91" y="316" type="line"/>
      <point x="130" y="690" type="line"/>
      <point x="485" y="690" type="line"/>
      <point x="485" y="607" type="line"/>
      <point x="207" y="607" type="line"/>
      <point x="185" y="411" type="line"/>
      <point x="214" y="429"/>
      <point x="254" y="441"/>
      <point x="296" y="441" type="curve" smooth="yes"/>
      <point x="433" y="441"/>
      <point x="510" y="357"/>
      <point x="510" y="220" type="curve" smooth="yes"/>
      <point x="510" y="78"/>
      <point x="429" y="-13"/>
    </contour>
  </outline>
</glyph>
<glyph name="six" format="1">
  <advance width="573"/>
  <unicode hex="0036"/>
  <outline>
    <contour>
      <point x="302" y="64" type="curve" smooth="yes"/>
      <point x="390" y="64"/>
      <point x="434" y="130"/>
      <point x="434" y="225" type="curve" smooth="yes"/>
      <point x="434" y="316"/>
      <point x="388" y="373"/>
      <point x="298" y="373" type="curve" smooth="yes"/>
      <point x="241" y="373"/>
      <point x="188" y="348"/>
      <point x="158" y="318" type="curve"/>
      <point x="158" y="290" type="line" smooth="yes"/>
      <point x="159" y="137"/>
      <point x="211" y="64"/>
    </contour>
    <contour>
      <point x="300" y="-13" type="curve" smooth="yes"/>
      <point x="146" y="-13"/>
      <point x="62" y="100"/>
      <point x="62" y="307" type="curve" smooth="yes"/>
      <point x="62" y="365" type="line" smooth="yes"/>
      <point x="63" y="575"/>
      <point x="168" y="703"/>
      <point x="327" y="703" type="curve" smooth="yes"/>
      <point x="392" y="703"/>
      <point x="446" y="684"/>
      <point x="486" y="652" type="curve"/>
      <point x="444" y="581" type="line"/>
      <point x="408" y="610"/>
      <point x="376" y="626"/>
      <point x="327" y="626" type="curve" smooth="yes"/>
      <point x="223" y="626"/>
      <point x="166" y="538"/>
      <point x="159" y="394" type="curve"/>
      <point x="196" y="423"/>
      <point x="253" y="449"/>
      <point x="320" y="449" type="curve" smooth="yes"/>
      <point x="447" y="449"/>
      <point x="527" y="366"/>
      <point x="527" y="227" type="curve" smooth="yes"/>
      <point x="527" y="80"/>
      <point x="442" y="-13"/>
    </contour>
  </outline>
</glyph>
<glyph name="seven" format="1">
  <advance width="573"/>
  <unicode hex="0037"/>
  <outline>
    <contour>
      <point x="157" y="0" type="line"/>
      <point x="420" y="608" type="line"/>
      <point x="46" y="608" type="line"/>
      <point x="46" y="690" type="line"/>
      <point x="518" y="690" type="line"/>
      <point x="518" y="606" type="line"/>
      <point x="260" y="0" type="line"/>
    </contour>
  </outline>
</glyph>
<glyph name="eight" format="1">
  <advance width="573"/>
  <unicode hex="0038"/>
  <outline>
    <contour>
      <point x="287" y="-13" type="curve" smooth="yes"/>
      <point x="427" y="-13"/>
      <point x="521" y="52"/>
      <point x="521" y="181" type="curve" smooth="yes"/>
      <point x="521" y="268"/>
      <point x="469" y="325"/>
      <point x="379" y="362" type="curve"/>
      <point x="469" y="402"/>
      <point x="504" y="446"/>
      <point x="504" y="521" type="curve" smooth="yes"/>
      <point x="504" y="638"/>
      <point x="422" y="703"/>
      <point x="287" y="703" type="curve" smooth="yes"/>
      <point x="150" y="703"/>
      <point x="70" y="637"/>
      <point x="70" y="521" type="curve" smooth="yes"/>
      <point x="70" y="445"/>
      <point x="100" y="405"/>
      <point x="194" y="362" type="curve"/>
      <point x="107" y="330"/>
      <point x="52" y="269"/>
      <point x="52" y="181" type="curve" smooth="yes"/>
      <point x="52" y="54"/>
      <point x="139" y="-13"/>
    </contour>
    <contour>
      <point x="287" y="61" type="curve" smooth="yes"/>
      <point x="194" y="61"/>
      <point x="145" y="108"/>
      <point x="145" y="182" type="curve" smooth="yes"/>
      <point x="145" y="252"/>
      <point x="180" y="293"/>
      <point x="287" y="324" type="curve"/>
      <point x="394" y="290"/>
      <point x="429" y="250"/>
      <point x="429" y="182" type="curve" smooth="yes"/>
      <point x="429" y="109"/>
      <point x="380" y="61"/>
    </contour>
    <contour>
      <point x="287" y="399" type="curve"/>
      <point x="195" y="429"/>
      <point x="163" y="461"/>
      <point x="163" y="521" type="curve" smooth="yes"/>
      <point x="163" y="584"/>
      <point x="204" y="629"/>
      <point x="287" y="629" type="curve" smooth="yes"/>
      <point x="366" y="629"/>
      <point x="412" y="583"/>
      <point x="412" y="519" type="curve" smooth="yes"/>
      <point x="412" y="460"/>
      <point x="364" y="419"/>
    </contour>
  </outline>
</glyph>
<glyph name="nine" format="1">
  <advance width="573"/>
  <unicode hex="0039"/>
  <outline>
    <contour>
      <point x="251" y="-13" type="curve" smooth="yes"/>
      <point x="185" y="-13"/>
      <point x="126" y="4"/>
      <point x="83" y="38" type="curve" smooth="no"/>
      <point x="122" y="110" type="line" smooth="no"/>
      <point x="160" y="79"/>
      <point x="198" y="64"/>
      <point x="251" y="64" type="curve" smooth="yes"/>
      <point x="354" y="64"/>
      <point x="404" y="139"/>
      <point x="414" y="274" type="curve" smooth="yes"/>
      <point x="414" y="278"/>
      <point x="415" y="296"/>
      <point x="415" y="301" type="curve" smooth="no"/>
      <point x="380" y="268"/>
      <point x="327" y="241"/>
      <point x="262" y="241" type="curve" smooth="yes"/>
      <point x="130" y="241"/>
      <point x="49" y="319"/>
      <point x="49" y="465" type="curve" smooth="yes"/>
      <point x="49" y="611"/>
      <point x="140" y="703"/>
      <point x="274" y="703" type="curve" smooth="yes"/>
      <point x="438" y="703"/>
      <point x="511" y="592"/>
      <point x="512" y="400" type="curve" smooth="no"/>
      <point x="512" y="328" type="line" smooth="yes"/>
      <point x="512" y="109"/>
      <point x="418" y="-13"/>
    </contour>
    <contour>
      <point x="275" y="319" type="curve" smooth="yes"/>
      <point x="333" y="319"/>
      <point x="387" y="345"/>
      <point x="416" y="377" type="curve" smooth="no"/>
      <point x="416" y="415" type="line" smooth="no"/>
      <point x="414" y="560"/>
      <point x="377" y="626"/>
      <point x="275" y="626" type="curve" smooth="yes"/>
      <point x="189" y="626"/>
      <point x="141" y="560"/>
      <point x="141" y="467" type="curve" smooth="yes"/>
      <point x="141" y="376"/>
      <point x="186" y="319"/>
    </contour>
  </outline>
</glyph>
<glyph name="colon" format="1">
  <advance width="270"/>
  <unicode hex="003A"/>
  <outline>
    <contour>
      <point x="135" y="402" type="curve" smooth="yes"/>
      <point x="89" y="402"/>
      <point x="76" y="422"/>
      <point x="76" y="457" type="curve" smooth="yes"/>
      <point x="76" y="496"/>
      <point x="93" y="512"/>
      <point x="135" y="512" type="curve" smooth="yes"/>
      <point x="179" y="512"/>
      <point x="195" y="496"/>
      <point x="195" y="457" type="curve" smooth="yes"/>
      <point x="195" y="415"/>
      <point x="177" y="402"/>
    </contour>
    <contour>
      <point x="135" y="-7" type="curve" smooth="yes"/>
      <point x="89" y="-7"/>
      <point x="76" y="13"/>
      <point x="76" y="48" type="curve" smooth="yes"/>
      <point x="76" y="87"/>
      <point x="93" y="103"/>
      <point x="135" y="103" type="curve" smooth="yes"/>
      <point x="179" y="103"/>
      <point x="195" y="87"/>
      <point x="195" y="48" type="curve" smooth="yes"/>
      <point x="195" y="7"/>
      <point x="177" y="-7"/>
    </contour>
  </outline>
</glyph>
<glyph name="semicolon" format="1">
  <advance width="270"/>
  <unicode hex="003B"/>
  <outline>
    <contour>
      <point x="89" y="-143" type="curve"/>
      <point x="140" y="-143" type="line"/>
      <point x="165" y="-112"/>
      <point x="195" y="-42"/>
      <point x="195" y="38" type="curve" smooth="yes"/>
      <point x="195" y="80"/>
      <point x="179" y="103"/>
      <point x="135" y="103" type="curve" smooth="yes"/>
      <point x="93" y="103"/>
      <point x="76" y="85"/>
      <point x="76" y="48" type="curve" smooth="yes"/>
      <point x="76" y="9"/>
      <point x="91" y="-7"/>
      <point x="130" y="-7" type="curve"/>
      <point x="130" y="-52"/>
      <point x="112" y="-113"/>
    </contour>
    <contour>
      <point x="135" y="402" type="curve" smooth="yes"/>
      <point x="177" y="402"/>
      <point x="195" y="415"/>
      <point x="195" y="457" type="curve" smooth="yes"/>
      <point x="195" y="496"/>
      <point x="179" y="512"/>
      <point x="135" y="512" type="curve" smooth="yes"/>
      <point x="93" y="512"/>
      <point x="76" y="496"/>
      <point x="76" y="457" type="curve" smooth="yes"/>
      <point x="76" y="422"/>
      <point x="89" y="402"/>
    </contour>
  </outline>
</glyph>
<glyph name="less" format="1">
  <advance width="696"/>
  <unicode hex="003c"/>
  <outline>
    <contour>
      <point x="617" y="30" type="line" smooth="no"/>
      <point x="80" y="256" type="line" smooth="no"/>
      <point x="80" y="317" type="line" smooth="no"/>
      <point x="617" y="543" type="line" smooth="no"/>
      <point x="617" y="467" type="line" smooth="no"/>
      <point x="177" y="286" type="line" smooth="no"/>
      <point x="617" y="106" type="line" smooth="no"/>
    </contour>
  </outline>
</glyph>
<glyph name="equal" format="1">
  <advance width="696"/>
  <unicode hex="003D"/>
  <outline>
    <contour>
      <point x="80" y="138" type="line"/>
      <point x="80" y="208" type="line"/>
      <point x="617" y="208" type="line"/>
      <point x="617" y="138" type="line"/>
    </contour>
    <contour>
      <point x="80" y="364" type="line"/>
      <point x="80" y="434" type="line"/>
      <point x="617" y="434" type="line"/>
      <point x="617" y="364" type="line"/>
    </contour>
  </outline>
</glyph>
<glyph name="greater" format="1">
  <advance width="696"/>
  <unicode hex="003e"/>
  <outline>
    <contour>
      <point x="80" y="30" type="line" smooth="no"/>
      <point x="80" y="106" type="line" smooth="no"/>
      <point x="519" y="286" type="line" smooth="no"/>
      <point x="80" y="467" type="line" smooth="no"/>
      <point x="80" y="543" type="line" smooth="no"/>
      <point x="617" y="317" type="line" smooth="no"/>
      <point x="617" y="256" type="line" smooth="no"/>
    </contour>
  </outline>
</glyph>
<glyph name="question" format="1">
  <advance width="512"/>
  <unicode hex="003f"/>
  <outline>
    <contour>
      <point x="174" y="185" type="line" smooth="no"/>
      <point x="174" y="319" type="line" smooth="no"/>
      <point x="247" y="354"/>
      <point x="296" y="384"/>
      <point x="323" y="412" type="curve" smooth="yes"/>
      <point x="350" y="439"/>
      <point x="364" y="470"/>
      <point x="364" y="503" type="curve" smooth="yes"/>
      <point x="364" y="570"/>
      <point x="320" y="610"/>
      <point x="238" y="610" type="curve" smooth="yes"/>
      <point x="168" y="610"/>
      <point x="130" y="580"/>
      <point x="107" y="541" type="curve" smooth="no"/>
      <point x="33" y="589" type="line" smooth="no"/>
      <point x="66" y="649"/>
      <point x="129" y="690"/>
      <point x="237" y="690" type="curve" smooth="yes"/>
      <point x="372" y="690"/>
      <point x="459" y="626"/>
      <point x="459" y="513" type="curve" smooth="yes"/>
      <point x="459" y="451"/>
      <point x="431" y="403"/>
      <point x="383" y="361" type="curve" smooth="yes"/>
      <point x="359" y="340"/>
      <point x="318" y="314"/>
      <point x="259" y="282" type="curve" smooth="no"/>
      <point x="259" y="185" type="line" smooth="no"/>
    </contour>
    <contour>
      <point x="217" y="-7" type="curve" smooth="yes"/>
      <point x="171" y="-7"/>
      <point x="158" y="13"/>
      <point x="158" y="48" type="curve" smooth="yes"/>
      <point x="158" y="87"/>
      <point x="175" y="103"/>
      <point x="217" y="103" type="curve" smooth="yes"/>
      <point x="261" y="103"/>
      <point x="277" y="87"/>
      <point x="277" y="48" type="curve" smooth="yes"/>
      <point x="277" y="7"/>
      <point x="259" y="-7"/>
    </contour>
  </outline>
</glyph>
<glyph name="at" format="1">
  <advance width="944"/>
  <unicode hex="0040"/>
  <outline>
    <contour>
      <point x="454" y="99" type="curve" smooth="yes"/>
      <point x="487" y="99"/>
      <point x="527" y="116"/>
      <point x="575" y="151" type="curve"/>
      <point x="575" y="386" type="line"/>
      <point x="535" y="412"/>
      <point x="501" y="425"/>
      <point x="472" y="425" type="curve" smooth="yes"/>
      <point x="376" y="425"/>
      <point x="339" y="366"/>
      <point x="339" y="254" type="curve" smooth="yes"/>
      <point x="339" y="151"/>
      <point x="377" y="99"/>
    </contour>
    <contour>
      <point x="477" y="-151" type="curve" smooth="yes"/>
      <point x="310" y="-151"/>
      <point x="180" y="-80"/>
      <point x="111" y="48" type="curve" smooth="yes"/>
      <point x="76" y="112"/>
      <point x="59" y="186"/>
      <point x="59" y="270" type="curve" smooth="yes"/>
      <point x="59" y="426"/>
      <point x="135" y="562"/>
      <point x="264" y="635" type="curve" smooth="yes"/>
      <point x="329" y="672"/>
      <point x="400" y="690"/>
      <point x="479" y="690" type="curve" smooth="yes"/>
      <point x="737" y="690"/>
      <point x="886" y="535"/>
      <point x="886" y="278" type="curve" smooth="yes"/>
      <point x="886" y="105"/>
      <point x="816" y="8"/>
      <point x="699" y="8" type="curve" smooth="yes"/>
      <point x="629" y="8"/>
      <point x="593" y="25"/>
      <point x="580" y="77" type="curve"/>
      <point x="533" y="39"/>
      <point x="484" y="21"/>
      <point x="435" y="21" type="curve" smooth="yes"/>
      <point x="357" y="21"/>
      <point x="303" y="60"/>
      <point x="275" y="131" type="curve" smooth="yes"/>
      <point x="261" y="167"/>
      <point x="254" y="207"/>
      <point x="254" y="252" type="curve" smooth="yes"/>
      <point x="254" y="408"/>
      <point x="330" y="499"/>
      <point x="459" y="499" type="curve" smooth="yes"/>
      <point x="500" y="499"/>
      <point x="538" y="486"/>
      <point x="576" y="459" type="curve"/>
      <point x="576" y="485" type="line"/>
      <point x="659" y="485" type="line"/>
      <point x="659" y="132" type="line" smooth="yes"/>
      <point x="659" y="90"/>
      <point x="671" y="77"/>
      <point x="706" y="77" type="curve" smooth="yes"/>
      <point x="769" y="77"/>
      <point x="811" y="153"/>
      <point x="811" y="274" type="curve" smooth="yes"/>
      <point x="811" y="497"/>
      <point x="693" y="621"/>
      <point x="480" y="621" type="curve" smooth="yes"/>
      <point x="349" y="621"/>
      <point x="237" y="558"/>
      <point x="178" y="449" type="curve" smooth="yes"/>
      <point x="148" y="395"/>
      <point x="134" y="334"/>
      <point x="134" y="269" type="curve" smooth="yes"/>
      <point x="134" y="56"/>
      <point x="265" y="-82"/>
      <point x="478" y="-82" type="curve" smooth="yes"/>
      <point x="557" y="-82"/>
      <point x="626" y="-75"/>
      <point x="687" y="-60" type="curve"/>
      <point x="703" y="-130" type="line"/>
      <point x="643" y="-144"/>
      <point x="567" y="-151"/>
    </contour>
  </outline>
</glyph>
<glyph name="A" format="1">
  <advance width="636"/>
  <unicode hex="0041"/>
  <outline>
    <contour>
      <point x="566" y="0" type="move" name="ogonek"/>
    </contour>
    <contour>
      <point x="321" y="690" type="move" name="top"/>
    </contour>
    <contour>
      <point x="19" y="0" type="line"/>
      <point x="114" y="0" type="line"/>
      <point x="175" y="179" type="line"/>
      <point x="460" y="179" type="line"/>
      <point x="521" y="0" type="line"/>
      <point x="618" y="0" type="line"/>
      <point x="371" y="690" type="line"/>
      <point x="268" y="690" type="line"/>
    </contour>
    <contour>
      <point x="203" y="260" type="line"/>
      <point x="316" y="585" type="line"/>
      <point x="319" y="585" type="line"/>
      <point x="431" y="260" type="line"/>
    </contour>
  </outline>
</glyph>
<glyph name="B" format="1">
  <advance width="628"/>
  <unicode hex="0042"/>
  <outline>
    <contour>
      <point x="311" y="690" type="move" smooth="yes"/>
    </contour>
    <contour>
      <point x="89" y="0" type="line"/>
      <point x="89" y="690" type="line"/>
      <point x="302" y="690" type="line" smooth="yes"/>
      <point x="457" y="690"/>
      <point x="537" y="642"/>
      <point x="537" y="521" type="curve" smooth="yes"/>
      <point x="537" y="438"/>
      <point x="489" y="392"/>
      <point x="430" y="373" type="curve"/>
      <point x="516" y="359"/>
      <point x="573" y="302"/>
      <point x="573" y="199" type="curve" smooth="yes"/>
      <point x="573" y="62"/>
      <point x="480" y="0"/>
      <point x="326" y="0" type="curve" smooth="yes"/>
    </contour>
    <contour>
      <point x="181" y="79" type="line"/>
      <point x="303" y="79" type="line" smooth="yes"/>
      <point x="439" y="79"/>
      <point x="479" y="114"/>
      <point x="479" y="201" type="curve" smooth="yes"/>
      <point x="479" y="285"/>
      <point x="447" y="323"/>
      <point x="322" y="323" type="curve" smooth="yes"/>
      <point x="181" y="323" type="line"/>
    </contour>
    <contour>
      <point x="181" y="401" type="line"/>
      <point x="303" y="401" type="line" smooth="yes"/>
      <point x="396" y="401"/>
      <point x="443" y="437"/>
      <point x="443" y="510" type="curve" smooth="yes"/>
      <point x="443" y="584"/>
      <point x="398" y="612"/>
      <point x="298" y="612" type="curve" smooth="yes"/>
      <point x="181" y="612" type="line"/>
    </contour>
  </outline>
</glyph>
<glyph name="C" format="1">
  <advance width="640"/>
  <unicode hex="0043"/>
  <outline>
    <contour>
      <point x="348" y="-13" type="curve" smooth="yes"/>
      <point x="480" y="-13"/>
      <point x="560" y="44"/>
      <point x="598" y="154" type="curve" smooth="yes"/>
      <point x="599" y="157"/>
      <point x="600" y="159"/>
      <point x="601" y="162" type="curve" smooth="yes"/>
      <point x="519" y="191" type="line"/>
      <point x="492" y="105"/>
      <point x="434" y="66"/>
      <point x="346" y="66" type="curve" smooth="yes"/>
      <point x="217" y="66"/>
      <point x="157" y="164"/>
      <point x="157" y="345" type="curve" smooth="yes"/>
      <point x="157.0" y="348.372546446"/>
      <point x="157.020946089" y="351.715905718"/>
      <point x="157.062870081" y="355.030001463" type="curve" smooth="yes"/>
      <point x="159.283380928" y="530.561604431"/>
      <point x="220.353370322" y="624.0"/>
      <point x="345" y="624" type="curve" smooth="yes"/>
      <point x="436" y="624"/>
      <point x="487" y="586"/>
      <point x="513" y="502" type="curve"/>
      <point x="595" y="532" type="line" smooth="yes"/>
      <point x="594" y="535"/>
      <point x="593" y="537"/>
      <point x="592" y="540" type="curve" smooth="yes"/>
      <point x="560" y="650"/>
      <point x="473" y="703"/>
      <point x="345" y="703" type="curve" smooth="yes"/>
      <point x="163.307718754" y="703.0"/>
      <point x="63.5216031921" y="584.041045077"/>
      <point x="61.0471585854" y="353.825887867" type="curve" smooth="yes"/>
      <point x="61.0157300504" y="350.901868024"/>
      <point x="61.0" y="347.959900141"/>
      <point x="61" y="345" type="curve" smooth="yes"/>
      <point x="61" y="108"/>
      <point x="162" y="-13"/>
    </contour>
  </outline>
</glyph>
<glyph name="D" format="1">
  <advance width="641"/>
  <unicode hex="0044"/>
  <outline>
    <contour>
      <point x="135" y="351" type="move" smooth="yes"/>
    </contour>
    <contour>
      <point x="321" y="690" type="move" smooth="yes"/>
    </contour>
    <contour>
      <point x="177" y="79" type="line" smooth="no"/>
      <point x="271" y="79" type="line" smooth="yes"/>
      <point x="429" y="79"/>
      <point x="493" y="153"/>
      <point x="494" y="322" type="curve" smooth="no"/>
      <point x="494" y="365" type="line" smooth="yes"/>
      <point x="494" y="534"/>
      <point x="431" y="611"/>
      <point x="271" y="611" type="curve" smooth="yes"/>
      <point x="177" y="611" type="line" smooth="no"/>
    </contour>
    <contour>
      <point x="85" y="0" type="line" smooth="no"/>
      <point x="85" y="690" type="line" smooth="no"/>
      <point x="274" y="690" type="line" smooth="yes"/>
      <point x="491" y="690"/>
      <point x="590" y="583"/>
      <point x="590" y="364" type="curve" smooth="yes"/>
      <point x="590" y="320" type="line" smooth="no"/>
      <point x="589" y="103"/>
      <point x="494" y="0"/>
      <point x="276" y="0" type="curve" smooth="yes"/>
    </contour>
  </outline>
</glyph>
<glyph name="E" format="1">
  <advance width="571"/>
  <unicode hex="0045"/>
  <outline>
    <contour>
      <point x="89" y="0" type="line"/>
      <point x="89" y="690" type="line"/>
      <point x="523" y="690" type="line"/>
      <point x="523" y="611" type="line"/>
      <point x="181" y="611" type="line"/>
      <point x="181" y="400" type="line"/>
      <point x="477" y="400" type="line"/>
      <point x="477" y="321" type="line"/>
      <point x="181" y="321" type="line"/>
      <point x="181" y="79" type="line"/>
      <point x="525" y="79" type="line"/>
      <point x="525" y="0" type="line"/>
    </contour>
  </outline>
</glyph>
<glyph name="E" format="1">
  <advance width="571"/>
  <unicode hex="0045"/>
  <outline>
    <contour>
      <point x="325" y="0" type="move" smooth="yes"/>
    </contour>
    <contour>
      <point x="435" y="0" type="move" smooth="yes"/>
    </contour>
    <contour>
      <point x="331" y="690" type="move" smooth="yes"/>
    </contour>
    <contour>
      <point x="89" y="0" type="line" smooth="no"/>
      <point x="89" y="690" type="line" smooth="no"/>
      <point x="523" y="690" type="line" smooth="no"/>
      <point x="523" y="611" type="line" smooth="no"/>
      <point x="181" y="611" type="line" smooth="no"/>
      <point x="181" y="400" type="line" smooth="no"/>
      <point x="477" y="400" type="line" smooth="no"/>
      <point x="477" y="321" type="line" smooth="no"/>
      <point x="181" y="321" type="line" smooth="no"/>
      <point x="181" y="79" type="line" smooth="no"/>
      <point x="525" y="79" type="line" smooth="no"/>
      <point x="525" y="0" type="line" smooth="no"/>
    </contour>
  </outline>
</glyph>
<glyph name="F" format="1">
  <advance width="557"/>
  <unicode hex="0046"/>
  <outline>
    <contour>
      <point x="89" y="0" type="line"/>
      <point x="89" y="690" type="line"/>
      <point x="522" y="690" type="line"/>
      <point x="522" y="611" type="line"/>
      <point x="181" y="611" type="line"/>
      <point x="181" y="394" type="line"/>
      <point x="474" y="394" type="line"/>
      <point x="474" y="315" type="line"/>
      <point x="181" y="315" type="line"/>
      <point x="181" y="0" type="line"/>
    </contour>
  </outline>
</glyph>
<glyph name="G" format="1">
  <advance width="680"/>
  <unicode hex="0047"/>
  <outline>
    <contour>
      <point x="358" y="0" type="move" smooth="yes"/>
    </contour>
    <contour>
      <point x="367" y="690" type="move" smooth="yes"/>
    </contour>
    <contour>
      <point x="358" y="-13" type="curve" smooth="yes"/>
      <point x="168" y="-13"/>
      <point x="61" y="105"/>
      <point x="61" y="315" type="curve" smooth="yes"/>
      <point x="61" y="378" type="line" smooth="no"/>
      <point x="62" y="588"/>
      <point x="167" y="703"/>
      <point x="348" y="703" type="curve" smooth="yes"/>
      <point x="471" y="703"/>
      <point x="564" y="653"/>
      <point x="596" y="547" type="curve" smooth="yes"/>
      <point x="597" y="545"/>
      <point x="598" y="541"/>
      <point x="599" y="539" type="curve" smooth="no"/>
      <point x="518" y="510" type="line" smooth="no"/>
      <point x="496" y="581"/>
      <point x="442" y="624"/>
      <point x="348" y="624" type="curve" smooth="yes"/>
      <point x="222" y="624"/>
      <point x="158" y="534"/>
      <point x="157" y="379" type="curve" smooth="no"/>
      <point x="157" y="315" type="line" smooth="yes"/>
      <point x="157" y="153"/>
      <point x="230" y="66"/>
      <point x="358" y="66" type="curve" smooth="yes"/>
      <point x="417" y="66"/>
      <point x="465" y="81"/>
      <point x="507" y="108" type="curve" smooth="no"/>
      <point x="507" y="269" type="line" smooth="no"/>
      <point x="346" y="269" type="line" smooth="no"/>
      <point x="346" y="348" type="line" smooth="no"/>
      <point x="600" y="348" type="line" smooth="no"/>
      <point x="600" y="69" type="line" smooth="no"/>
      <point x="542" y="24"/>
      <point x="468" y="-13"/>
    </contour>
  </outline>
</glyph>
<glyph name="H" format="1">
  <advance width="684"/>
  <unicode hex="0048"/>
  <outline>
    <contour>
      <point x="89" y="0" type="line"/>
      <point x="89" y="690" type="line"/>
      <point x="181" y="690" type="line"/>
      <point x="181" y="391" type="line"/>
      <point x="504" y="391" type="line"/>
      <point x="504" y="690" type="line"/>
      <point x="597" y="690" type="line"/>
      <point x="597" y="0" type="line"/>
      <point x="504" y="0" type="line"/>
      <point x="504" y="311" type="line"/>
      <point x="181" y="311" type="line"/>
      <point x="181" y="0" type="line"/>
    </contour>
  </outline>
</glyph>
<glyph name="H" format="1">
  <advance width="684"/>
  <unicode hex="0048"/>
  <outline>
    <contour>
      <point x="355" y="690" type="move" smooth="yes"/>
    </contour>
    <contour>
      <point x="89" y="0" type="line" smooth="no"/>
      <point x="89" y="690" type="line" smooth="no"/>
      <point x="181" y="690" type="line" smooth="no"/>
      <point x="181" y="391" type="line" smooth="no"/>
      <point x="504" y="391" type="line" smooth="no"/>
      <point x="504" y="690" type="line" smooth="no"/>
      <point x="597" y="690" type="line" smooth="no"/>
      <point x="597" y="0" type="line" smooth="no"/>
      <point x="504" y="0" type="line" smooth="no"/>
      <point x="504" y="311" type="line" smooth="no"/>
      <point x="181" y="311" type="line" smooth="no"/>
      <point x="181" y="0" type="line" smooth="no"/>
    </contour>
  </outline>
</glyph>
<glyph name="I" format="1">
  <advance width="416"/>
  <unicode hex="0049"/>
  <outline>
    <contour>
      <point x="211" y="0" type="move" name="ogonek"/>
    </contour>
    <contour>
      <point x="213" y="690" type="move" name="top"/>
    </contour>
    <contour>
      <point x="254" y="69" type="line"/>
      <point x="254" y="621" type="line"/>
      <point x="352" y="621" type="line"/>
      <point x="352" y="690" type="line"/>
      <point x="64" y="690" type="line"/>
      <point x="64" y="621" type="line"/>
      <point x="162" y="621" type="line"/>
      <point x="162" y="69" type="line"/>
      <point x="64" y="69" type="line"/>
      <point x="64" y="0" type="line"/>
      <point x="352" y="0" type="line"/>
      <point x="352" y="69" type="line"/>
    </contour>
  </outline>
</glyph>
<glyph name="I" format="1">
  <advance width="416"/>
  <unicode hex="0049"/>
  <outline>
    <contour>
      <point x="211" y="0" type="move" smooth="yes"/>
    </contour>
    <contour>
      <point x="213" y="690" type="move" smooth="yes"/>
    </contour>
    <contour>
      <point x="254" y="69" type="line" smooth="no"/>
      <point x="352" y="69" type="line" smooth="no"/>
      <point x="352" y="0" type="line" smooth="no"/>
      <point x="64" y="0" type="line" smooth="no"/>
      <point x="64" y="69" type="line" smooth="no"/>
      <point x="162" y="69" type="line" smooth="no"/>
      <point x="162" y="621" type="line" smooth="no"/>
      <point x="64" y="621" type="line" smooth="no"/>
      <point x="64" y="690" type="line" smooth="no"/>
      <point x="352" y="690" type="line" smooth="no"/>
      <point x="352" y="621" type="line" smooth="no"/>
      <point x="254" y="621" type="line" smooth="no"/>
    </contour>
  </outline>
</glyph>
<glyph name="J" format="1">
  <advance width="480"/>
  <unicode hex="004A"/>
  <outline>
    <contour>
      <point x="331" y="690" type="move" name="top"/>
    </contour>
    <contour>
      <point x="79" y="20" type="line"/>
      <point x="109" y="-2"/>
      <point x="154" y="-11"/>
      <point x="197" y="-13" type="curve" smooth="yes"/>
      <point x="321" y="-18"/>
      <point x="393" y="59"/>
      <point x="393" y="189" type="curve" smooth="yes"/>
      <point x="393" y="690" type="line"/>
      <point x="301" y="690" type="line"/>
      <point x="301" y="212" type="line" smooth="yes"/>
      <point x="301" y="103"/>
      <point x="266" y="63"/>
      <point x="193" y="66" type="curve" smooth="yes"/>
      <point x="158" y="67"/>
      <point x="120" y="82"/>
      <point x="105" y="92" type="curve"/>
    </contour>
  </outline>
</glyph>
<glyph name="J" format="1">
  <advance width="480"/>
  <unicode hex="004a"/>
  <outline>
    <contour>
      <point x="331" y="690" type="move" smooth="yes"/>
    </contour>
    <contour>
      <point x="79" y="20" type="curve" smooth="no"/>
      <point x="105" y="92" type="line" smooth="no"/>
      <point x="120" y="82"/>
      <point x="158" y="67"/>
      <point x="193" y="66" type="curve" smooth="yes"/>
      <point x="266" y="63"/>
      <point x="301" y="103"/>
      <point x="301" y="212" type="curve" smooth="yes"/>
      <point x="301" y="690" type="line" smooth="no"/>
      <point x="393" y="690" type="line" smooth="no"/>
      <point x="393" y="189" type="line" smooth="yes"/>
      <point x="393" y="59"/>
      <point x="321" y="-18"/>
      <point x="197" y="-13" type="curve" smooth="yes"/>
      <point x="154" y="-11"/>
      <point x="109" y="-2"/>
    </contour>
  </outline>
</glyph>
<glyph name="K" format="1">
  <advance width="627"/>
  <unicode hex="004B"/>
  <outline>
    <contour>
      <point x="89" y="0" type="line"/>
      <point x="89" y="690" type="line"/>
      <point x="181" y="690" type="line"/>
      <point x="181" y="333" type="line"/>
      <point x="484" y="690" type="line"/>
      <point x="594" y="690" type="line"/>
      <point x="319" y="366" type="line"/>
      <point x="610" y="0" type="line"/>
      <point x="496" y="0" type="line"/>
      <point x="253" y="308" type="line"/>
      <point x="181" y="231" type="line"/>
      <point x="181" y="0" type="line"/>
    </contour>
  </outline>
</glyph>
<glyph name="K" format="1">
  <advance width="627"/>
  <unicode hex="004b"/>
  <outline>
    <contour>
      <point x="331" y="0" type="move" smooth="yes"/>
    </contour>
    <contour>
      <point x="321" y="690" type="move" smooth="yes"/>
    </contour>
    <contour>
      <point x="89" y="0" type="line" smooth="no"/>
      <point x="89" y="690" type="line" smooth="no"/>
      <point x="181" y="690" type="line" smooth="no"/>
      <point x="181" y="333" type="line" smooth="no"/>
      <point x="484" y="690" type="line" smooth="no"/>
      <point x="594" y="690" type="line" smooth="no"/>
      <point x="319" y="366" type="line" smooth="no"/>
      <point x="610" y="0" type="line" smooth="no"/>
      <point x="496" y="0" type="line" smooth="no"/>
      <point x="253" y="308" type="line" smooth="no"/>
      <point x="181" y="231" type="line" smooth="no"/>
      <point x="181" y="0" type="line" smooth="no"/>
    </contour>
  </outline>
</glyph>
<glyph name="L" format="1">
  <advance width="520"/>
  <unicode hex="004C"/>
  <outline>
    <contour>
      <point x="138" y="368" type="move" smooth="yes"/>
    </contour>
    <contour>
      <point x="297" y="0" type="move" smooth="yes"/>
    </contour>
    <contour>
      <point x="151" y="690" type="move" smooth="yes"/>
    </contour>
    <contour>
      <point x="89" y="0" type="line"/>
      <point x="89" y="690" type="line"/>
      <point x="181" y="690" type="line"/>
      <point x="181" y="79" type="line"/>
      <point x="499" y="79" type="line"/>
      <point x="499" y="0" type="line"/>
    </contour>
  </outline>
</glyph>
<glyph name="M" format="1">
  <advance width="818"/>
  <unicode hex="004D"/>
  <outline>
    <contour>
      <point x="610" y="690" type="line"/>
      <point x="411" y="272" type="line"/>
      <point x="409" y="272" type="line"/>
      <point x="211" y="690" type="line"/>
      <point x="89" y="690" type="line"/>
      <point x="89" y="0" type="line"/>
      <point x="179" y="0" type="line"/>
      <point x="179" y="281" type="line"/>
      <point x="175" y="564" type="line"/>
      <point x="176" y="564" type="line"/>
      <point x="379" y="145" type="line"/>
      <point x="438" y="145" type="line"/>
      <point x="642" y="565" type="line"/>
      <point x="644" y="564" type="line"/>
      <point x="640" y="281" type="line"/>
      <point x="640" y="0" type="line"/>
      <point x="730" y="0" type="line"/>
      <point x="730" y="690" type="line"/>
    </contour>
  </outline>
</glyph>
<glyph name="M" format="1">
  <advance width="818"/>
  <unicode hex="004d"/>
  <outline>
    <contour>
      <point x="418" y="690" type="move" smooth="yes"/>
    </contour>
    <contour>
      <point x="89" y="0" type="line" smooth="no"/>
      <point x="89" y="690" type="line" smooth="no"/>
      <point x="211" y="690" type="line" smooth="no"/>
      <point x="409" y="272" type="line" smooth="no"/>
      <point x="411" y="272" type="line" smooth="no"/>
      <point x="610" y="690" type="line" smooth="no"/>
      <point x="730" y="690" type="line" smooth="no"/>
      <point x="730" y="0" type="line" smooth="no"/>
      <point x="640" y="0" type="line" smooth="no"/>
      <point x="640" y="281" type="line" smooth="no"/>
      <point x="644" y="564" type="line" smooth="no"/>
      <point x="642" y="565" type="line" smooth="no"/>
      <point x="438" y="145" type="line" smooth="no"/>
      <point x="379" y="145" type="line" smooth="no"/>
      <point x="176" y="564" type="line" smooth="no"/>
      <point x="175" y="564" type="line" smooth="no"/>
      <point x="179" y="281" type="line" smooth="no"/>
      <point x="179" y="0" type="line" smooth="no"/>
    </contour>
  </outline>
</glyph>
<glyph name="N" format="1">
  <advance width="691"/>
  <unicode hex="004e"/>
  <outline>
    <contour>
      <point x="363" y="0" type="move" smooth="yes"/>
    </contour>
    <contour>
      <point x="361" y="690" type="move" smooth="yes"/>
    </contour>
    <contour>
      <point x="89" y="0" type="line" smooth="no"/>
      <point x="89" y="690" type="line" smooth="no"/>
      <point x="206" y="690" type="line" smooth="no"/>
      <point x="511" y="152" type="line" smooth="no"/>
      <point x="513" y="152" type="line" smooth="no"/>
      <point x="513" y="690" type="line" smooth="no"/>
      <point x="603" y="690" type="line" smooth="no"/>
      <point x="603" y="0" type="line" smooth="no"/>
      <point x="501" y="0" type="line" smooth="no"/>
      <point x="181" y="568" type="line" smooth="no"/>
      <point x="179" y="568" type="line" smooth="no"/>
      <point x="179" y="0" type="line" smooth="no"/>
    </contour>
  </outline>
</glyph>
<glyph name="O" format="1">
  <advance width="672"/>
  <unicode hex="004F"/>
  <outline>
    <contour>
      <point x="334" y="-13" type="curve" smooth="yes"/>
      <point x="156" y="-13"/>
      <point x="57" y="107"/>
      <point x="57" y="320" type="curve" smooth="yes"/>
      <point x="57" y="376" type="line" smooth="yes"/>
      <point x="58" y="584"/>
      <point x="156" y="703"/>
      <point x="334" y="703" type="curve" smooth="yes"/>
      <point x="513" y="703"/>
      <point x="614" y="587"/>
      <point x="615" y="376" type="curve" smooth="yes"/>
      <point x="615" y="320" type="line" smooth="yes"/>
      <point x="615" y="105"/>
      <point x="513" y="-13"/>
    </contour>
    <contour>
      <point x="334" y="67" type="curve" smooth="yes"/>
      <point x="459" y="67"/>
      <point x="520" y="156"/>
      <point x="520" y="320" type="curve" smooth="yes"/>
      <point x="520" y="375" type="line" smooth="yes"/>
      <point x="519" y="534"/>
      <point x="458" y="623"/>
      <point x="334" y="623" type="curve" smooth="yes"/>
      <point x="211" y="623"/>
      <point x="153" y="533"/>
      <point x="152" y="375" type="curve" smooth="yes"/>
      <point x="152" y="320" type="line" smooth="yes"/>
      <point x="152" y="158"/>
      <point x="211" y="67"/>
    </contour>
  </outline>
</glyph>
<glyph name="P" format="1">
  <advance width="602"/>
  <unicode hex="0050"/>
  <outline>
    <contour>
      <point x="321" y="690" type="move" smooth="yes"/>
    </contour>
    <contour>
      <point x="89" y="0" type="line" smooth="no"/>
      <point x="89" y="690" type="line" smooth="no"/>
      <point x="318" y="690" type="line" smooth="yes"/>
      <point x="476" y="690"/>
      <point x="557" y="619"/>
      <point x="557" y="475" type="curve" smooth="yes"/>
      <point x="557" y="322"/>
      <point x="475" y="252"/>
      <point x="315" y="252" type="curve" smooth="yes"/>
      <point x="181" y="252" type="line" smooth="no"/>
      <point x="181" y="0" type="line" smooth="no"/>
    </contour>
    <contour>
      <point x="181" y="331" type="line" smooth="no"/>
      <point x="304" y="331" type="line" smooth="yes"/>
      <point x="425" y="331"/>
      <point x="462" y="371"/>
      <point x="462" y="474" type="curve" smooth="yes"/>
      <point x="462" y="565"/>
      <point x="415" y="611"/>
      <point x="311" y="611" type="curve" smooth="yes"/>
      <point x="181" y="611" type="line" smooth="no"/>
    </contour>
  </outline>
</glyph>
<glyph name="Q" format="1">
  <advance width="672"/>
  <unicode hex="0051"/>
  <outline>
    <component base="O"/>
    <contour>
      <point x="452" y="-140" type="line"/>
      <point x="310" y="174" type="line"/>
      <point x="388" y="190" type="line"/>
      <point x="539" y="-140" type="line"/>
    </contour>
  </outline>
</glyph>
<glyph name="R" format="1">
  <advance width="627"/>
  <unicode hex="0052"/>
  <outline>
    <contour>
      <point x="89" y="0" type="line"/>
      <point x="181" y="0" type="line"/>
      <point x="181" y="289" type="line"/>
      <point x="322.127" y="289.0"/>
      <point x="328.179" y="289.115"/>
      <point x="334.149" y="289.346" type="curve"/>
      <point x="465" y="0" type="line"/>
      <point x="566" y="0" type="line"/>
      <point x="426.491" y="304.888" type="line"/>
      <point x="504.968" y="331.072"/>
      <point x="555" y="391.022"/>
      <point x="555" y="495" type="curve" smooth="yes"/>
      <point x="555" y="629"/>
      <point x="477" y="690"/>
      <point x="318" y="690" type="curve" smooth="yes"/>
      <point x="89" y="690" type="line"/>
    </contour>
    <contour>
      <point x="181" y="367" type="line"/>
      <point x="181" y="612" type="line"/>
      <point x="317" y="612" type="line" smooth="yes"/>
      <point x="414" y="612"/>
      <point x="460" y="579"/>
      <point x="460" y="491" type="curve" smooth="yes"/>
      <point x="460" y="400"/>
      <point x="420" y="367"/>
      <point x="310" y="367" type="curve" smooth="yes"/>
    </contour>
  </outline>
</glyph>
<glyph name="R" format="1">
  <advance width="627"/>
  <unicode hex="0052"/>
  <outline>
    <contour>
      <point x="325" y="0" type="move" smooth="yes"/>
    </contour>
    <contour>
      <point x="321" y="690" type="move" smooth="yes"/>
    </contour>
    <contour>
      <point x="89" y="0" type="line" smooth="no"/>
      <point x="89" y="690" type="line" smooth="no"/>
      <point x="318" y="690" type="line" smooth="yes"/>
      <point x="477" y="690"/>
      <point x="555" y="629"/>
      <point x="555" y="495" type="curve" smooth="yes"/>
      <point x="555" y="348"/>
      <point x="455" y="289"/>
      <point x="316" y="289" type="curve" smooth="yes"/>
      <point x="181" y="289" type="line" smooth="no"/>
      <point x="181" y="0" type="line" smooth="no"/>
    </contour>
    <contour>
      <point x="181" y="367" type="line" smooth="no"/>
      <point x="310" y="367" type="line" smooth="yes"/>
      <point x="420" y="367"/>
      <point x="460" y="400"/>
      <point x="460" y="491" type="curve" smooth="yes"/>
      <point x="460" y="579"/>
      <point x="414" y="612"/>
      <point x="317" y="612" type="curve" smooth="yes"/>
      <point x="181" y="612" type="line" smooth="no"/>
    </contour>
    <contour>
      <point x="465" y="-0" type="line" smooth="no"/>
      <point x="323" y="314" type="line" smooth="no"/>
      <point x="415" y="330" type="line" smooth="no"/>
      <point x="566" y="0" type="line" smooth="no"/>
    </contour>
  </outline>
</glyph>
<glyph name="S" format="1">
  <advance width="609"/>
  <unicode hex="0053"/>
  <outline>
    <contour>
      <point x="306" y="-13" type="curve" smooth="yes"/>
      <point x="180" y="-13"/>
      <point x="83" y="44"/>
      <point x="52" y="144" type="curve" smooth="yes"/>
      <point x="51" y="147"/>
      <point x="49" y="150"/>
      <point x="48" y="153" type="curve" smooth="yes"/>
      <point x="129" y="182" type="line"/>
      <point x="152" y="104"/>
      <point x="219" y="66"/>
      <point x="305" y="66" type="curve" smooth="yes"/>
      <point x="396" y="66"/>
      <point x="461" y="105"/>
      <point x="461" y="179" type="curve" smooth="yes"/>
      <point x="461" y="216"/>
      <point x="445" y="242"/>
      <point x="418" y="262" type="curve" smooth="yes"/>
      <point x="391" y="282"/>
      <point x="350" y="296"/>
      <point x="301" y="308" type="curve" smooth="yes"/>
      <point x="231" y="325"/>
      <point x="172" y="345"/>
      <point x="130" y="375" type="curve" smooth="yes"/>
      <point x="88" y="405"/>
      <point x="64" y="447"/>
      <point x="64" y="508" type="curve" smooth="yes"/>
      <point x="64" y="624"/>
      <point x="151" y="703"/>
      <point x="301" y="703" type="curve" smooth="yes"/>
      <point x="433" y="703"/>
      <point x="512" y="636"/>
      <point x="538" y="553" type="curve" smooth="yes"/>
      <point x="541" y="544" type="line"/>
      <point x="462" y="513" type="line"/>
      <point x="441" y="584"/>
      <point x="386" y="624"/>
      <point x="301" y="624" type="curve" smooth="yes"/>
      <point x="214" y="624"/>
      <point x="158" y="583"/>
      <point x="158" y="513" type="curve" smooth="yes"/>
      <point x="158" y="480"/>
      <point x="173" y="457"/>
      <point x="200" y="439" type="curve" smooth="yes"/>
      <point x="227" y="421"/>
      <point x="270" y="407"/>
      <point x="326" y="393" type="curve" smooth="yes"/>
      <point x="393" y="376"/>
      <point x="450" y="356"/>
      <point x="491" y="324" type="curve" smooth="yes"/>
      <point x="531" y="292"/>
      <point x="555" y="247"/>
      <point x="555" y="183" type="curve" smooth="yes"/>
      <point x="555" y="56"/>
      <point x="455" y="-13"/>
    </contour>
  </outline>
</glyph>
<glyph name="T" format="1">
  <advance width="581"/>
  <unicode hex="0054"/>
  <outline>
    <contour>
      <point x="244" y="0" type="line"/>
      <point x="244" y="611" type="line"/>
      <point x="19" y="611" type="line"/>
      <point x="19" y="690" type="line"/>
      <point x="563" y="690" type="line"/>
      <point x="563" y="611" type="line"/>
      <point x="337" y="611" type="line"/>
      <point x="337" y="0" type="line"/>
    </contour>
  </outline>
</glyph>
<glyph name="T" format="1">
  <advance width="581"/>
  <unicode hex="0054"/>
  <outline>
    <contour>
      <point x="295" y="357" type="move" smooth="yes"/>
    </contour>
    <contour>
      <point x="293" y="0" type="move" smooth="yes"/>
    </contour>
    <contour>
      <point x="292" y="690" type="move" smooth="yes"/>
    </contour>
    <contour>
      <point x="244" y="0" type="line" smooth="no"/>
      <point x="244" y="611" type="line" smooth="no"/>
      <point x="19" y="611" type="line" smooth="no"/>
      <point x="19" y="690" type="line" smooth="no"/>
      <point x="563" y="690" type="line" smooth="no"/>
      <point x="563" y="611" type="line" smooth="no"/>
      <point x="337" y="611" type="line" smooth="no"/>
      <point x="337" y="0" type="line" smooth="no"/>
    </contour>
  </outline>
</glyph>
<glyph name="U" format="1">
  <advance width="682"/>
  <unicode hex="0055"/>
  <outline>
    <contour>
      <point x="353" y="0" type="move" smooth="yes"/>
    </contour>
    <contour>
      <point x="354" y="690" type="move" smooth="yes"/>
    </contour>
    <contour>
      <point x="341" y="-13" type="curve" smooth="yes"/>
      <point x="164" y="-13"/>
      <point x="82" y="68"/>
      <point x="82" y="261" type="curve" smooth="yes"/>
      <point x="82" y="690" type="line"/>
      <point x="175" y="690" type="line"/>
      <point x="175" y="267" type="line" smooth="yes"/>
      <point x="175" y="119"/>
      <point x="225" y="65"/>
      <point x="340" y="65" type="curve" smooth="yes"/>
      <point x="457" y="65"/>
      <point x="509" y="111"/>
      <point x="509" y="266" type="curve" smooth="yes"/>
      <point x="509" y="690" type="line"/>
      <point x="602" y="690" type="line"/>
      <point x="602" y="261" type="line" smooth="yes"/>
      <point x="602" y="66"/>
      <point x="521" y="-13"/>
    </contour>
  </outline>
</glyph>
<glyph name="V" format="1">
  <advance width="612"/>
  <unicode hex="0056"/>
  <outline>
    <contour>
      <point x="252" y="0" type="line"/>
      <point x="358" y="0" type="line"/>
      <point x="593" y="690" type="line"/>
      <point x="496" y="690" type="line"/>
      <point x="334" y="190" type="line"/>
      <point x="307" y="100" type="line"/>
      <point x="306" y="100" type="line"/>
      <point x="278" y="194" type="line"/>
      <point x="118" y="690" type="line"/>
      <point x="19" y="690" type="line"/>
    </contour>
  </outline>
</glyph>
<glyph name="W" format="1">
  <advance width="868"/>
  <unicode hex="0057"/>
  <outline>
    <contour>
      <point x="434" y="690" type="move" smooth="yes"/>
    </contour>
    <contour>
      <point x="195" y="0" type="line" smooth="no"/>
      <point x="30" y="690" type="line" smooth="no"/>
      <point x="123" y="690" type="line" smooth="no"/>
      <point x="229" y="229" type="line" smooth="no"/>
      <point x="247" y="141" type="line" smooth="no"/>
      <point x="248" y="141" type="line" smooth="no"/>
      <point x="268" y="228" type="line" smooth="no"/>
      <point x="385" y="690" type="line" smooth="no"/>
      <point x="480" y="690" type="line" smooth="no"/>
      <point x="597" y="232" type="line" smooth="no"/>
      <point x="618" y="138" type="line" smooth="no"/>
      <point x="620" y="138" type="line" smooth="no"/>
      <point x="639" y="232" type="line" smooth="no"/>
      <point x="744" y="690" type="line" smooth="no"/>
      <point x="836" y="690" type="line" smooth="no"/>
      <point x="669" y="0" type="line" smooth="no"/>
      <point x="570" y="0" type="line" smooth="no"/>
      <point x="451" y="468" type="line" smooth="no"/>
      <point x="433" y="548" type="line" smooth="no"/>
      <point x="431" y="548" type="line" smooth="no"/>
      <point x="414" y="469" type="line" smooth="no"/>
      <point x="293" y="0" type="line" smooth="no"/>
    </contour>
  </outline>
</glyph>
<glyph name="X" format="1">
  <advance width="606"/>
  <unicode hex="0058"/>
  <outline>
    <contour>
      <point x="28" y="0" type="line"/>
      <point x="136" y="0" type="line"/>
      <point x="304" y="276" type="line"/>
      <point x="471" y="0" type="line"/>
      <point x="580" y="0" type="line"/>
      <point x="359" y="349" type="line"/>
      <point x="579" y="690" type="line"/>
      <point x="471" y="690" type="line"/>
      <point x="306" y="419" type="line"/>
      <point x="144" y="690" type="line"/>
      <point x="34" y="690" type="line"/>
      <point x="252" y="347" type="line"/>
    </contour>
  </outline>
</glyph>
<glyph name="Y" format="1">
  <advance width="580"/>
  <unicode hex="0059"/>
  <outline>
    <contour>
      <point x="301" y="690" type="move" name="top"/>
    </contour>
    <contour>
      <point x="243" y="0" type="line"/>
      <point x="336" y="0" type="line"/>
      <point x="336" y="257" type="line"/>
      <point x="565" y="690" type="line"/>
      <point x="462" y="690" type="line"/>
      <point x="291" y="348" type="line"/>
      <point x="121" y="690" type="line"/>
      <point x="16" y="690" type="line"/>
      <point x="243" y="257" type="line"/>
    </contour>
  </outline>
</glyph>
<glyph name="Y" format="1">
  <advance width="580"/>
  <unicode hex="0059"/>
  <outline>
    <contour>
      <point x="301" y="690" type="move" smooth="yes"/>
    </contour>
    <contour>
      <point x="243" y="0" type="line" smooth="no"/>
      <point x="243" y="257" type="line" smooth="no"/>
      <point x="16" y="690" type="line" smooth="no"/>
      <point x="121" y="690" type="line" smooth="no"/>
      <point x="291" y="348" type="line" smooth="no"/>
      <point x="462" y="690" type="line" smooth="no"/>
      <point x="565" y="690" type="line" smooth="no"/>
      <point x="336" y="257" type="line" smooth="no"/>
      <point x="336" y="0" type="line" smooth="no"/>
    </contour>
  </outline>
</glyph>
<glyph name="Z" format="1">
  <advance width="579"/>
  <unicode hex="005A"/>
  <outline>
    <contour>
      <point x="57" y="690" type="line"/>
      <point x="57" y="611" type="line"/>
      <point x="412" y="611" type="line"/>
      <point x="46" y="80" type="line"/>
      <point x="46" y="0" type="line"/>
      <point x="531" y="0" type="line"/>
      <point x="531" y="79" type="line"/>
      <point x="151" y="79" type="line"/>
      <point x="520" y="614" type="line"/>
      <point x="520" y="690" type="line"/>
    </contour>
  </outline>
</glyph>
<glyph name="Z" format="1">
  <advance width="579"/>
  <unicode hex="005a"/>
  <outline>
    <contour>
      <point x="311" y="690" type="move" smooth="yes"/>
    </contour>
    <contour>
      <point x="46" y="0" type="line" smooth="no"/>
      <point x="46" y="80" type="line" smooth="no"/>
      <point x="412" y="611" type="line" smooth="no"/>
      <point x="57" y="611" type="line" smooth="no"/>
      <point x="57" y="690" type="line" smooth="no"/>
      <point x="520" y="690" type="line" smooth="no"/>
      <point x="520" y="614" type="line" smooth="no"/>
      <point x="151" y="79" type="line" smooth="no"/>
      <point x="531" y="79" type="line" smooth="no"/>
      <point x="531" y="0" type="line" smooth="no"/>
    </contour>
  </outline>
</glyph>
<glyph name="bracketleft" format="1">
  <advance width="343"/>
  <unicode hex="005b"/>
  <outline>
    <contour>
      <point x="85" y="-177" type="line" smooth="no"/>
      <point x="85" y="762" type="line" smooth="no"/>
      <point x="303" y="762" type="line" smooth="no"/>
      <point x="303" y="692" type="line" smooth="no"/>
      <point x="170" y="692" type="line" smooth="no"/>
      <point x="170" y="-107" type="line" smooth="no"/>
      <point x="303" y="-107" type="line" smooth="no"/>
      <point x="303" y="-177" type="line" smooth="no"/>
    </contour>
  </outline>
</glyph>
<glyph name="backslash" format="1">
  <advance width="455"/>
  <unicode hex="005c"/>
  <outline>
    <contour>
      <point x="366" y="-112" type="line" smooth="no"/>
      <point x="37" y="730" type="line" smooth="no"/>
      <point x="123" y="730" type="line" smooth="no"/>
      <point x="451" y="-112" type="line" smooth="no"/>
    </contour>
  </outline>
</glyph>
<glyph name="bracketright" format="1">
  <advance width="343"/>
  <unicode hex="005d"/>
  <outline>
    <contour>
      <point x="38" y="-177" type="line" smooth="no"/>
      <point x="38" y="-107" type="line" smooth="no"/>
      <point x="172" y="-107" type="line" smooth="no"/>
      <point x="172" y="692" type="line" smooth="no"/>
      <point x="38" y="692" type="line" smooth="no"/>
      <point x="38" y="762" type="line" smooth="no"/>
      <point x="256" y="762" type="line" smooth="no"/>
      <point x="256" y="-177" type="line" smooth="no"/>
    </contour>
  </outline>
</glyph>
<glyph name="asciicircum" format="1">
  <advance width="606"/>
  <unicode hex="005e"/>
  <outline>
    <contour>
      <point x="70" y="290" type="line" smooth="no"/>
      <point x="267" y="676" type="line" smooth="no"/>
      <point x="340" y="676" type="line" smooth="no"/>
      <point x="537" y="290" type="line" smooth="no"/>
      <point x="463" y="290" type="line" smooth="no"/>
      <point x="304" y="601" type="line" smooth="no"/>
      <point x="144" y="290" type="line" smooth="no"/>
    </contour>
  </outline>
</glyph>
<glyph name="underscore" format="1">
  <advance width="481"/>
  <unicode hex="005f"/>
  <outline>
    <contour>
      <point x="-2" y="-105" type="line" smooth="no"/>
      <point x="-2" y="-45" type="line" smooth="no"/>
      <point x="484" y="-45" type="line" smooth="no"/>
      <point x="484" y="-105" type="line" smooth="no"/>
    </contour>
  </outline>
</glyph>
<glyph name="grave" format="1">
  <advance width="443"/>
  <unicode hex="0060"/>
  <outline>
    <contour>
      <point x="263" y="519" type="move" name="_top"/>
    </contour>
    <contour>
      <point x="223" y="591" type="line"/>
      <point x="296" y="591" type="line"/>
      <point x="209" y="749" type="line"/>
      <point x="95" y="749" type="line"/>
    </contour>
  </outline>
</glyph>
<glyph name="a" format="1">
  <advance width="542"/>
  <unicode hex="0061"/>
  <outline>
    <contour>
      <point x="212" y="-13" type="curve" smooth="yes"/>
      <point x="281" y="-13"/>
      <point x="334" y="25"/>
      <point x="378" y="70" type="curve"/>
      <point x="378" y="58"/>
      <point x="380" y="11"/>
      <point x="382" y="0" type="curve"/>
      <point x="472" y="0" type="line"/>
      <point x="468" y="13"/>
      <point x="467" y="83"/>
      <point x="467" y="99" type="curve" smooth="yes"/>
      <point x="467" y="353" type="line" smooth="yes"/>
      <point x="467" y="478"/>
      <point x="399" y="532"/>
      <point x="264" y="532" type="curve" smooth="yes"/>
      <point x="162" y="532"/>
      <point x="91" y="486"/>
      <point x="71" y="425" type="curve" smooth="yes"/>
      <point x="68" y="416" type="line"/>
      <point x="146" y="391" type="line"/>
      <point x="156" y="428"/>
      <point x="197" y="458"/>
      <point x="260" y="458" type="curve" smooth="yes"/>
      <point x="333" y="458"/>
      <point x="378" y="429"/>
      <point x="378" y="356" type="curve" smooth="yes"/>
      <point x="378" y="320" type="line"/>
      <point x="261" y="314" type="line" smooth="yes"/>
      <point x="121" y="303"/>
      <point x="53" y="254"/>
      <point x="53" y="146" type="curve" smooth="yes"/>
      <point x="53" y="49"/>
      <point x="111" y="-13"/>
    </contour>
    <contour>
      <point x="233" y="64" type="curve" smooth="yes"/>
      <point x="175" y="64"/>
      <point x="143" y="89"/>
      <point x="143" y="146" type="curve" smooth="yes"/>
      <point x="143" y="209"/>
      <point x="193" y="243"/>
      <point x="286" y="249" type="curve" smooth="yes"/>
      <point x="378" y="254" type="line"/>
      <point x="378" y="144" type="line"/>
      <point x="345" y="105"/>
      <point x="290" y="64"/>
    </contour>
  </outline>
</glyph>
<glyph name="b" format="1">
  <advance width="571"/>
  <unicode hex="0062"/>
  <outline>
    <contour>
      <point x="321" y="519" type="move" name="top"/>
    </contour>
    <contour>
      <point x="315" y="-13" type="curve" smooth="yes"/>
      <point x="445" y="-13"/>
      <point x="517" y="92"/>
      <point x="518" y="249" type="curve"/>
      <point x="518" y="258" type="line" smooth="yes"/>
      <point x="518" y="421"/>
      <point x="453" y="532"/>
      <point x="320" y="532" type="curve" smooth="yes"/>
      <point x="254" y="532"/>
      <point x="202" y="503"/>
      <point x="167" y="463" type="curve"/>
      <point x="167" y="741" type="line"/>
      <point x="78" y="741" type="line"/>
      <point x="78" y="0" type="line"/>
      <point x="160" y="0" type="line"/>
      <point x="164" y="53" type="line"/>
      <point x="200" y="15"/>
      <point x="252" y="-13"/>
    </contour>
    <contour>
      <point x="298" y="63" type="curve" smooth="yes"/>
      <point x="243" y="63"/>
      <point x="198" y="92"/>
      <point x="167" y="130" type="curve"/>
      <point x="167" y="384" type="line"/>
      <point x="198" y="423"/>
      <point x="243" y="455"/>
      <point x="300" y="455" type="curve" smooth="yes"/>
      <point x="388" y="455"/>
      <point x="428" y="382"/>
      <point x="428" y="257" type="curve" smooth="yes"/>
      <point x="428" y="249" type="line"/>
      <point x="427" y="130"/>
      <point x="381" y="63"/>
    </contour>
  </outline>
</glyph>
<glyph name="c" format="1">
  <advance width="513"/>
  <unicode hex="0063"/>
  <outline>
    <contour>
      <point x="291" y="0" type="move" smooth="yes"/>
    </contour>
    <contour>
      <point x="289" y="519" type="move" smooth="yes"/>
    </contour>
    <contour>
      <point x="285" y="-13" type="curve" smooth="yes"/>
      <point x="133" y="-13"/>
      <point x="53" y="87"/>
      <point x="53" y="255" type="curve" smooth="yes"/>
      <point x="53" y="267" type="line"/>
      <point x="54" y="432"/>
      <point x="134" y="532"/>
      <point x="282" y="532" type="curve" smooth="yes"/>
      <point x="379" y="532"/>
      <point x="450" y="482"/>
      <point x="472" y="406" type="curve" smooth="yes"/>
      <point x="473" y="403"/>
      <point x="473" y="401"/>
      <point x="474" y="399" type="curve"/>
      <point x="398" y="373" type="line"/>
      <point x="383" y="423"/>
      <point x="343" y="458"/>
      <point x="282" y="458" type="curve" smooth="yes"/>
      <point x="184" y="458"/>
      <point x="145" y="381"/>
      <point x="144" y="266" type="curve"/>
      <point x="144" y="253" type="line" smooth="yes"/>
      <point x="144" y="124"/>
      <point x="186" y="61"/>
      <point x="284" y="61" type="curve" smooth="yes"/>
      <point x="341" y="61"/>
      <point x="384" y="90"/>
      <point x="402" y="140" type="curve"/>
      <point x="478" y="114" type="line"/>
      <point x="477" y="111"/>
      <point x="476" y="109"/>
      <point x="475" y="106" type="curve" smooth="yes"/>
      <point x="456" y="40"/>
      <point x="385" y="-13"/>
    </contour>
  </outline>
</glyph>
<glyph name="d" format="1">
  <advance width="571"/>
  <unicode hex="0064"/>
  <outline>
    <contour>
      <point x="430" y="647" type="move" smooth="yes"/>
    </contour>
    <contour>
      <point x="262" y="519" type="move" smooth="yes"/>
    </contour>
    <contour>
      <point x="252" y="-13" type="curve" smooth="yes"/>
      <point x="125" y="-13"/>
      <point x="54" y="88"/>
      <point x="53" y="243" type="curve" smooth="no"/>
      <point x="53" y="253" type="line" smooth="yes"/>
      <point x="53" y="414"/>
      <point x="125" y="532"/>
      <point x="260" y="532" type="curve" smooth="yes"/>
      <point x="318" y="532"/>
      <point x="365" y="510"/>
      <point x="403" y="471" type="curve" smooth="no"/>
      <point x="403" y="741" type="line" smooth="no"/>
      <point x="492" y="741" type="line" smooth="no"/>
      <point x="492" y="0" type="line" smooth="no"/>
      <point x="410" y="0" type="line" smooth="no"/>
      <point x="406" y="56" type="line" smooth="no"/>
      <point x="370" y="16"/>
      <point x="318" y="-13"/>
    </contour>
    <contour>
      <point x="271" y="63" type="curve" smooth="yes"/>
      <point x="328" y="63"/>
      <point x="373" y="94"/>
      <point x="403" y="132" type="curve" smooth="no"/>
      <point x="403" y="394" type="line" smooth="no"/>
      <point x="367" y="432"/>
      <point x="326" y="455"/>
      <point x="276" y="455" type="curve" smooth="yes"/>
      <point x="190" y="455"/>
      <point x="145" y="380"/>
      <point x="144" y="258" type="curve" smooth="no"/>
      <point x="144" y="250" type="line" smooth="yes"/>
      <point x="144" y="132"/>
      <point x="183" y="63"/>
    </contour>
  </outline>
</glyph>
<glyph name="e" format="1">
  <advance width="528"/>
  <unicode hex="0065"/>
  <outline>
    <contour>
      <point x="345" y="0" type="move" smooth="yes"/>
    </contour>
    <contour>
      <point x="279" y="519" type="move" smooth="yes"/>
    </contour>
    <contour>
      <point x="286" y="-13" type="curve" smooth="yes"/>
      <point x="135" y="-13"/>
      <point x="54" y="85"/>
      <point x="54" y="253" type="curve" smooth="yes"/>
      <point x="54" y="268" type="line"/>
      <point x="56" y="436"/>
      <point x="141" y="532"/>
      <point x="277" y="532" type="curve" smooth="yes"/>
      <point x="414" y="532"/>
      <point x="483" y="449"/>
      <point x="483" y="297" type="curve" smooth="yes"/>
      <point x="483" y="244" type="line"/>
      <point x="145" y="243" type="line"/>
      <point x="146" y="124"/>
      <point x="191" y="61"/>
      <point x="290" y="61" type="curve" smooth="yes"/>
      <point x="344" y="61"/>
      <point x="383" y="79"/>
      <point x="416" y="118" type="curve"/>
      <point x="472" y="68" type="line"/>
      <point x="432" y="17"/>
      <point x="377" y="-13"/>
    </contour>
    <contour>
      <point x="147" y="314" type="line"/>
      <point x="395" y="314" type="line"/>
      <point x="394" y="405"/>
      <point x="357" y="459"/>
      <point x="275" y="459" type="curve" smooth="yes"/>
      <point x="198" y="459"/>
      <point x="159" y="405"/>
      <point x="147" y="318" type="curve"/>
    </contour>
  </outline>
</glyph>
<glyph name="f" format="1">
  <advance width="323"/>
  <unicode hex="0066"/>
  <outline>
    <contour>
      <point x="150" y="754" type="move" name="top"/>
    </contour>
    <contour>
      <point x="102" y="0" type="line"/>
      <point x="191" y="0" type="line"/>
      <point x="191" y="448" type="line"/>
      <point x="303" y="448" type="line"/>
      <point x="303" y="519" type="line"/>
      <point x="191" y="519" type="line"/>
      <point x="191" y="576" type="line" smooth="yes"/>
      <point x="191" y="651"/>
      <point x="211" y="679"/>
      <point x="269" y="679" type="curve" smooth="yes"/>
      <point x="289" y="679"/>
      <point x="316" y="673"/>
      <point x="333" y="666" type="curve"/>
      <point x="351" y="739" type="line"/>
      <point x="324" y="749"/>
      <point x="296" y="754"/>
      <point x="263" y="754" type="curve" smooth="yes"/>
      <point x="149" y="754"/>
      <point x="102" y="694"/>
      <point x="102" y="576" type="curve" smooth="yes"/>
      <point x="102" y="519" type="line"/>
      <point x="24" y="519" type="line"/>
      <point x="24" y="448" type="line"/>
      <point x="102" y="448" type="line"/>
    </contour>
  </outline>
</glyph>
<glyph name="g" format="1">
  <advance width="571"/>
  <unicode hex="0067"/>
  <outline>
    <contour>
      <point x="258" y="519" type="move" smooth="yes"/>
    </contour>
    <contour>
      <point x="270" y="-201" type="curve" smooth="yes"/>
      <point x="202" y="-201"/>
      <point x="139" y="-184"/>
      <point x="94" y="-157" type="curve"/>
      <point x="123" y="-86" type="line"/>
      <point x="162" y="-112"/>
      <point x="214" y="-127"/>
      <point x="269" y="-127" type="curve" smooth="yes"/>
      <point x="363" y="-127"/>
      <point x="405" y="-89"/>
      <point x="405" y="2" type="curve" smooth="yes"/>
      <point x="405" y="62" type="line"/>
      <point x="369" y="24"/>
      <point x="318" y="-4"/>
      <point x="253" y="-4" type="curve" smooth="yes"/>
      <point x="123" y="-4"/>
      <point x="54" y="97"/>
      <point x="54" y="255" type="curve" smooth="yes"/>
      <point x="54" y="264" type="line"/>
      <point x="56" y="421"/>
      <point x="128" y="532"/>
      <point x="261" y="532" type="curve" smooth="yes"/>
      <point x="321" y="532"/>
      <point x="370" y="507"/>
      <point x="408" y="466" type="curve"/>
      <point x="412" y="519" type="line"/>
      <point x="494" y="519" type="line"/>
      <point x="494" y="6" type="line" smooth="yes"/>
      <point x="494" y="-132"/>
      <point x="422" y="-201"/>
    </contour>
    <contour>
      <point x="272" y="72" type="curve" smooth="yes"/>
      <point x="325" y="72"/>
      <point x="368" y="98"/>
      <point x="405" y="142" type="curve"/>
      <point x="405" y="393" type="line"/>
      <point x="369" y="431"/>
      <point x="327" y="455"/>
      <point x="277" y="455" type="curve" smooth="yes"/>
      <point x="186" y="455"/>
      <point x="146" y="376"/>
      <point x="145" y="264" type="curve"/>
      <point x="145" y="256" type="line" smooth="yes"/>
      <point x="145" y="137"/>
      <point x="185" y="72"/>
    </contour>
  </outline>
</glyph>
<glyph name="h" format="1">
  <advance width="568"/>
  <unicode hex="0068"/>
  <outline>
    <contour>
      <point x="122" y="616" type="move" smooth="yes"/>
    </contour>
    <contour>
      <point x="336" y="519" type="move" smooth="yes"/>
    </contour>
    <contour>
      <point x="78" y="0" type="line"/>
      <point x="78" y="741" type="line"/>
      <point x="167" y="741" type="line"/>
      <point x="167" y="445" type="line"/>
      <point x="208" y="491"/>
      <point x="269" y="532"/>
      <point x="336" y="532" type="curve" smooth="yes"/>
      <point x="445" y="532"/>
      <point x="494" y="470"/>
      <point x="494" y="338" type="curve" smooth="yes"/>
      <point x="494" y="0" type="line"/>
      <point x="405" y="0" type="line"/>
      <point x="405" y="314" type="line" smooth="yes"/>
      <point x="405" y="435"/>
      <point x="382" y="452"/>
      <point x="312" y="452" type="curve" smooth="yes"/>
      <point x="263" y="452"/>
      <point x="209" y="416"/>
      <point x="167" y="373" type="curve"/>
      <point x="167" y="0" type="line"/>
    </contour>
  </outline>
</glyph>
<glyph name="i" format="1">
  <advance width="250"/>
  <unicode hex="0069"/>
  <outline>
    <contour>
      <point x="81" y="0" type="line"/>
      <point x="81" y="519" type="line"/>
      <point x="170" y="519" type="line"/>
      <point x="170" y="0" type="line"/>
    </contour>
    <contour>
      <point x="126" y="621" type="curve" smooth="yes"/>
      <point x="89" y="621"/>
      <point x="74" y="636"/>
      <point x="74" y="671" type="curve" smooth="yes"/>
      <point x="74" y="706"/>
      <point x="89" y="720"/>
      <point x="126" y="720" type="curve" smooth="yes"/>
      <point x="163" y="720"/>
      <point x="178" y="706"/>
      <point x="178" y="671" type="curve" smooth="yes"/>
      <point x="178" y="636"/>
      <point x="163" y="621"/>
    </contour>
  </outline>
</glyph>
<glyph name="j" format="1">
  <advance width="260"/>
  <unicode hex="006A"/>
  <outline>
    <contour>
      <point x="22" y="-201" type="curve" smooth="yes"/>
      <point x="128" y="-201"/>
      <point x="177" y="-147"/>
      <point x="177" y="-31" type="curve" smooth="yes"/>
      <point x="177" y="519" type="line"/>
      <point x="88" y="519" type="line"/>
      <point x="88" y="-25" type="line" smooth="yes"/>
      <point x="88" y="-90"/>
      <point x="74" y="-128"/>
      <point x="21" y="-128" type="curve" smooth="yes"/>
      <point x="1" y="-128"/>
      <point x="-22" y="-124"/>
      <point x="-39" y="-117" type="curve"/>
      <point x="-55" y="-189" type="line"/>
      <point x="-31" y="-197"/>
      <point x="-7" y="-201"/>
    </contour>
    <contour>
      <point x="135" y="621" type="curve" smooth="yes"/>
      <point x="172" y="621"/>
      <point x="187" y="636"/>
      <point x="187" y="671" type="curve" smooth="yes"/>
      <point x="187" y="706"/>
      <point x="172" y="720"/>
      <point x="135" y="720" type="curve" smooth="yes"/>
      <point x="98" y="720"/>
      <point x="83" y="706"/>
      <point x="83" y="671" type="curve" smooth="yes"/>
      <point x="83" y="636"/>
      <point x="98" y="621"/>
    </contour>
  </outline>
</glyph>
<glyph name="k" format="1">
  <advance width="512"/>
  <unicode hex="006b"/>
  <outline>
    <contour>
      <point x="281" y="0" type="move" smooth="yes"/>
    </contour>
    <contour>
      <point x="290" y="519" type="move" smooth="yes"/>
    </contour>
    <contour>
      <point x="78" y="0" type="line" smooth="no"/>
      <point x="78" y="741" type="line" smooth="no"/>
      <point x="167" y="741" type="line" smooth="no"/>
      <point x="167" y="259" type="line" smooth="no"/>
      <point x="374" y="519" type="line" smooth="no"/>
      <point x="482" y="519" type="line" smooth="no"/>
      <point x="287" y="288" type="line" smooth="no"/>
      <point x="499" y="0" type="line" smooth="no"/>
      <point x="391" y="0" type="line" smooth="no"/>
      <point x="225" y="236" type="line" smooth="no"/>
      <point x="167" y="168" type="line" smooth="no"/>
      <point x="167" y="0" type="line" smooth="no"/>
    </contour>
  </outline>
</glyph>
<glyph name="l" format="1">
  <advance width="255"/>
  <unicode hex="006c"/>
  <outline>
    <contour>
      <point x="83" y="0" type="line" smooth="no"/>
      <point x="83" y="741" type="line" smooth="no"/>
      <point x="172" y="741" type="line" smooth="no"/>
      <point x="172" y="0" type="line" smooth="no"/>
    </contour>
  </outline>
</glyph>
<glyph name="m" format="1">
  <advance width="851"/>
  <unicode hex="006d"/>
  <outline>
    <contour>
      <point x="468" y="519" type="move" smooth="yes"/>
    </contour>
    <contour>
      <point x="78" y="0" type="line" smooth="no"/>
      <point x="78" y="519" type="line" smooth="no"/>
      <point x="163" y="519" type="line" smooth="no"/>
      <point x="165" y="445" type="line" smooth="no"/>
      <point x="204" y="493"/>
      <point x="258" y="532"/>
      <point x="326" y="532" type="curve" smooth="yes"/>
      <point x="398" y="532"/>
      <point x="442" y="498"/>
      <point x="459" y="432" type="curve" smooth="no"/>
      <point x="503" y="488"/>
      <point x="555" y="532"/>
      <point x="628" y="532" type="curve" smooth="yes"/>
      <point x="733" y="532"/>
      <point x="776" y="470"/>
      <point x="776" y="332" type="curve" smooth="yes"/>
      <point x="776" y="0" type="line" smooth="no"/>
      <point x="687" y="0" type="line" smooth="no"/>
      <point x="687" y="308" type="line" smooth="yes"/>
      <point x="687" y="437"/>
      <point x="670" y="452"/>
      <point x="602" y="452" type="curve" smooth="yes"/>
      <point x="554" y="452"/>
      <point x="516" y="417"/>
      <point x="472" y="353" type="curve" smooth="no"/>
      <point x="472" y="0" type="line" smooth="no"/>
      <point x="382" y="0" type="line" smooth="no"/>
      <point x="382" y="308" type="line" smooth="yes"/>
      <point x="382" y="429"/>
      <point x="365" y="452"/>
      <point x="298" y="452" type="curve" smooth="yes"/>
      <point x="252" y="452"/>
      <point x="207" y="423"/>
      <point x="167" y="374" type="curve" smooth="no"/>
      <point x="167" y="0" type="line" smooth="no"/>
    </contour>
  </outline>
</glyph>
<glyph name="n" format="1">
  <advance width="568"/>
  <unicode hex="006E"/>
  <outline>
    <contour>
      <point x="78" y="0" type="line"/>
      <point x="167" y="0" type="line"/>
      <point x="167" y="371" type="line"/>
      <point x="208" y="416"/>
      <point x="261" y="452"/>
      <point x="311" y="452" type="curve" smooth="yes"/>
      <point x="392" y="452"/>
      <point x="404" y="400"/>
      <point x="404" y="314" type="curve" smooth="yes"/>
      <point x="404" y="0" type="line"/>
      <point x="493" y="0" type="line"/>
      <point x="493" y="339" type="line" smooth="yes"/>
      <point x="493" y="471"/>
      <point x="444" y="532"/>
      <point x="335" y="532" type="curve" smooth="yes"/>
      <point x="266" y="532"/>
      <point x="206" y="490"/>
      <point x="165" y="442" type="curve"/>
      <point x="163" y="519" type="line"/>
      <point x="78" y="519" type="line"/>
    </contour>
  </outline>
</glyph>
<glyph name="o" format="1">
  <advance width="566"/>
  <unicode hex="006f"/>
  <outline>
    <contour>
      <point x="335" y="0" type="move" smooth="yes"/>
    </contour>
    <contour>
      <point x="284" y="519" type="move" smooth="yes"/>
    </contour>
    <contour>
      <point x="284" y="61" type="curve" smooth="yes"/>
      <point x="379" y="61"/>
      <point x="422" y="134"/>
      <point x="422" y="256" type="curve" smooth="yes"/>
      <point x="422" y="264" type="line" smooth="no"/>
      <point x="421" y="386"/>
      <point x="377" y="458"/>
      <point x="283" y="458" type="curve" smooth="yes"/>
      <point x="188" y="458"/>
      <point x="145" y="385"/>
      <point x="144" y="263" type="curve" smooth="no"/>
      <point x="144" y="256" type="line" smooth="yes"/>
      <point x="144" y="135"/>
      <point x="186" y="61"/>
    </contour>
    <contour>
      <point x="284" y="-13" type="curve" smooth="yes"/>
      <point x="136" y="-13"/>
      <point x="53" y="88"/>
      <point x="53" y="256" type="curve" smooth="yes"/>
      <point x="53" y="265" type="line" smooth="no"/>
      <point x="54" y="434"/>
      <point x="138" y="532"/>
      <point x="283" y="532" type="curve" smooth="yes"/>
      <point x="429" y="532"/>
      <point x="512" y="433"/>
      <point x="513" y="265" type="curve" smooth="no"/>
      <point x="513" y="256" type="line" smooth="yes"/>
      <point x="513" y="89"/>
      <point x="432" y="-13"/>
    </contour>
  </outline>
</glyph>
<glyph name="q" format="1">
  <advance width="571"/>
  <unicode hex="0071"/>
  <outline>
    <contour>
      <point x="401" y="-197" type="line"/>
      <point x="490" y="-197" type="line"/>
      <point x="490" y="519" type="line"/>
      <point x="410" y="519" type="line"/>
      <point x="404" y="469" type="line"/>
      <point x="368" y="505"/>
      <point x="318" y="532"/>
      <point x="257" y="532" type="curve" smooth="yes"/>
      <point x="125" y="532"/>
      <point x="55" y="419"/>
      <point x="53" y="259" type="curve" smooth="yes"/>
      <point x="53" y="249" type="line" smooth="yes"/>
      <point x="53" y="87"/>
      <point x="123" y="-13"/>
      <point x="252" y="-13" type="curve" smooth="yes"/>
      <point x="314" y="-13"/>
      <point x="365" y="13"/>
      <point x="401" y="50" type="curve"/>
    </contour>
    <contour>
      <point x="271" y="62" type="curve" smooth="yes"/>
      <point x="184" y="62"/>
      <point x="144" y="128"/>
      <point x="144" y="250" type="curve" smooth="yes"/>
      <point x="144" y="258" type="line" smooth="yes"/>
      <point x="145" y="380"/>
      <point x="188" y="456"/>
      <point x="274" y="456" type="curve" smooth="yes"/>
      <point x="325" y="456"/>
      <point x="370" y="431"/>
      <point x="401" y="398" type="curve"/>
      <point x="401" y="128" type="line"/>
      <point x="363" y="86"/>
      <point x="322" y="62"/>
    </contour>
  </outline>
</glyph>
<glyph name="r" format="1">
  <advance width="374"/>
  <unicode hex="0072"/>
  <outline>
    <contour>
      <point x="125" y="0" type="move" smooth="yes"/>
    </contour>
    <contour>
      <point x="258" y="519" type="move" smooth="yes"/>
    </contour>
    <contour>
      <point x="78" y="0" type="line"/>
      <point x="78" y="519" type="line"/>
      <point x="163" y="519" type="line"/>
      <point x="166" y="438" type="line"/>
      <point x="204" y="485"/>
      <point x="251" y="528"/>
      <point x="315" y="528" type="curve" smooth="yes"/>
      <point x="333" y="528"/>
      <point x="349" y="524"/>
      <point x="360" y="519" type="curve"/>
      <point x="344" y="435" type="line"/>
      <point x="338" y="437"/>
      <point x="311" y="440"/>
      <point x="301" y="440" type="curve" smooth="yes"/>
      <point x="249" y="440"/>
      <point x="211" y="417"/>
      <point x="167" y="364" type="curve"/>
      <point x="167" y="0" type="line"/>
    </contour>
    <contour>
      <point x="238" y="519" type="move" name="top"/>
    </contour>
  </outline>
</glyph>
<glyph name="s" format="1">
  <advance width="499"/>
  <unicode hex="0073"/>
  <outline>
    <contour>
      <point x="253" y="0" type="move" smooth="yes"/>
    </contour>
    <contour>
      <point x="261" y="519" type="move" smooth="yes"/>
    </contour>
    <contour>
      <point x="250" y="-13" type="curve" smooth="yes"/>
      <point x="150" y="-13"/>
      <point x="76" y="35"/>
      <point x="55" y="101" type="curve" smooth="yes"/>
      <point x="53" y="105"/>
      <point x="52" y="108"/>
      <point x="51" y="112" type="curve" smooth="no"/>
      <point x="128" y="136" type="line" smooth="no"/>
      <point x="145" y="84"/>
      <point x="191" y="60"/>
      <point x="251" y="60" type="curve" smooth="yes"/>
      <point x="319" y="60"/>
      <point x="362" y="87"/>
      <point x="362" y="137" type="curve" smooth="yes"/>
      <point x="362" y="187"/>
      <point x="318" y="204"/>
      <point x="241" y="223" type="curve" smooth="no"/>
      <point x="117" y="251"/>
      <point x="64" y="297"/>
      <point x="64" y="379" type="curve" smooth="yes"/>
      <point x="64" y="468"/>
      <point x="137" y="532"/>
      <point x="253" y="532" type="curve" smooth="yes"/>
      <point x="350" y="532"/>
      <point x="418" y="483"/>
      <point x="436" y="422" type="curve" smooth="yes"/>
      <point x="438" y="418"/>
      <point x="439" y="414"/>
      <point x="440" y="411" type="curve" smooth="no"/>
      <point x="363" y="387" type="line" smooth="no"/>
      <point x="347" y="432"/>
      <point x="304" y="459"/>
      <point x="252" y="459" type="curve" smooth="yes"/>
      <point x="195" y="459"/>
      <point x="152" y="434"/>
      <point x="152" y="382" type="curve" smooth="yes"/>
      <point x="152" y="337"/>
      <point x="180" y="320"/>
      <point x="259" y="302" type="curve" smooth="no"/>
      <point x="379" y="273"/>
      <point x="449" y="243"/>
      <point x="449" y="142" type="curve" smooth="yes"/>
      <point x="449" y="43"/>
      <point x="369" y="-13"/>
    </contour>
  </outline>
</glyph>
<glyph name="t" format="1">
  <advance width="351"/>
  <unicode hex="0074"/>
  <outline>
    <contour>
      <point x="155" y="302" type="move" name="mid"/>
    </contour>
    <contour>
      <point x="225" y="0" type="move" name="bot"/>
    </contour>
    <contour>
      <point x="139" y="655" type="move" name="top"/>
    </contour>
    <contour>
      <point x="237" y="-13" type="curve" smooth="yes"/>
      <point x="267" y="-13"/>
      <point x="299" y="-7"/>
      <point x="324" y="4" type="curve"/>
      <point x="306" y="72" type="line"/>
      <point x="290" y="65"/>
      <point x="270" y="61"/>
      <point x="250" y="61" type="curve" smooth="yes"/>
      <point x="200" y="61"/>
      <point x="187" y="90"/>
      <point x="187" y="157" type="curve" smooth="yes"/>
      <point x="187" y="448" type="line"/>
      <point x="305" y="448" type="line"/>
      <point x="305" y="519" type="line"/>
      <point x="187" y="519" type="line"/>
      <point x="187" y="655" type="line"/>
      <point x="98" y="655" type="line"/>
      <point x="98" y="519" type="line"/>
      <point x="20" y="519" type="line"/>
      <point x="20" y="448" type="line"/>
      <point x="98" y="448" type="line"/>
      <point x="98" y="147" type="line" smooth="yes"/>
      <point x="98" y="40"/>
      <point x="140" y="-13"/>
    </contour>
  </outline>
</glyph>
<glyph name="u" format="1">
  <advance width="568"/>
  <unicode hex="0075"/>
  <outline>
    <contour>
      <point x="448" y="0" type="move" smooth="yes"/>
    </contour>
    <contour>
      <point x="298" y="519" type="move" smooth="yes"/>
    </contour>
    <contour>
      <point x="234" y="-13" type="curve" smooth="yes"/>
      <point x="121" y="-13"/>
      <point x="75" y="51"/>
      <point x="75" y="189" type="curve" smooth="yes"/>
      <point x="75" y="519" type="line"/>
      <point x="164" y="519" type="line"/>
      <point x="164" y="212" type="line" smooth="yes"/>
      <point x="164" y="100"/>
      <point x="181" y="67"/>
      <point x="253" y="67" type="curve" smooth="yes"/>
      <point x="307" y="67"/>
      <point x="360" y="101"/>
      <point x="401" y="149" type="curve"/>
      <point x="401" y="519" type="line"/>
      <point x="490" y="519" type="line"/>
      <point x="490" y="0" type="line"/>
      <point x="405" y="0" type="line"/>
      <point x="403" y="77" type="line"/>
      <point x="360" y="25"/>
      <point x="300" y="-13"/>
    </contour>
  </outline>
</glyph>
<glyph name="v" format="1">
  <advance width="496"/>
  <unicode hex="0076"/>
  <outline>
    <contour>
      <point x="210" y="0" type="line"/>
      <point x="24" y="519" type="line"/>
      <point x="118" y="519" type="line"/>
      <point x="235" y="165" type="line"/>
      <point x="250" y="116" type="line"/>
      <point x="253" y="116" type="line"/>
      <point x="268" y="165" type="line"/>
      <point x="383" y="519" type="line"/>
      <point x="475" y="519" type="line"/>
      <point x="289" y="0" type="line"/>
    </contour>
  </outline>
</glyph>
<glyph name="w" format="1">
  <advance width="735"/>
  <unicode hex="0077"/>
  <outline>
    <contour>
      <point x="370" y="519" type="move" name="top"/>
    </contour>
    <contour>
      <point x="165" y="0" type="line"/>
      <point x="242" y="0" type="line"/>
      <point x="343" y="320" type="line"/>
      <point x="366" y="400" type="line"/>
      <point x="367" y="400" type="line"/>
      <point x="390" y="320" type="line"/>
      <point x="492" y="0" type="line"/>
      <point x="570" y="0" type="line"/>
      <point x="707" y="519" type="line"/>
      <point x="618" y="519" type="line"/>
      <point x="607" y="474"/>
      <point x="556" y="243"/>
      <point x="546" y="197" type="curve" smooth="yes"/>
      <point x="544" y="188"/>
      <point x="532" y="132"/>
      <point x="530" y="122" type="curve"/>
      <point x="528" y="122" type="line"/>
      <point x="507" y="196" type="line"/>
      <point x="405" y="519" type="line"/>
      <point x="332" y="519" type="line"/>
      <point x="231" y="196" type="line"/>
      <point x="211" y="125" type="line"/>
      <point x="209" y="125" type="line"/>
      <point x="195" y="197" type="line"/>
      <point x="118" y="519" type="line"/>
      <point x="27" y="519" type="line"/>
    </contour>
  </outline>
</glyph>
<glyph name="x" format="1">
  <advance width="497"/>
  <unicode hex="0078"/>
  <outline>
    <contour>
      <point x="25" y="0" type="line" smooth="no"/>
      <point x="198" y="259" type="line" smooth="no"/>
      <point x="28" y="519" type="line" smooth="no"/>
      <point x="134" y="519" type="line" smooth="no"/>
      <point x="250" y="324" type="line" smooth="no"/>
      <point x="367" y="519" type="line" smooth="no"/>
      <point x="470" y="519" type="line" smooth="no"/>
      <point x="299" y="262" type="line" smooth="no"/>
      <point x="472" y="0" type="line" smooth="no"/>
      <point x="365" y="0" type="line" smooth="no"/>
      <point x="247" y="197" type="line" smooth="no"/>
      <point x="127" y="0" type="line" smooth="no"/>
    </contour>
  </outline>
</glyph>
<glyph name="y" format="1">
  <advance width="506"/>
  <unicode hex="0079"/>
  <outline>
    <contour>
      <point x="391" y="519" type="line"/>
      <point x="254" y="134" type="line"/>
      <point x="252" y="134" type="line"/>
      <point x="116" y="519" type="line"/>
      <point x="19" y="519" type="line"/>
      <point x="210" y="21" type="line"/>
      <point x="190" y="-27" type="line" smooth="yes"/>
      <point x="167" y="-88"/>
      <point x="137" y="-127"/>
      <point x="97" y="-127" type="curve" smooth="yes"/>
      <point x="80" y="-127"/>
      <point x="48" y="-123"/>
      <point x="35" y="-117" type="curve"/>
      <point x="19" y="-189" type="line"/>
      <point x="36" y="-195"/>
      <point x="73" y="-201"/>
      <point x="97" y="-201" type="curve" smooth="yes"/>
      <point x="182" y="-201"/>
      <point x="227" y="-152"/>
      <point x="266" y="-56" type="curve" smooth="yes"/>
      <point x="486" y="519" type="line"/>
    </contour>
  </outline>
</glyph>
<glyph name="z" format="1">
  <advance width="474"/>
  <unicode hex="007a"/>
  <outline>
    <contour>
      <point x="260" y="519" type="move" smooth="yes"/>
    </contour>
    <contour>
      <point x="42" y="0" type="line" smooth="no"/>
      <point x="42" y="65" type="line" smooth="no"/>
      <point x="317" y="446" type="line" smooth="no"/>
      <point x="47" y="446" type="line" smooth="no"/>
      <point x="47" y="519" type="line" smooth="no"/>
      <point x="425" y="519" type="line" smooth="no"/>
      <point x="425" y="456" type="line" smooth="no"/>
      <point x="148" y="73" type="line" smooth="no"/>
      <point x="436" y="73" type="line" smooth="no"/>
      <point x="436" y="0" type="line" smooth="no"/>
    </contour>
  </outline>
</glyph>
<glyph name="braceleft" format="1">
  <advance width="477"/>
  <unicode hex="007B"/>
  <outline>
    <contour>
      <point x="393" y="-193" type="curve" smooth="yes"/>
      <point x="427" y="-193" type="line"/>
      <point x="427" y="-128" type="line"/>
      <point x="402" y="-128" type="line" smooth="yes"/>
      <point x="317" y="-128"/>
      <point x="278" y="-85"/>
      <point x="278" y="1" type="curve" smooth="yes"/>
      <point x="278" y="85" type="line" smooth="yes"/>
      <point x="278" y="180"/>
      <point x="232" y="243"/>
      <point x="141" y="274" type="curve"/>
      <point x="227" y="305"/>
      <point x="278" y="362"/>
      <point x="278" y="464" type="curve" smooth="yes"/>
      <point x="278" y="548" type="line" smooth="yes"/>
      <point x="278" y="634"/>
      <point x="317" y="677"/>
      <point x="402" y="677" type="curve" smooth="yes"/>
      <point x="427" y="677" type="line"/>
      <point x="427" y="742" type="line"/>
      <point x="393" y="742" type="line" smooth="yes"/>
      <point x="277" y="742"/>
      <point x="201" y="679"/>
      <point x="201" y="556" type="curve" smooth="yes"/>
      <point x="201" y="485" type="line" smooth="yes"/>
      <point x="201" y="369"/>
      <point x="154" y="311"/>
      <point x="59" y="311" type="curve" smooth="yes"/>
      <point x="50" y="311" type="line"/>
      <point x="50" y="239" type="line"/>
      <point x="59" y="239" type="line" smooth="yes"/>
      <point x="151" y="239"/>
      <point x="201" y="181"/>
      <point x="201" y="65" type="curve" smooth="yes"/>
      <point x="201" y="-7" type="line" smooth="yes"/>
      <point x="201" y="-128"/>
      <point x="276" y="-193"/>
    </contour>
  </outline>
</glyph>
<glyph name="bar" format="1">
  <advance width="348"/>
  <unicode hex="007c"/>
  <outline>
    <contour>
      <point x="136" y="-169" type="line" smooth="no"/>
      <point x="136" y="730" type="line" smooth="no"/>
      <point x="213" y="730" type="line" smooth="no"/>
      <point x="213" y="-169" type="line" smooth="no"/>
    </contour>
  </outline>
</glyph>
<glyph name="braceright" format="1">
  <advance width="477"/>
  <unicode hex="007D"/>
  <outline>
    <contour>
      <point x="50" y="-193" type="line"/>
      <point x="84" y="-193" type="line" smooth="yes"/>
      <point x="203" y="-193"/>
      <point x="276" y="-128"/>
      <point x="276" y="-7" type="curve" smooth="yes"/>
      <point x="276" y="65" type="line" smooth="yes"/>
      <point x="276" y="181"/>
      <point x="326" y="239"/>
      <point x="418" y="239" type="curve" smooth="yes"/>
      <point x="427" y="239" type="line"/>
      <point x="427" y="311" type="line"/>
      <point x="418" y="311" type="line" smooth="yes"/>
      <point x="323" y="311"/>
      <point x="276" y="369"/>
      <point x="276" y="485" type="curve" smooth="yes"/>
      <point x="276" y="556" type="line" smooth="yes"/>
      <point x="276" y="676"/>
      <point x="209" y="742"/>
      <point x="84" y="742" type="curve" smooth="yes"/>
      <point x="50" y="742" type="line"/>
      <point x="50" y="677" type="line"/>
      <point x="75" y="677" type="line" smooth="yes"/>
      <point x="160" y="677"/>
      <point x="199" y="634"/>
      <point x="199" y="548" type="curve" smooth="yes"/>
      <point x="199" y="464" type="line" smooth="yes"/>
      <point x="199" y="362"/>
      <point x="250" y="305"/>
      <point x="336" y="274" type="curve"/>
      <point x="245" y="243"/>
      <point x="199" y="180"/>
      <point x="199" y="85" type="curve" smooth="yes"/>
      <point x="199" y="1" type="line" smooth="yes"/>
      <point x="199" y="-85"/>
      <point x="160" y="-128"/>
      <point x="75" y="-128" type="curve" smooth="yes"/>
      <point x="50" y="-128" type="line"/>
    </contour>
  </outline>
</glyph>
<glyph name="asciitilde" format="1">
  <advance width="696"/>
  <unicode hex="007e"/>
  <outline>
    <contour>
      <point x="474" y="293" type="curve" smooth="yes"/>
      <point x="433" y="293"/>
      <point x="388" y="312"/>
      <point x="344" y="332" type="curve" smooth="yes"/>
      <point x="300" y="352"/>
      <point x="258" y="370"/>
      <point x="227" y="370" type="curve" smooth="yes"/>
      <point x="184" y="370"/>
      <point x="131" y="345"/>
      <point x="80" y="300" type="curve" smooth="no"/>
      <point x="80" y="378" type="line" smooth="no"/>
      <point x="145" y="430"/>
      <point x="197" y="440"/>
      <point x="229" y="440" type="curve" smooth="yes"/>
      <point x="269" y="440"/>
      <point x="312" y="421"/>
      <point x="354" y="402" type="curve" smooth="yes"/>
      <point x="396" y="382"/>
      <point x="435" y="363"/>
      <point x="472" y="363" type="curve" smooth="yes"/>
      <point x="503" y="363"/>
      <point x="532" y="375"/>
      <point x="558" y="390" type="curve" smooth="yes"/>
      <point x="571" y="397"/>
      <point x="591" y="411"/>
      <point x="617" y="433" type="curve" smooth="no"/>
      <point x="617" y="355" type="line" smooth="no"/>
      <point x="612" y="351"/>
      <point x="604" y="345"/>
      <point x="595" y="339" type="curve" smooth="yes"/>
      <point x="576" y="325"/>
      <point x="552" y="311"/>
      <point x="521" y="301" type="curve" smooth="yes"/>
      <point x="506" y="296"/>
      <point x="490" y="293"/>
    </contour>
  </outline>
</glyph>
<glyph name="cent" format="1">
  <advance width="502"/>
  <unicode hex="00A2"/>
  <outline>
    <contour>
      <point x="169" y="-127" type="line"/>
      <point x="227" y="-127" type="line"/>
      <point x="252" y="-13" type="line"/>
      <point x="262" y="-14"/>
      <point x="273" y="-15"/>
      <point x="284" y="-15" type="curve" smooth="yes"/>
      <point x="384" y="-15"/>
      <point x="436" y="24"/>
      <point x="468" y="79" type="curve"/>
      <point x="399" y="121" type="line"/>
      <point x="368" y="78"/>
      <point x="338" y="58"/>
      <point x="283" y="58" type="curve" smooth="yes"/>
      <point x="268" y="58" type="line"/>
      <point x="350" y="435" type="line"/>
      <point x="365" y="426"/>
      <point x="379" y="411"/>
      <point x="392" y="391" type="curve"/>
      <point x="461" y="433" type="line"/>
      <point x="439" y="473"/>
      <point x="408" y="499"/>
      <point x="367" y="513" type="curve"/>
      <point x="393" y="629" type="line"/>
      <point x="335" y="629" type="line"/>
      <point x="312" y="525" type="line"/>
      <point x="302" y="526"/>
      <point x="291" y="527"/>
      <point x="281" y="527" type="curve" smooth="yes"/>
      <point x="134" y="527"/>
      <point x="57" y="433"/>
      <point x="57" y="255" type="curve" smooth="yes"/>
      <point x="57" y="128"/>
      <point x="96" y="31"/>
      <point x="196" y="-2" type="curve"/>
    </contour>
    <contour>
      <point x="213" y="74" type="line"/>
      <point x="160" y="103"/>
      <point x="144" y="169"/>
      <point x="144" y="253" type="curve" smooth="yes"/>
      <point x="144" y="378"/>
      <point x="182" y="454"/>
      <point x="280" y="454" type="curve" smooth="yes"/>
      <point x="288" y="454" type="line"/>
      <point x="296" y="453" type="line"/>
    </contour>
  </outline>
</glyph>
<glyph name="sterling" format="1">
  <advance width="617"/>
  <unicode hex="00A3"/>
  <outline>
    <contour>
      <point x="55" y="0" type="line"/>
      <point x="55" y="76" type="line"/>
      <point x="100" y="85"/>
      <point x="123" y="126"/>
      <point x="135" y="177" type="curve" smooth="yes"/>
      <point x="140" y="202"/>
      <point x="143" y="239"/>
      <point x="143" y="287" type="curve"/>
      <point x="67" y="287" type="line"/>
      <point x="67" y="351" type="line"/>
      <point x="140" y="351" type="line"/>
      <point x="135" y="375" type="line"/>
      <point x="121" y="427"/>
      <point x="114" y="472"/>
      <point x="114" y="510" type="curve" smooth="yes"/>
      <point x="114" y="623"/>
      <point x="203" y="690"/>
      <point x="343" y="690" type="curve" smooth="yes"/>
      <point x="443" y="690"/>
      <point x="515" y="654"/>
      <point x="559" y="583" type="curve"/>
      <point x="484" y="539" type="line"/>
      <point x="455" y="586"/>
      <point x="406" y="616"/>
      <point x="343" y="616" type="curve" smooth="yes"/>
      <point x="255" y="616"/>
      <point x="207" y="572"/>
      <point x="207" y="496" type="curve" smooth="yes"/>
      <point x="207" y="471"/>
      <point x="211" y="443"/>
      <point x="219" y="412" type="curve" smooth="yes"/>
      <point x="227" y="378"/>
      <point x="232" y="358"/>
      <point x="232" y="351" type="curve"/>
      <point x="418" y="351" type="line"/>
      <point x="418" y="287" type="line"/>
      <point x="236" y="287" type="line"/>
      <point x="236" y="173"/>
      <point x="208" y="111"/>
      <point x="157" y="76" type="curve"/>
      <point x="566" y="76" type="line"/>
      <point x="566" y="0" type="line"/>
    </contour>
  </outline>
</glyph>
<glyph name="currency" format="1">
  <advance width="617"/>
  <unicode hex="00A4"/>
  <outline>
    <contour>
      <point x="308" y="163" type="curve" smooth="yes"/>
      <point x="379" y="163"/>
      <point x="432" y="218"/>
      <point x="432" y="286" type="curve" smooth="yes"/>
      <point x="432" y="357"/>
      <point x="378" y="412"/>
      <point x="308" y="412" type="curve" smooth="yes"/>
      <point x="239" y="412"/>
      <point x="189" y="356"/>
      <point x="189" y="286" type="curve" smooth="yes"/>
      <point x="189" y="243"/>
      <point x="210" y="203"/>
      <point x="248" y="180" type="curve" smooth="yes"/>
      <point x="267" y="169"/>
      <point x="286" y="163"/>
    </contour>
    <contour>
      <point x="103" y="36" type="line"/>
      <point x="58" y="80" type="line"/>
      <point x="153" y="177" type="line"/>
      <point x="130" y="210"/>
      <point x="118" y="245"/>
      <point x="118" y="286" type="curve" smooth="yes"/>
      <point x="118" y="330"/>
      <point x="130" y="367"/>
      <point x="152" y="396" type="curve"/>
      <point x="58" y="491" type="line"/>
      <point x="103" y="536" type="line"/>
      <point x="197" y="443" type="line"/>
      <point x="230" y="468"/>
      <point x="266" y="480"/>
      <point x="308" y="480" type="curve" smooth="yes"/>
      <point x="351" y="480"/>
      <point x="389" y="468"/>
      <point x="420" y="444" type="curve"/>
      <point x="514" y="536" type="line"/>
      <point x="558" y="491" type="line"/>
      <point x="467" y="398" type="line"/>
      <point x="491" y="367"/>
      <point x="503" y="329"/>
      <point x="503" y="286" type="curve" smooth="yes"/>
      <point x="503" y="248"/>
      <point x="491" y="212"/>
      <point x="466" y="175" type="curve"/>
      <point x="558" y="80" type="line"/>
      <point x="514" y="36" type="line"/>
      <point x="419" y="129" type="line"/>
      <point x="380" y="102"/>
      <point x="347" y="95"/>
      <point x="308" y="95" type="curve" smooth="yes"/>
      <point x="266" y="95"/>
      <point x="230" y="107"/>
      <point x="199" y="130" type="curve"/>
    </contour>
  </outline>
</glyph>
<glyph name="yen" format="1">
  <advance width="617"/>
  <unicode hex="00A5"/>
  <outline>
    <contour>
      <point x="263" y="0" type="line"/>
      <point x="263" y="180" type="line"/>
      <point x="67" y="180" type="line"/>
      <point x="67" y="239" type="line"/>
      <point x="263" y="239" type="line"/>
      <point x="263" y="286" type="line"/>
      <point x="247" y="312" type="line"/>
      <point x="67" y="312" type="line"/>
      <point x="67" y="371" type="line"/>
      <point x="213" y="371" type="line"/>
      <point x="32" y="676" type="line"/>
      <point x="134" y="676" type="line"/>
      <point x="310" y="371" type="line"/>
      <point x="488" y="676" type="line"/>
      <point x="585" y="676" type="line"/>
      <point x="402" y="371" type="line"/>
      <point x="550" y="371" type="line"/>
      <point x="550" y="312" type="line"/>
      <point x="367" y="312" type="line"/>
      <point x="353" y="290" type="line"/>
      <point x="353" y="239" type="line"/>
      <point x="550" y="239" type="line"/>
      <point x="550" y="180" type="line"/>
      <point x="353" y="180" type="line"/>
      <point x="353" y="0" type="line"/>
    </contour>
  </outline>
</glyph>
<glyph name="brokenbar" format="1">
  <advance width="416"/>
  <unicode hex="00a6"/>
  <outline>
    <contour>
      <point x="170" y="-193" type="line" smooth="no"/>
      <point x="170" y="118" type="line" smooth="no"/>
      <point x="246" y="118" type="line" smooth="no"/>
      <point x="246" y="-193" type="line" smooth="no"/>
    </contour>
    <contour>
      <point x="170" y="431" type="line" smooth="no"/>
      <point x="170" y="742" type="line" smooth="no"/>
      <point x="246" y="742" type="line" smooth="no"/>
      <point x="246" y="431" type="line" smooth="no"/>
    </contour>
  </outline>
</glyph>
<glyph name="section" format="1">
  <advance width="527"/>
  <unicode hex="00A7"/>
  <outline>
    <contour>
      <point x="254" y="-179" type="curve" smooth="yes"/>
      <point x="169" y="-179"/>
      <point x="106" y="-155"/>
      <point x="67" y="-107" type="curve"/>
      <point x="129" y="-60" type="line"/>
      <point x="160" y="-93"/>
      <point x="201" y="-110"/>
      <point x="252" y="-110" type="curve" smooth="yes"/>
      <point x="327" y="-110"/>
      <point x="359" y="-86"/>
      <point x="359" y="-37" type="curve" smooth="yes"/>
      <point x="359" y="-20"/>
      <point x="350" y="-4"/>
      <point x="334" y="11" type="curve"/>
      <point x="317" y="25"/>
      <point x="286" y="45"/>
      <point x="239" y="69" type="curve"/>
      <point x="134" y="126"/>
      <point x="99" y="155"/>
      <point x="73" y="196" type="curve" smooth="yes"/>
      <point x="60" y="216"/>
      <point x="53" y="240"/>
      <point x="53" y="266" type="curve" smooth="yes"/>
      <point x="53" y="334"/>
      <point x="103" y="380"/>
      <point x="172" y="421" type="curve"/>
      <point x="112" y="463"/>
      <point x="84" y="498"/>
      <point x="84" y="545" type="curve" smooth="yes"/>
      <point x="84" y="633"/>
      <point x="148" y="690"/>
      <point x="277" y="690" type="curve" smooth="yes"/>
      <point x="365" y="690"/>
      <point x="427" y="666"/>
      <point x="464" y="618" type="curve"/>
      <point x="402" y="571" type="line"/>
      <point x="374" y="604"/>
      <point x="333" y="620"/>
      <point x="279" y="620" type="curve" smooth="yes"/>
      <point x="208" y="620"/>
      <point x="172" y="596"/>
      <point x="172" y="549" type="curve" smooth="yes"/>
      <point x="172" y="530"/>
      <point x="181" y="513"/>
      <point x="199" y="499" type="curve" smooth="yes"/>
      <point x="217" y="485"/>
      <point x="245" y="466"/>
      <point x="283" y="445" type="curve" smooth="yes"/>
      <point x="339" y="414"/>
      <point x="380" y="389"/>
      <point x="404" y="369" type="curve" smooth="yes"/>
      <point x="453" y="329"/>
      <point x="475" y="289"/>
      <point x="475" y="244" type="curve" smooth="yes"/>
      <point x="475" y="178"/>
      <point x="437" y="139"/>
      <point x="357" y="90" type="curve"/>
      <point x="422" y="47"/>
      <point x="447" y="9"/>
      <point x="447" y="-33" type="curve" smooth="yes"/>
      <point x="447" y="-131"/>
      <point x="370" y="-179"/>
    </contour>
    <contour>
      <point x="294" y="128" type="line"/>
      <point x="353" y="167"/>
      <point x="393" y="192"/>
      <point x="393" y="240" type="curve" smooth="yes"/>
      <point x="393" y="267"/>
      <point x="373" y="294"/>
      <point x="335" y="322" type="curve" smooth="yes"/>
      <point x="316" y="336"/>
      <point x="283" y="357"/>
      <point x="236" y="383" type="curve"/>
      <point x="177" y="347"/>
      <point x="135" y="312"/>
      <point x="135" y="269" type="curve" smooth="yes"/>
      <point x="135" y="233"/>
      <point x="177" y="192"/>
      <point x="245" y="155" type="curve" smooth="yes"/>
    </contour>
  </outline>
</glyph>
<glyph name="dieresis" format="1">
  <advance width="600"/>
  <unicode hex="00a8"/>
  <outline>
    <contour>
      <point x="268" y="519" type="move" smooth="yes"/>
    </contour>
    <contour>
      <point x="170" y="590" type="curve" smooth="yes"/>
      <point x="129" y="590"/>
      <point x="118" y="610"/>
      <point x="118" y="642" type="curve" smooth="yes"/>
      <point x="118" y="677"/>
      <point x="131" y="694"/>
      <point x="170" y="694" type="curve" smooth="yes"/>
      <point x="210" y="694"/>
      <point x="223" y="678"/>
      <point x="223" y="642" type="curve" smooth="yes"/>
      <point x="223" y="603"/>
      <point x="209" y="590"/>
    </contour>
    <contour>
      <point x="363" y="590" type="curve" smooth="yes"/>
      <point x="322" y="590"/>
      <point x="311" y="610"/>
      <point x="311" y="642" type="curve" smooth="yes"/>
      <point x="311" y="677"/>
      <point x="324" y="694"/>
      <point x="363" y="694" type="curve" smooth="yes"/>
      <point x="403" y="694"/>
      <point x="416" y="678"/>
      <point x="416" y="642" type="curve" smooth="yes"/>
      <point x="416" y="603"/>
      <point x="402" y="590"/>
    </contour>
  </outline>
</glyph>
<glyph name="copyright" format="1">
  <advance width="905"/>
  <unicode hex="00A9"/>
  <outline>
    <contour>
      <point x="465" y="83" type="curve" smooth="yes"/>
      <point x="332" y="83"/>
      <point x="272" y="154"/>
      <point x="272" y="299" type="curve" smooth="yes"/>
      <point x="272" y="445"/>
      <point x="331" y="516"/>
      <point x="463" y="516" type="curve" smooth="yes"/>
      <point x="543" y="516"/>
      <point x="591" y="480"/>
      <point x="618" y="430" type="curve"/>
      <point x="560" y="394" type="line"/>
      <point x="541" y="427"/>
      <point x="517" y="456"/>
      <point x="462" y="456" type="curve" smooth="yes"/>
      <point x="374" y="456"/>
      <point x="343" y="403"/>
      <point x="343" y="299" type="curve" smooth="yes"/>
      <point x="343" y="193"/>
      <point x="379" y="143"/>
      <point x="463" y="143" type="curve" smooth="yes"/>
      <point x="507" y="143"/>
      <point x="542" y="165"/>
      <point x="566" y="208" type="curve"/>
      <point x="624" y="173" type="line"/>
      <point x="587" y="111"/>
      <point x="537" y="83"/>
    </contour>
    <contour>
      <point x="453" y="-33" type="curve" smooth="yes"/>
      <point x="570" y="-33"/>
      <point x="678" y="30"/>
      <point x="737" y="132" type="curve" smooth="yes"/>
      <point x="766" y="183"/>
      <point x="781" y="238"/>
      <point x="781" y="298" type="curve" smooth="yes"/>
      <point x="781" y="417"/>
      <point x="718" y="525"/>
      <point x="617" y="584" type="curve" smooth="yes"/>
      <point x="566" y="613"/>
      <point x="511" y="628"/>
      <point x="453" y="628" type="curve" smooth="yes"/>
      <point x="335" y="628"/>
      <point x="228" y="565"/>
      <point x="169" y="463" type="curve" smooth="yes"/>
      <point x="140" y="412"/>
      <point x="125" y="357"/>
      <point x="125" y="298" type="curve" smooth="yes"/>
      <point x="125" y="179"/>
      <point x="186" y="72"/>
      <point x="288" y="12" type="curve" smooth="yes"/>
      <point x="339" y="-18"/>
      <point x="394" y="-33"/>
    </contour>
    <contour>
      <point x="453" y="-96" type="curve" smooth="yes"/>
      <point x="310" y="-96"/>
      <point x="182" y="-22"/>
      <point x="112" y="100" type="curve" smooth="yes"/>
      <point x="77" y="161"/>
      <point x="60" y="227"/>
      <point x="60" y="298" type="curve" smooth="yes"/>
      <point x="60" y="442"/>
      <point x="133" y="569"/>
      <point x="255" y="638" type="curve" smooth="yes"/>
      <point x="316" y="673"/>
      <point x="382" y="690"/>
      <point x="453" y="690" type="curve" smooth="yes"/>
      <point x="597" y="690"/>
      <point x="724" y="617"/>
      <point x="793" y="495" type="curve" smooth="yes"/>
      <point x="828" y="434"/>
      <point x="845" y="368"/>
      <point x="845" y="298" type="curve" smooth="yes"/>
      <point x="845" y="154"/>
      <point x="772" y="25"/>
      <point x="651" y="-44" type="curve" smooth="yes"/>
      <point x="590" y="-79"/>
      <point x="524" y="-96"/>
    </contour>
  </outline>
</glyph>
<glyph name="ordfeminine" format="1">
  <advance width="380"/>
  <unicode hex="00AA"/>
  <outline>
    <contour>
      <point x="149" y="390" type="curve" smooth="yes"/>
      <point x="191" y="390"/>
      <point x="222" y="409"/>
      <point x="253" y="434" type="curve"/>
      <point x="253" y="399" type="line"/>
      <point x="318" y="399" type="line"/>
      <point x="318" y="624" type="line" smooth="yes"/>
      <point x="318" y="713"/>
      <point x="275" y="742"/>
      <point x="179" y="742" type="curve" smooth="yes"/>
      <point x="103" y="742"/>
      <point x="68" y="713"/>
      <point x="48" y="680" type="curve"/>
      <point x="101" y="648" type="line"/>
      <point x="116" y="673"/>
      <point x="141" y="686"/>
      <point x="178" y="686" type="curve" smooth="yes"/>
      <point x="227" y="686"/>
      <point x="253" y="674"/>
      <point x="253" y="627" type="curve" smooth="yes"/>
      <point x="253" y="615" type="line"/>
      <point x="176" y="609" type="line"/>
      <point x="83" y="599"/>
      <point x="45" y="563"/>
      <point x="45" y="495" type="curve" smooth="yes"/>
      <point x="45" y="434"/>
      <point x="83" y="390"/>
    </contour>
    <contour>
      <point x="166" y="447" type="curve" smooth="yes"/>
      <point x="129" y="447"/>
      <point x="111" y="461"/>
      <point x="111" y="496" type="curve" smooth="yes"/>
      <point x="111" y="541"/>
      <point x="145" y="553"/>
      <point x="205" y="558" type="curve" smooth="yes"/>
      <point x="253" y="563" type="line"/>
      <point x="253" y="492" type="line"/>
      <point x="225" y="469"/>
      <point x="197" y="447"/>
    </contour>
  </outline>
</glyph>
<glyph name="guillemotleft" format="1">
  <advance width="598"/>
  <unicode hex="00ab"/>
  <outline>
    <contour>
      <point x="227" y="26" type="line" smooth="no"/>
      <point x="35" y="256" type="line" smooth="no"/>
      <point x="227" y="486" type="line" smooth="no"/>
      <point x="323" y="486" type="line" smooth="no"/>
      <point x="131" y="256" type="line" smooth="no"/>
      <point x="323" y="26" type="line" smooth="no"/>
    </contour>
    <contour>
      <point x="466" y="26" type="line" smooth="no"/>
      <point x="274" y="256" type="line" smooth="no"/>
      <point x="466" y="486" type="line" smooth="no"/>
      <point x="562" y="486" type="line" smooth="no"/>
      <point x="370" y="256" type="line" smooth="no"/>
      <point x="562" y="26" type="line" smooth="no"/>
    </contour>
  </outline>
</glyph>
<glyph name="logicalnot" format="1">
  <advance width="640"/>
  <unicode hex="00AC"/>
  <outline>
    <contour>
      <point x="478" y="181" type="line"/>
      <point x="558" y="181" type="line"/>
      <point x="558" y="441" type="line"/>
      <point x="73" y="441" type="line"/>
      <point x="73" y="367" type="line"/>
      <point x="478" y="367" type="line"/>
    </contour>
  </outline>
</glyph>
<glyph name="uni00AD" format="1">
  <advance width="403"/>
  <unicode hex="00AD"/>
  <outline>
    <contour>
      <point x="50" y="215" type="line"/>
      <point x="50" y="299" type="line"/>
      <point x="354" y="299" type="line"/>
      <point x="354" y="215" type="line"/>
    </contour>
  </outline>
</glyph>
<glyph name="uni00AD" format="1">
  <advance width="403"/>
  <unicode hex="00ad"/>
  <outline>
    <contour>
      <point x="50" y="215" type="line" smooth="no"/>
      <point x="50" y="299" type="line" smooth="no"/>
      <point x="354" y="299" type="line" smooth="no"/>
      <point x="354" y="215" type="line" smooth="no"/>
    </contour>
  </outline>
</glyph>
<glyph name="registered" format="1">
  <advance width="905"/>
  <unicode hex="00AE"/>
  <outline>
    <contour>
      <point x="382" y="321" type="line"/>
      <point x="445" y="321" type="line" smooth="yes"/>
      <point x="512" y="321"/>
      <point x="530" y="339"/>
      <point x="530" y="390" type="curve" smooth="yes"/>
      <point x="530" y="437"/>
      <point x="509" y="455"/>
      <point x="448" y="455" type="curve" smooth="yes"/>
      <point x="382" y="455" type="line"/>
    </contour>
    <contour>
      <point x="453" y="-96" type="curve" smooth="yes"/>
      <point x="310" y="-96"/>
      <point x="182" y="-22"/>
      <point x="112" y="100" type="curve" smooth="yes"/>
      <point x="77" y="161"/>
      <point x="60" y="227"/>
      <point x="60" y="298" type="curve" smooth="yes"/>
      <point x="60" y="442"/>
      <point x="133" y="569"/>
      <point x="255" y="638" type="curve" smooth="yes"/>
      <point x="316" y="673"/>
      <point x="382" y="690"/>
      <point x="453" y="690" type="curve" smooth="yes"/>
      <point x="597" y="690"/>
      <point x="724" y="617"/>
      <point x="793" y="495" type="curve" smooth="yes"/>
      <point x="828" y="434"/>
      <point x="845" y="368"/>
      <point x="845" y="298" type="curve" smooth="yes"/>
      <point x="845" y="154"/>
      <point x="772" y="25"/>
      <point x="651" y="-44" type="curve" smooth="yes"/>
      <point x="590" y="-79"/>
      <point x="524" y="-96"/>
    </contour>
    <contour>
      <point x="453" y="-33" type="curve" smooth="yes"/>
      <point x="570" y="-33"/>
      <point x="678" y="30"/>
      <point x="737" y="132" type="curve" smooth="yes"/>
      <point x="766" y="183"/>
      <point x="781" y="238"/>
      <point x="781" y="298" type="curve" smooth="yes"/>
      <point x="781" y="417"/>
      <point x="718" y="525"/>
      <point x="617" y="584" type="curve" smooth="yes"/>
      <point x="566" y="613"/>
      <point x="511" y="628"/>
      <point x="453" y="628" type="curve" smooth="yes"/>
      <point x="335" y="628"/>
      <point x="228" y="565"/>
      <point x="169" y="463" type="curve" smooth="yes"/>
      <point x="140" y="412"/>
      <point x="125" y="357"/>
      <point x="125" y="298" type="curve" smooth="yes"/>
      <point x="125" y="179"/>
      <point x="186" y="72"/>
      <point x="288" y="12" type="curve" smooth="yes"/>
      <point x="339" y="-18"/>
      <point x="394" y="-33"/>
    </contour>
    <contour>
      <point x="314" y="98" type="line"/>
      <point x="314" y="513" type="line"/>
      <point x="448" y="513" type="line" smooth="yes"/>
      <point x="546" y="513"/>
      <point x="601" y="485"/>
      <point x="601" y="393" type="curve" smooth="yes"/>
      <point x="601" y="321"/>
      <point x="569" y="287"/>
      <point x="518" y="272" type="curve"/>
      <point x="632" y="98" type="line"/>
      <point x="552" y="98" type="line"/>
      <point x="446" y="262" type="line"/>
      <point x="382" y="262" type="line"/>
      <point x="382" y="98" type="line"/>
    </contour>
  </outline>
</glyph>
<glyph name="macron" format="1">
  <advance width="600"/>
  <unicode hex="00af"/>
  <outline>
    <contour>
      <point x="265" y="519" type="move" smooth="yes"/>
    </contour>
    <contour>
      <point x="256" y="647" type="move" smooth="yes"/>
    </contour>
    <contour>
      <point x="116" y="613" type="line" smooth="no"/>
      <point x="116" y="681" type="line" smooth="no"/>
      <point x="414" y="681" type="line" smooth="no"/>
      <point x="414" y="613" type="line" smooth="no"/>
    </contour>
  </outline>
</glyph>
<glyph name="degree" format="1">
  <advance width="421"/>
  <unicode hex="00B0"/>
  <outline>
    <contour>
      <point x="212" y="526" type="curve" smooth="yes"/>
      <point x="256" y="526"/>
      <point x="290" y="563"/>
      <point x="290" y="605" type="curve" smooth="yes"/>
      <point x="290" y="649"/>
      <point x="256" y="684"/>
      <point x="212" y="684" type="curve" smooth="yes"/>
      <point x="165" y="684"/>
      <point x="132" y="648"/>
      <point x="132" y="606" type="curve" smooth="yes"/>
      <point x="132" y="563"/>
      <point x="167" y="526"/>
    </contour>
    <contour>
      <point x="212" y="468" type="curve" smooth="yes"/>
      <point x="134" y="468"/>
      <point x="74" y="531"/>
      <point x="74" y="606" type="curve" smooth="yes"/>
      <point x="74" y="679"/>
      <point x="133" y="742"/>
      <point x="211" y="742" type="curve" smooth="yes"/>
      <point x="287" y="742"/>
      <point x="348" y="682"/>
      <point x="348" y="606" type="curve" smooth="yes"/>
      <point x="348" y="557"/>
      <point x="321" y="509"/>
      <point x="279" y="486" type="curve" smooth="yes"/>
      <point x="258" y="474"/>
      <point x="236" y="468"/>
    </contour>
  </outline>
</glyph>
<glyph name="plusminus" format="1">
  <advance width="696"/>
  <unicode hex="00b1"/>
  <outline>
    <contour>
      <point x="313" y="161" type="line" smooth="no"/>
      <point x="313" y="395" type="line" smooth="no"/>
      <point x="80" y="395" type="line" smooth="no"/>
      <point x="80" y="465" type="line" smooth="no"/>
      <point x="313" y="465" type="line" smooth="no"/>
      <point x="313" y="698" type="line" smooth="no"/>
      <point x="383" y="698" type="line" smooth="no"/>
      <point x="383" y="465" type="line" smooth="no"/>
      <point x="617" y="465" type="line" smooth="no"/>
      <point x="617" y="395" type="line" smooth="no"/>
      <point x="383" y="395" type="line" smooth="no"/>
      <point x="383" y="161" type="line" smooth="no"/>
    </contour>
    <contour>
      <point x="80" y="0" type="line" smooth="no"/>
      <point x="80" y="70" type="line" smooth="no"/>
      <point x="617" y="70" type="line" smooth="no"/>
      <point x="617" y="0" type="line" smooth="no"/>
    </contour>
  </outline>
</glyph>
<glyph name="uni00B2" format="1">
  <advance width="434"/>
  <unicode hex="00B2"/>
  <outline>
    <contour>
      <point x="56" y="320" type="line"/>
      <point x="56" y="387" type="line"/>
      <point x="104" y="421"/>
      <point x="213" y="508"/>
      <point x="253" y="554" type="curve" smooth="yes"/>
      <point x="273" y="577"/>
      <point x="282" y="600"/>
      <point x="281" y="623" type="curve"/>
      <point x="281" y="662"/>
      <point x="248" y="681"/>
      <point x="209" y="681" type="curve" smooth="yes"/>
      <point x="174" y="681"/>
      <point x="143" y="663"/>
      <point x="117" y="627" type="curve"/>
      <point x="52" y="665" type="line"/>
      <point x="87" y="718"/>
      <point x="139" y="744"/>
      <point x="211" y="744" type="curve" smooth="yes"/>
      <point x="307" y="744"/>
      <point x="364" y="701"/>
      <point x="364" y="625" type="curve" smooth="yes"/>
      <point x="364" y="570"/>
      <point x="340" y="535"/>
      <point x="285" y="486" type="curve" smooth="yes"/>
      <point x="258" y="462"/>
      <point x="215" y="428"/>
      <point x="158" y="384" type="curve"/>
      <point x="378" y="384" type="line"/>
      <point x="378" y="320" type="line"/>
    </contour>
  </outline>
</glyph>
<glyph name="uni00B3" format="1">
  <advance width="434"/>
  <unicode hex="00B3"/>
  <outline>
    <contour>
      <point x="193" y="311" type="curve" smooth="yes"/>
      <point x="127" y="311"/>
      <point x="68" y="339"/>
      <point x="41" y="380" type="curve"/>
      <point x="106" y="416" type="line"/>
      <point x="124" y="393"/>
      <point x="155" y="374"/>
      <point x="192" y="374" type="curve" smooth="yes"/>
      <point x="253" y="374"/>
      <point x="280" y="398"/>
      <point x="280" y="445" type="curve" smooth="yes"/>
      <point x="280" y="490"/>
      <point x="248" y="509"/>
      <point x="188" y="509" type="curve" smooth="yes"/>
      <point x="144" y="509" type="line"/>
      <point x="144" y="571" type="line"/>
      <point x="182" y="571" type="line" smooth="yes"/>
      <point x="238" y="571"/>
      <point x="273" y="592"/>
      <point x="273" y="631" type="curve" smooth="yes"/>
      <point x="273" y="666"/>
      <point x="244" y="682"/>
      <point x="202" y="682" type="curve" smooth="yes"/>
      <point x="164" y="682"/>
      <point x="134" y="666"/>
      <point x="111" y="634" type="curve"/>
      <point x="46" y="671" type="line"/>
      <point x="72" y="708"/>
      <point x="97" y="724"/>
      <point x="138" y="736" type="curve" smooth="yes"/>
      <point x="159" y="741"/>
      <point x="181" y="744"/>
      <point x="207" y="744" type="curve" smooth="yes"/>
      <point x="311" y="744"/>
      <point x="357" y="696"/>
      <point x="357" y="639" type="curve" smooth="yes"/>
      <point x="357" y="594"/>
      <point x="334" y="562"/>
      <point x="289" y="545" type="curve"/>
      <point x="332" y="529"/>
      <point x="364" y="493"/>
      <point x="364" y="442" type="curve" smooth="yes"/>
      <point x="364" y="356"/>
      <point x="301" y="311"/>
    </contour>
  </outline>
</glyph>
<glyph name="acute" format="1">
  <advance width="600"/>
  <unicode hex="00B4"/>
  <outline>
    <contour>
      <point x="262" y="519" type="move" smooth="yes"/>
    </contour>
    <contour>
      <point x="235" y="590" type="line"/>
      <point x="322" y="766" type="line"/>
      <point x="437" y="766" type="line"/>
      <point x="304" y="590" type="line"/>
    </contour>
  </outline>
</glyph>
<glyph name="paragraph" format="1">
  <advance width="613"/>
  <unicode hex="00b6"/>
  <outline>
    <contour>
      <point x="239" y="-193" type="line" smooth="no"/>
      <point x="239" y="315" type="line" smooth="no"/>
      <point x="161" y="315"/>
      <point x="93" y="350"/>
      <point x="56" y="413" type="curve" smooth="yes"/>
      <point x="38" y="444"/>
      <point x="29" y="480"/>
      <point x="29" y="522" type="curve" smooth="yes"/>
      <point x="29" y="647"/>
      <point x="123" y="727"/>
      <point x="263" y="727" type="curve" smooth="yes"/>
      <point x="584" y="727" type="line" smooth="no"/>
      <point x="584" y="662" type="line" smooth="no"/>
      <point x="490" y="662" type="line" smooth="no"/>
      <point x="490" y="-193" type="line" smooth="no"/>
      <point x="412" y="-193" type="line" smooth="no"/>
      <point x="412" y="662" type="line" smooth="no"/>
      <point x="317" y="662" type="line" smooth="no"/>
      <point x="317" y="-193" type="line" smooth="no"/>
    </contour>
  </outline>
</glyph>
<glyph name="periodcentered" format="1">
  <advance width="270"/>
  <unicode hex="00B7"/>
  <outline>
    <contour>
      <point x="-60" y="365" type="move" smooth="yes"/>
    </contour>
    <contour>
      <point x="135" y="309" type="curve" smooth="yes"/>
      <point x="89" y="309"/>
      <point x="76" y="329"/>
      <point x="76" y="364" type="curve" smooth="yes"/>
      <point x="76" y="403"/>
      <point x="93" y="419"/>
      <point x="135" y="419" type="curve" smooth="yes"/>
      <point x="179" y="419"/>
      <point x="195" y="403"/>
      <point x="195" y="364" type="curve" smooth="yes"/>
      <point x="195" y="323"/>
      <point x="177" y="309"/>
    </contour>
  </outline>
</glyph>
<glyph name="cedilla" format="1">
  <advance width="600"/>
  <unicode hex="00B8"/>
  <outline>
    <contour>
      <point x="236" y="-193" type="curve" smooth="yes"/>
      <point x="186" y="-193"/>
      <point x="133" y="-178"/>
      <point x="119" y="-170" type="curve"/>
      <point x="144" y="-121" type="line"/>
      <point x="163" y="-127"/>
      <point x="205" y="-137"/>
      <point x="238" y="-137" type="curve" smooth="yes"/>
      <point x="277" y="-137"/>
      <point x="297" y="-125"/>
      <point x="297" y="-99" type="curve" smooth="yes"/>
      <point x="297" y="-73"/>
      <point x="270" y="-53"/>
      <point x="211" y="-49" type="curve"/>
      <point x="241" y="9" type="line"/>
      <point x="293" y="9" type="line"/>
      <point x="281" y="-15" type="line"/>
      <point x="337" y="-29"/>
      <point x="361" y="-66"/>
      <point x="361" y="-105" type="curve" smooth="yes"/>
      <point x="361" y="-161"/>
      <point x="313" y="-193"/>
    </contour>
  </outline>
</glyph>
<glyph name="onesuperior" format="1">
  <advance width="434"/>
  <unicode hex="00B9"/>
  <outline>
    <contour>
      <point x="198" y="320" type="line"/>
      <point x="198" y="606" type="line"/>
      <point x="89" y="606" type="line"/>
      <point x="89" y="658" type="line"/>
      <point x="173" y="660"/>
      <point x="200" y="679"/>
      <point x="216" y="735" type="curve"/>
      <point x="277" y="735" type="line"/>
      <point x="277" y="320" type="line"/>
    </contour>
  </outline>
</glyph>
<glyph name="uni00B9" format="1">
  <advance width="434"/>
  <unicode hex="00b9"/>
  <outline>
    <contour>
      <point x="198" y="320" type="line" smooth="no"/>
      <point x="198" y="606" type="line" smooth="no"/>
      <point x="89" y="606" type="line" smooth="no"/>
      <point x="89" y="658" type="line" smooth="no"/>
      <point x="173" y="660"/>
      <point x="200" y="679"/>
      <point x="216" y="735" type="curve" smooth="no"/>
      <point x="277" y="735" type="line" smooth="no"/>
      <point x="277" y="320" type="line" smooth="no"/>
    </contour>
  </outline>
</glyph>
<glyph name="ordmasculine" format="1">
  <advance width="402"/>
  <unicode hex="00BA"/>
  <outline>
    <contour>
      <point x="202" y="446" type="curve" smooth="yes"/>
      <point x="143" y="446"/>
      <point x="117" y="481"/>
      <point x="117" y="565" type="curve" smooth="yes"/>
      <point x="117" y="650"/>
      <point x="143" y="686"/>
      <point x="202" y="686" type="curve" smooth="yes"/>
      <point x="267" y="686"/>
      <point x="287" y="639"/>
      <point x="287" y="565" type="curve" smooth="yes"/>
      <point x="287" y="493"/>
      <point x="267" y="446"/>
    </contour>
    <contour>
      <point x="202" y="390" type="curve" smooth="yes"/>
      <point x="300" y="390"/>
      <point x="353" y="450"/>
      <point x="353" y="565" type="curve" smooth="yes"/>
      <point x="353" y="680"/>
      <point x="300" y="742"/>
      <point x="202" y="742" type="curve" smooth="yes"/>
      <point x="103" y="742"/>
      <point x="50" y="682"/>
      <point x="50" y="565" type="curve" smooth="yes"/>
      <point x="50" y="451"/>
      <point x="102" y="390"/>
    </contour>
  </outline>
</glyph>
<glyph name="guillemotright" format="1">
  <advance width="598"/>
  <unicode hex="00BB"/>
  <outline>
    <contour>
      <point x="275" y="26" type="line"/>
      <point x="467" y="256" type="line"/>
      <point x="275" y="486" type="line"/>
      <point x="371" y="486" type="line"/>
      <point x="563" y="256" type="line"/>
      <point x="371" y="26" type="line"/>
    </contour>
    <contour>
      <point x="36" y="26" type="line"/>
      <point x="228" y="256" type="line"/>
      <point x="36" y="486" type="line"/>
      <point x="132" y="486" type="line"/>
      <point x="324" y="256" type="line"/>
      <point x="132" y="26" type="line"/>
    </contour>
  </outline>
</glyph>
<glyph name="onequarter" format="1">
  <advance width="950"/>
  <unicode hex="00BC"/>
  <outline>
    <contour>
      <point x="770" y="-4" type="line"/>
      <point x="770" y="85" type="line"/>
      <point x="537" y="85" type="line"/>
      <point x="537" y="146" type="line"/>
      <point x="779" y="411" type="line"/>
      <point x="848" y="411" type="line"/>
      <point x="848" y="146" type="line"/>
      <point x="910" y="146" type="line"/>
      <point x="910" y="85" type="line"/>
      <point x="848" y="85" type="line"/>
      <point x="848" y="-4" type="line"/>
    </contour>
    <contour>
      <point x="188" y="264" type="line"/>
      <point x="188" y="550" type="line"/>
      <point x="79" y="550" type="line"/>
      <point x="79" y="602" type="line"/>
      <point x="163" y="604"/>
      <point x="190" y="623"/>
      <point x="206" y="679" type="curve"/>
      <point x="267" y="679" type="line"/>
      <point x="267" y="264" type="line"/>
    </contour>
    <contour>
      <point x="235" y="-25" type="line"/>
      <point x="615" y="701" type="line"/>
      <point x="696" y="701" type="line"/>
      <point x="315" y="-25" type="line"/>
    </contour>
    <contour>
      <point x="624" y="146" type="line"/>
      <point x="770" y="146" type="line"/>
      <point x="770" y="305" type="line"/>
    </contour>
  </outline>
</glyph>
<glyph name="onehalf" format="1">
  <advance width="950"/>
  <unicode hex="00BD"/>
  <outline>
    <contour>
      <point x="557" y="-5" type="line"/>
      <point x="879" y="-5" type="line"/>
      <point x="879" y="59" type="line"/>
      <point x="659" y="59" type="line"/>
      <point x="716" y="103"/>
      <point x="759" y="137"/>
      <point x="786" y="161" type="curve" smooth="yes"/>
      <point x="841" y="210"/>
      <point x="865" y="245"/>
      <point x="865" y="300" type="curve" smooth="yes"/>
      <point x="865" y="376"/>
      <point x="808" y="419"/>
      <point x="712" y="419" type="curve" smooth="yes"/>
      <point x="640" y="419"/>
      <point x="588" y="393"/>
      <point x="553" y="340" type="curve"/>
      <point x="618" y="302" type="line"/>
      <point x="644" y="338"/>
      <point x="675" y="356"/>
      <point x="710" y="356" type="curve" smooth="yes"/>
      <point x="749" y="356"/>
      <point x="782" y="337"/>
      <point x="782" y="298" type="curve"/>
      <point x="783" y="275"/>
      <point x="774" y="252"/>
      <point x="754" y="229" type="curve" smooth="yes"/>
      <point x="714" y="183"/>
      <point x="605" y="96"/>
      <point x="557" y="62" type="curve"/>
    </contour>
    <contour>
      <point x="150" y="264" type="line"/>
      <point x="229" y="264" type="line"/>
      <point x="229" y="679" type="line"/>
      <point x="168" y="679" type="line"/>
      <point x="152" y="623"/>
      <point x="125" y="604"/>
      <point x="41" y="602" type="curve"/>
      <point x="41" y="550" type="line"/>
      <point x="150" y="550" type="line"/>
    </contour>
    <contour>
      <point x="194" y="-25" type="line"/>
      <point x="274" y="-25" type="line"/>
      <point x="655" y="701" type="line"/>
      <point x="574" y="701" type="line"/>
    </contour>
  </outline>
</glyph>
<glyph name="threequarters" format="1">
  <advance width="950"/>
  <unicode hex="00be"/>
  <outline>
    <contour>
      <point x="203" y="255" type="curve" smooth="yes"/>
      <point x="137" y="255"/>
      <point x="78" y="283"/>
      <point x="51" y="324" type="curve" smooth="no"/>
      <point x="116" y="360" type="line" smooth="no"/>
      <point x="134" y="337"/>
      <point x="165" y="318"/>
      <point x="202" y="318" type="curve" smooth="yes"/>
      <point x="263" y="318"/>
      <point x="290" y="342"/>
      <point x="290" y="389" type="curve" smooth="yes"/>
      <point x="290" y="434"/>
      <point x="258" y="453"/>
      <point x="198" y="453" type="curve" smooth="yes"/>
      <point x="154" y="453" type="line" smooth="no"/>
      <point x="154" y="515" type="line" smooth="no"/>
      <point x="192" y="515" type="line" smooth="yes"/>
      <point x="248" y="515"/>
      <point x="283" y="536"/>
      <point x="283" y="575" type="curve" smooth="yes"/>
      <point x="283" y="610"/>
      <point x="254" y="626"/>
      <point x="212" y="626" type="curve" smooth="yes"/>
      <point x="174" y="626"/>
      <point x="144" y="610"/>
      <point x="121" y="578" type="curve" smooth="no"/>
      <point x="56" y="615" type="line" smooth="no"/>
      <point x="82" y="652"/>
      <point x="106" y="668"/>
      <point x="147" y="680" type="curve" smooth="no"/>
      <point x="168" y="685"/>
      <point x="191" y="688"/>
      <point x="217" y="688" type="curve" smooth="yes"/>
      <point x="321" y="688"/>
      <point x="367" y="640"/>
      <point x="367" y="583" type="curve" smooth="yes"/>
      <point x="367" y="538"/>
      <point x="344" y="506"/>
      <point x="299" y="489" type="curve" smooth="no"/>
      <point x="342" y="473"/>
      <point x="374" y="437"/>
      <point x="374" y="386" type="curve" smooth="yes"/>
      <point x="374" y="300"/>
      <point x="311" y="255"/>
    </contour>
    <contour>
      <point x="770" y="-5" type="line" smooth="no"/>
      <point x="770" y="84" type="line" smooth="no"/>
      <point x="537" y="84" type="line" smooth="no"/>
      <point x="537" y="145" type="line" smooth="no"/>
      <point x="779" y="410" type="line" smooth="no"/>
      <point x="848" y="410" type="line" smooth="no"/>
      <point x="848" y="145" type="line" smooth="no"/>
      <point x="910" y="145" type="line" smooth="no"/>
      <point x="910" y="84" type="line" smooth="no"/>
      <point x="848" y="84" type="line" smooth="no"/>
      <point x="848" y="-5" type="line" smooth="no"/>
    </contour>
    <contour>
      <point x="286" y="-25" type="line" smooth="no"/>
      <point x="666" y="701" type="line" smooth="no"/>
      <point x="747" y="701" type="line" smooth="no"/>
      <point x="366" y="-25" type="line" smooth="no"/>
    </contour>
    <contour>
      <point x="624" y="145" type="line" smooth="no"/>
      <point x="770" y="145" type="line" smooth="no"/>
      <point x="770" y="304" type="line" smooth="no"/>
    </contour>
  </outline>
</glyph>
<glyph name="questiondown" format="1">
  <advance width="512"/>
  <unicode hex="00bf"/>
  <outline>
    <contour>
      <point x="275" y="-193" type="curve" smooth="yes"/>
      <point x="138" y="-193"/>
      <point x="53" y="-128"/>
      <point x="53" y="-7" type="curve" smooth="yes"/>
      <point x="53" y="59"/>
      <point x="80" y="112"/>
      <point x="129" y="157" type="curve" smooth="yes"/>
      <point x="153" y="180"/>
      <point x="195" y="208"/>
      <point x="253" y="242" type="curve" smooth="no"/>
      <point x="253" y="338" type="line" smooth="no"/>
      <point x="338" y="338" type="line" smooth="no"/>
      <point x="338" y="205" type="line" smooth="no"/>
      <point x="280" y="170"/>
      <point x="239" y="144"/>
      <point x="215" y="124" type="curve" smooth="yes"/>
      <point x="167" y="85"/>
      <point x="148" y="50"/>
      <point x="148" y="0" type="curve" smooth="yes"/>
      <point x="148" y="-74"/>
      <point x="192" y="-113"/>
      <point x="274" y="-113" type="curve" smooth="yes"/>
      <point x="345" y="-113"/>
      <point x="383" y="-83"/>
      <point x="405" y="-44" type="curve" smooth="no"/>
      <point x="479" y="-92" type="line" smooth="no"/>
      <point x="442" y="-159"/>
      <point x="374" y="-193"/>
    </contour>
    <contour>
      <point x="295" y="417" type="curve" smooth="yes"/>
      <point x="252" y="417"/>
      <point x="235" y="433"/>
      <point x="235" y="472" type="curve" smooth="yes"/>
      <point x="235" y="513"/>
      <point x="254" y="527"/>
      <point x="295" y="527" type="curve" smooth="yes"/>
      <point x="342" y="527"/>
      <point x="354" y="507"/>
      <point x="354" y="472" type="curve" smooth="yes"/>
      <point x="354" y="433"/>
      <point x="338" y="417"/>
    </contour>
  </outline>
</glyph>
<glyph name="AE" format="1">
  <advance width="887"/>
  <unicode hex="00C6"/>
  <outline>
    <contour>
      <point x="232" y="265" type="line"/>
      <point x="434" y="265" type="line"/>
      <point x="428" y="599" type="line"/>
      <point x="386" y="599" type="line"/>
    </contour>
    <contour>
      <point x="9" y="0" type="line"/>
      <point x="337" y="690" type="line"/>
      <point x="832" y="690" type="line"/>
      <point x="832" y="611" type="line"/>
      <point x="520" y="611" type="line"/>
      <point x="524" y="400" type="line"/>
      <point x="794" y="400" type="line"/>
      <point x="794" y="321" type="line"/>
      <point x="525" y="321" type="line"/>
      <point x="530" y="79" type="line"/>
      <point x="845" y="79" type="line"/>
      <point x="845" y="0" type="line"/>
      <point x="439" y="0" type="line"/>
      <point x="436" y="181" type="line"/>
      <point x="194" y="181" type="line"/>
      <point x="112" y="0" type="line"/>
    </contour>
  </outline>
</glyph>
<glyph name="AE" format="1">
  <advance width="887"/>
  <unicode hex="00c6"/>
  <outline>
    <contour>
      <point x="580" y="690" type="move" smooth="yes"/>
    </contour>
    <contour>
      <point x="9" y="0" type="line" smooth="no"/>
      <point x="337" y="690" type="line" smooth="no"/>
      <point x="832" y="690" type="line" smooth="no"/>
      <point x="832" y="611" type="line" smooth="no"/>
      <point x="520" y="611" type="line" smooth="no"/>
      <point x="524" y="400" type="line" smooth="no"/>
      <point x="794" y="400" type="line" smooth="no"/>
      <point x="794" y="321" type="line" smooth="no"/>
      <point x="525" y="321" type="line" smooth="no"/>
      <point x="530" y="79" type="line" smooth="no"/>
      <point x="845" y="79" type="line" smooth="no"/>
      <point x="845" y="0" type="line" smooth="no"/>
      <point x="439" y="0" type="line" smooth="no"/>
      <point x="436" y="181" type="line" smooth="no"/>
      <point x="194" y="181" type="line" smooth="no"/>
      <point x="112" y="0" type="line" smooth="no"/>
    </contour>
    <contour>
      <point x="232" y="265" type="line" smooth="no"/>
      <point x="434" y="265" type="line" smooth="no"/>
      <point x="428" y="599" type="line" smooth="no"/>
      <point x="386" y="599" type="line" smooth="no"/>
    </contour>
  </outline>
</glyph>
<glyph name="multiply" format="1">
  <advance width="696"/>
  <unicode hex="00d7"/>
  <outline>
    <contour>
      <point x="150" y="38" type="line" smooth="no"/>
      <point x="100" y="88" type="line" smooth="no"/>
      <point x="299" y="286" type="line" smooth="no"/>
      <point x="100" y="485" type="line" smooth="no"/>
      <point x="150" y="534" type="line" smooth="no"/>
      <point x="348" y="336" type="line" smooth="no"/>
      <point x="547" y="534" type="line" smooth="no"/>
      <point x="596" y="485" type="line" smooth="no"/>
      <point x="398" y="286" type="line" smooth="no"/>
      <point x="596" y="88" type="line" smooth="no"/>
      <point x="547" y="38" type="line" smooth="no"/>
      <point x="348" y="237" type="line" smooth="no"/>
    </contour>
  </outline>
</glyph>
<glyph name="Thorn" format="1">
  <advance width="602"/>
  <unicode hex="00DE"/>
  <outline>
    <contour>
      <point x="321" y="690" type="move" smooth="yes"/>
    </contour>
    <contour>
      <point x="89" y="0" type="line"/>
      <point x="89" y="690" type="line"/>
      <point x="181" y="690" type="line"/>
      <point x="181" y="590" type="line"/>
      <point x="311" y="590" type="line" smooth="yes"/>
      <point x="469" y="590"/>
      <point x="557" y="539"/>
      <point x="557" y="395" type="curve" smooth="yes"/>
      <point x="557" y="252"/>
      <point x="464" y="182"/>
      <point x="304" y="182" type="curve" smooth="yes"/>
      <point x="181" y="182" type="line"/>
      <point x="181" y="0" type="line"/>
    </contour>
    <contour>
      <point x="181" y="261" type="line"/>
      <point x="293" y="261" type="line" smooth="yes"/>
      <point x="414" y="261"/>
      <point x="462" y="301"/>
      <point x="462" y="394" type="curve" smooth="yes"/>
      <point x="462" y="485"/>
      <point x="408" y="511"/>
      <point x="304" y="511" type="curve" smooth="yes"/>
      <point x="181" y="511" type="line"/>
    </contour>
  </outline>
</glyph>
<glyph name="germandbls" format="1">
  <advance width="584"/>
  <unicode hex="00DF"/>
  <outline>
    <contour>
      <point x="83" y="533" type="curve" smooth="yes"/>
      <point x="83" y="0" type="line"/>
      <point x="172" y="0" type="line"/>
      <point x="172" y="538" type="line" smooth="yes"/>
      <point x="172" y="660"/>
      <point x="209" y="707"/>
      <point x="292" y="707" type="curve" smooth="yes"/>
      <point x="364" y="707"/>
      <point x="400" y="674"/>
      <point x="400" y="607" type="curve" smooth="yes"/>
      <point x="400" y="522"/>
      <point x="352" y="479"/>
      <point x="243" y="479" type="curve"/>
      <point x="243" y="401" type="line"/>
      <point x="362" y="401"/>
      <point x="447" y="377"/>
      <point x="447" y="241" type="curve" smooth="yes"/>
      <point x="447" y="114"/>
      <point x="379" y="68"/>
      <point x="284" y="68" type="curve" smooth="yes"/>
      <point x="267" y="68"/>
      <point x="249" y="69"/>
      <point x="231" y="72" type="curve"/>
      <point x="231" y="-8" type="line"/>
      <point x="254" y="-12"/>
      <point x="277" y="-13"/>
      <point x="299" y="-13" type="curve" smooth="yes"/>
      <point x="433" y="-13"/>
      <point x="539" y="55"/>
      <point x="539" y="236" type="curve" smooth="yes"/>
      <point x="539" y="355"/>
      <point x="479" y="436"/>
      <point x="359" y="450" type="curve"/>
      <point x="444" y="464"/>
      <point x="490" y="521"/>
      <point x="490" y="617" type="curve" smooth="yes"/>
      <point x="490" y="732"/>
      <point x="412" y="784"/>
      <point x="294" y="784" type="curve" smooth="yes"/>
      <point x="153" y="784"/>
      <point x="83" y="713"/>
    </contour>
  </outline>
</glyph>
<glyph name="ae" format="1">
  <advance width="831"/>
  <unicode hex="00e6"/>
  <outline>
    <contour>
      <point x="428" y="519" type="move" smooth="yes"/>
    </contour>
    <contour>
      <point x="786" y="247" type="line" smooth="no"/>
      <point x="453" y="247" type="line" smooth="no"/>
      <point x="454" y="125"/>
      <point x="494" y="61"/>
      <point x="593" y="61" type="curve" smooth="yes"/>
      <point x="647" y="61"/>
      <point x="686" y="79"/>
      <point x="719" y="118" type="curve" smooth="no"/>
      <point x="775" y="68" type="line" smooth="no"/>
      <point x="735" y="17"/>
      <point x="680" y="-13"/>
      <point x="589" y="-13" type="curve" smooth="yes"/>
      <point x="506" y="-13"/>
      <point x="447" y="17"/>
      <point x="412" y="72" type="curve" smooth="no"/>
      <point x="343" y="17"/>
      <point x="279" y="-13"/>
      <point x="200" y="-13" type="curve" smooth="yes"/>
      <point x="99" y="-13"/>
      <point x="41" y="49"/>
      <point x="41" y="146" type="curve" smooth="yes"/>
      <point x="41" y="254"/>
      <point x="109" y="314"/>
      <point x="249" y="314" type="curve" smooth="yes"/>
      <point x="370" y="314" type="line" smooth="no"/>
      <point x="370" y="356" type="line" smooth="yes"/>
      <point x="370" y="429"/>
      <point x="325" y="458"/>
      <point x="248" y="458" type="curve" smooth="yes"/>
      <point x="185" y="458"/>
      <point x="144" y="428"/>
      <point x="134" y="391" type="curve" smooth="no"/>
      <point x="56" y="416" type="line" smooth="no"/>
      <point x="59" y="425" type="line" smooth="yes"/>
      <point x="79" y="486"/>
      <point x="150" y="532"/>
      <point x="252" y="532" type="curve" smooth="yes"/>
      <point x="347" y="532"/>
      <point x="403" y="497"/>
      <point x="424" y="451" type="curve" smooth="no"/>
      <point x="450" y="498"/>
      <point x="507" y="532"/>
      <point x="580" y="532" type="curve" smooth="yes"/>
      <point x="717" y="532"/>
      <point x="786" y="449"/>
      <point x="786" y="297" type="curve" smooth="yes"/>
    </contour>
    <contour>
      <point x="455" y="314" type="line" smooth="no"/>
      <point x="698" y="314" type="line" smooth="no"/>
      <point x="697" y="405"/>
      <point x="660" y="459"/>
      <point x="578" y="459" type="curve" smooth="yes"/>
      <point x="501" y="459"/>
      <point x="467" y="405"/>
      <point x="455" y="318" type="curve" smooth="no"/>
    </contour>
    <contour>
      <point x="131" y="146" type="curve" smooth="yes"/>
      <point x="131" y="89"/>
      <point x="163" y="64"/>
      <point x="221" y="64" type="curve" smooth="yes"/>
      <point x="270" y="64"/>
      <point x="345" y="98"/>
      <point x="385" y="132" type="curve" smooth="no"/>
      <point x="374" y="167"/>
      <point x="369" y="204"/>
      <point x="369" y="247" type="curve" smooth="no"/>
      <point x="274" y="247" type="line" smooth="no"/>
      <point x="181" y="250"/>
      <point x="131" y="209"/>
    </contour>
  </outline>
</glyph>
<glyph name="eth" format="1">
  <advance width="575"/>
  <unicode hex="00F0"/>
  <outline>
    <contour>
      <point x="288" y="-13" type="curve" smooth="yes"/>
      <point x="441" y="-13"/>
      <point x="521" y="82"/>
      <point x="521" y="260" type="curve" smooth="yes"/>
      <point x="521" y="428"/>
      <point x="460" y="572"/>
      <point x="339" y="694" type="curve"/>
      <point x="402" y="729" type="line"/>
      <point x="373" y="771" type="line"/>
      <point x="298" y="728" type="line"/>
      <point x="286" y="741"/>
      <point x="267" y="756"/>
      <point x="240" y="771" type="curve"/>
      <point x="155" y="771" type="line"/>
      <point x="190" y="750"/>
      <point x="219" y="724"/>
      <point x="244" y="697" type="curve"/>
      <point x="151" y="643" type="line"/>
      <point x="178" y="601" type="line"/>
      <point x="277" y="658" type="line"/>
      <point x="327" y="607"/>
      <point x="373" y="537"/>
      <point x="386" y="493" type="curve"/>
      <point x="349" y="519"/>
      <point x="309" y="533"/>
      <point x="268" y="533" type="curve" smooth="yes"/>
      <point x="131" y="533"/>
      <point x="54" y="430"/>
      <point x="54" y="259" type="curve" smooth="yes"/>
      <point x="54" y="83"/>
      <point x="134" y="-13"/>
    </contour>
    <contour>
      <point x="288" y="62" type="curve" smooth="yes"/>
      <point x="190" y="62"/>
      <point x="144" y="126"/>
      <point x="144" y="259" type="curve" smooth="yes"/>
      <point x="144" y="399"/>
      <point x="188" y="457"/>
      <point x="287" y="457" type="curve" smooth="yes"/>
      <point x="384" y="457"/>
      <point x="431" y="396"/>
      <point x="431" y="260" type="curve" smooth="yes"/>
      <point x="431" y="123"/>
      <point x="383" y="62"/>
    </contour>
  </outline>
</glyph>
<glyph name="divide" format="1">
  <advance width="697"/>
  <unicode hex="00f7"/>
  <outline>
    <contour>
      <point x="304" y="21" type="line" smooth="no"/>
      <point x="304" y="109" type="line" smooth="no"/>
      <point x="392" y="109" type="line" smooth="no"/>
      <point x="392" y="21" type="line" smooth="no"/>
    </contour>
    <contour>
      <point x="80" y="251" type="line" smooth="no"/>
      <point x="80" y="321" type="line" smooth="no"/>
      <point x="617" y="321" type="line" smooth="no"/>
      <point x="617" y="251" type="line" smooth="no"/>
    </contour>
    <contour>
      <point x="304" y="463" type="line" smooth="no"/>
      <point x="304" y="551" type="line" smooth="no"/>
      <point x="392" y="551" type="line" smooth="no"/>
      <point x="392" y="463" type="line" smooth="no"/>
    </contour>
  </outline>
</glyph>
<glyph name="oslash" format="1">
  <advance width="566"/>
  <unicode hex="00F8"/>
  <outline>
    <contour>
      <point x="117" y="-73" type="line"/>
      <point x="393" y="611" type="line"/>
      <point x="451" y="611" type="line"/>
      <point x="176" y="-73" type="line"/>
    </contour>
    <component base="o"/>
  </outline>
</glyph>
<glyph name="thorn" format="1">
  <advance width="571"/>
  <unicode hex="00FE"/>
  <outline>
    <contour>
      <point x="294" y="62" type="curve" smooth="yes"/>
      <point x="378" y="62"/>
      <point x="426" y="130"/>
      <point x="427" y="249" type="curve" smooth="yes"/>
      <point x="427" y="257" type="line" smooth="yes"/>
      <point x="427" y="377"/>
      <point x="387" y="455"/>
      <point x="298" y="455" type="curve" smooth="yes"/>
      <point x="242" y="455"/>
      <point x="197" y="425"/>
      <point x="167" y="388" type="curve"/>
      <point x="167" y="123" type="line"/>
      <point x="202" y="85"/>
      <point x="243" y="62"/>
    </contour>
    <contour>
      <point x="78" y="-197" type="line"/>
      <point x="78" y="690" type="line"/>
      <point x="167" y="690" type="line"/>
      <point x="167" y="461" type="line"/>
      <point x="203" y="502"/>
      <point x="252" y="532"/>
      <point x="319" y="532" type="curve" smooth="yes"/>
      <point x="450" y="532"/>
      <point x="518" y="422"/>
      <point x="518" y="258" type="curve" smooth="yes"/>
      <point x="518" y="248" type="line" smooth="yes"/>
      <point x="516" y="94"/>
      <point x="442" y="-13"/>
      <point x="312" y="-13" type="curve" smooth="yes"/>
      <point x="253" y="-13"/>
      <point x="207" y="8"/>
      <point x="167" y="47" type="curve"/>
      <point x="167" y="-197" type="line"/>
    </contour>
  </outline>
</glyph>
<glyph name="Hbar" format="1">
  <advance width="684"/>
  <unicode hex="0126"/>
  <outline>
    <component base="H"/>
    <contour>
      <point x="659" y="499" type="line" smooth="no"/>
      <point x="23" y="499" type="line" smooth="no"/>
      <point x="23" y="569" type="line" smooth="no"/>
      <point x="659" y="569" type="line" smooth="no"/>
    </contour>
  </outline>
</glyph>
<glyph name="dotlessi" format="1">
  <advance width="250"/>
  <unicode hex="0131"/>
  <outline>
    <contour>
      <point x="81" y="0" type="line"/>
      <point x="81" y="519" type="line"/>
      <point x="170" y="519" type="line"/>
      <point x="170" y="0" type="line"/>
    </contour>
  </outline>
</glyph>
<glyph name="kgreenlandic" format="1">
  <advance width="512"/>
  <unicode hex="0138"/>
  <outline>
    <contour>
      <point x="78" y="0" type="line"/>
      <point x="167" y="0" type="line"/>
      <point x="167" y="168" type="line"/>
      <point x="225" y="236" type="line"/>
      <point x="391" y="0" type="line"/>
      <point x="499" y="0" type="line"/>
      <point x="287" y="288" type="line"/>
      <point x="401" y="426" type="line" smooth="yes"/>
      <point x="419" y="448"/>
      <point x="449" y="443"/>
      <point x="469" y="440" type="curve"/>
      <point x="482" y="513" type="line"/>
      <point x="437" y="528"/>
      <point x="394" y="531"/>
      <point x="358" y="488" type="curve" smooth="yes"/>
      <point x="167" y="259" type="line"/>
      <point x="167" y="519" type="line"/>
      <point x="78" y="519" type="line"/>
    </contour>
  </outline>
</glyph>
<glyph name="Lslash" format="1">
  <advance width="520"/>
  <unicode hex="0141"/>
  <outline>
    <contour>
      <point x="8" y="262" type="line"/>
      <point x="8" y="339" type="line"/>
      <point x="298" y="519" type="line"/>
      <point x="298" y="442" type="line"/>
    </contour>
    <component base="L"/>
  </outline>
</glyph>
<glyph name="lslash" format="1">
  <advance width="255"/>
  <unicode hex="0142"/>
  <outline>
    <component base="l"/>
    <contour>
      <point x="-14" y="262" type="line"/>
      <point x="276" y="442" type="line"/>
      <point x="276" y="519" type="line"/>
      <point x="-14" y="339" type="line"/>
    </contour>
  </outline>
</glyph>
<glyph name="Eng" format="1">
  <advance width="691"/>
  <unicode hex="014A"/>
  <outline>
    <contour>
      <point x="513" y="690" type="line"/>
      <point x="603" y="690" type="line"/>
      <point x="603" y="-22" type="line" smooth="yes"/>
      <point x="603" y="-143"/>
      <point x="557" y="-193"/>
      <point x="447" y="-193" type="curve" smooth="yes"/>
      <point x="414" y="-193"/>
      <point x="384" y="-188"/>
      <point x="355" y="-178" type="curve"/>
      <point x="376" y="-109" type="line"/>
      <point x="400" y="-118"/>
      <point x="425" y="-123"/>
      <point x="450" y="-123" type="curve" smooth="yes"/>
      <point x="506" y="-123"/>
      <point x="516" y="-86"/>
      <point x="516" y="0" type="curve"/>
      <point x="181" y="568" type="line"/>
      <point x="179" y="568" type="line"/>
      <point x="179" y="0" type="line"/>
      <point x="89" y="0" type="line"/>
      <point x="89" y="690" type="line"/>
      <point x="206" y="690" type="line"/>
      <point x="511" y="162" type="line"/>
      <point x="513" y="162" type="line"/>
    </contour>
  </outline>
</glyph>
<glyph name="eng" format="1">
  <advance width="568"/>
  <unicode hex="014b"/>
  <outline>
    <contour>
      <point x="165" y="442" type="line" smooth="no"/>
      <point x="206" y="490"/>
      <point x="266" y="532"/>
      <point x="335" y="532" type="curve" smooth="yes"/>
      <point x="444" y="532"/>
      <point x="493" y="471"/>
      <point x="493" y="339" type="curve" smooth="yes"/>
      <point x="493" y="-22" type="line" smooth="yes"/>
      <point x="493" y="-146"/>
      <point x="447" y="-193"/>
      <point x="340" y="-193" type="curve" smooth="yes"/>
      <point x="307" y="-193"/>
      <point x="277" y="-188"/>
      <point x="248" y="-178" type="curve" smooth="no"/>
      <point x="269" y="-109" type="line" smooth="no"/>
      <point x="293" y="-118"/>
      <point x="317" y="-123"/>
      <point x="343" y="-123" type="curve" smooth="yes"/>
      <point x="398" y="-123"/>
      <point x="404" y="-84"/>
      <point x="404" y="-12" type="curve" smooth="yes"/>
      <point x="404" y="314" type="line" smooth="yes"/>
      <point x="404" y="400"/>
      <point x="392" y="452"/>
      <point x="311" y="452" type="curve" smooth="yes"/>
      <point x="261" y="452"/>
      <point x="208" y="416"/>
      <point x="167" y="371" type="curve" smooth="no"/>
      <point x="167" y="0" type="line" smooth="no"/>
      <point x="78" y="0" type="line" smooth="no"/>
      <point x="78" y="519" type="line" smooth="no"/>
      <point x="163" y="519" type="line" smooth="no"/>
    </contour>
  </outline>
</glyph>
<glyph name="OE" format="1">
  <advance width="1002"/>
  <unicode hex="0152"/>
  <outline>
    <contour>
      <point x="956" y="0" type="line"/>
      <point x="956" y="79" type="line"/>
      <point x="612" y="79" type="line"/>
      <point x="612" y="321" type="line"/>
      <point x="908" y="321" type="line"/>
      <point x="908" y="400" type="line"/>
      <point x="612" y="400" type="line"/>
      <point x="612" y="611" type="line"/>
      <point x="954" y="611" type="line"/>
      <point x="954" y="690" type="line"/>
      <point x="520" y="690" type="line"/>
      <point x="520" y="626" type="line"/>
      <point x="480" y="676"/>
      <point x="420" y="703"/>
      <point x="334" y="703" type="curve" smooth="yes"/>
      <point x="156" y="703"/>
      <point x="58" y="584"/>
      <point x="57" y="376" type="curve" smooth="yes"/>
      <point x="57" y="320" type="line" smooth="yes"/>
      <point x="57" y="107"/>
      <point x="156" y="-13"/>
      <point x="334" y="-13" type="curve" smooth="yes"/>
      <point x="419" y="-13"/>
      <point x="480" y="14"/>
      <point x="520" y="65" type="curve"/>
      <point x="520" y="0" type="line"/>
    </contour>
    <contour>
      <point x="152" y="320" type="curve" smooth="yes"/>
      <point x="152" y="375" type="line" smooth="yes"/>
      <point x="153" y="533"/>
      <point x="211" y="623"/>
      <point x="334" y="623" type="curve" smooth="yes"/>
      <point x="458" y="623"/>
      <point x="519" y="534"/>
      <point x="520" y="375" type="curve" smooth="yes"/>
      <point x="520" y="320" type="line" smooth="yes"/>
      <point x="520" y="156"/>
      <point x="459" y="67"/>
      <point x="334" y="67" type="curve" smooth="yes"/>
      <point x="211" y="67"/>
      <point x="152" y="158"/>
    </contour>
  </outline>
</glyph>
<glyph name="oe" format="1">
  <advance width="896"/>
  <unicode hex="0153"/>
  <outline>
    <contour>
      <point x="851" y="297" type="line" smooth="yes"/>
      <point x="851" y="449"/>
      <point x="782" y="532"/>
      <point x="645" y="532" type="curve" smooth="yes"/>
      <point x="566.961" y="532"/>
      <point x="496" y="490"/>
      <point x="467" y="422" type="curve"/>
      <point x="439" y="490"/>
      <point x="365.914" y="532"/>
      <point x="283" y="532" type="curve" smooth="yes"/>
      <point x="138" y="532"/>
      <point x="54" y="434"/>
      <point x="53" y="265" type="curve" smooth="yes"/>
      <point x="53" y="256" type="line" smooth="yes"/>
      <point x="53" y="87.9999"/>
      <point x="136" y="-13.0001"/>
      <point x="284" y="-13.0001" type="curve" smooth="yes"/>
      <point x="366.695" y="-13.0001"/>
      <point x="438" y="29"/>
      <point x="467" y="96" type="curve"/>
      <point x="496" y="28"/>
      <point x="568.548" y="-13.0001"/>
      <point x="654" y="-13.0001" type="curve" smooth="yes"/>
      <point x="745" y="-13.0001"/>
      <point x="800" y="16.9999"/>
      <point x="840" y="67.9999" type="curve"/>
      <point x="784" y="118" type="line"/>
      <point x="751" y="78.9999"/>
      <point x="712" y="60.9999"/>
      <point x="658" y="60.9999" type="curve" smooth="yes"/>
      <point x="559" y="60.9999"/>
      <point x="514" y="124"/>
      <point x="513" y="243" type="curve"/>
      <point x="851" y="244" type="line"/>
    </contour>
    <contour>
      <point x="515" y="314" type="line"/>
      <point x="515" y="318" type="line"/>
      <point x="527" y="405"/>
      <point x="566" y="459"/>
      <point x="643" y="459" type="curve" smooth="yes"/>
      <point x="725" y="459"/>
      <point x="762" y="405"/>
      <point x="763" y="314" type="curve"/>
    </contour>
    <contour>
      <point x="144" y="256" type="curve" smooth="yes"/>
      <point x="144" y="263" type="line" smooth="yes"/>
      <point x="145" y="385"/>
      <point x="188" y="458"/>
      <point x="283" y="458" type="curve" smooth="yes"/>
      <point x="377" y="458"/>
      <point x="421" y="386"/>
      <point x="422" y="264" type="curve" smooth="yes"/>
      <point x="422" y="256" type="line" smooth="yes"/>
      <point x="422" y="134"/>
      <point x="379" y="60.9999"/>
      <point x="284" y="60.9999" type="curve" smooth="yes"/>
      <point x="186" y="60.9999"/>
      <point x="144" y="135"/>
    </contour>
  </outline>
</glyph>
<glyph name="longs" format="1">
  <advance width="270"/>
  <unicode hex="017f"/>
  <outline>
    <contour>
      <point x="91" y="0" type="line" smooth="no"/>
      <point x="91" y="463" type="line" smooth="no"/>
      <point x="25" y="463" type="line" smooth="no"/>
      <point x="25" y="535" type="line" smooth="no"/>
      <point x="91" y="535" type="line" smooth="no"/>
      <point x="91" y="588" type="line" smooth="yes"/>
      <point x="91" y="717"/>
      <point x="135" y="776"/>
      <point x="257" y="776" type="curve" smooth="yes"/>
      <point x="296" y="776"/>
      <point x="331" y="770"/>
      <point x="361" y="757" type="curve" smooth="no"/>
      <point x="337" y="681" type="line" smooth="no"/>
      <point x="318" y="691"/>
      <point x="283" y="700"/>
      <point x="260" y="700" type="curve" smooth="yes"/>
      <point x="200" y="700"/>
      <point x="180" y="676"/>
      <point x="180" y="588" type="curve" smooth="yes"/>
      <point x="180" y="0" type="line" smooth="no"/>
    </contour>
  </outline>
</glyph>
<glyph name="florin" format="1">
  <advance width="537"/>
  <unicode hex="0192"/>
  <outline>
    <contour>
      <point x="77" y="-194" type="curve" smooth="yes"/>
      <point x="39" y="-194"/>
      <point x="2" y="-188"/>
      <point x="-32" y="-175" type="curve"/>
      <point x="-15" y="-108" type="line"/>
      <point x="16" y="-117"/>
      <point x="42" y="-121"/>
      <point x="64" y="-121" type="curve" smooth="yes"/>
      <point x="118" y="-121"/>
      <point x="126" y="-80"/>
      <point x="142" y="-4" type="curve" smooth="yes"/>
      <point x="237" y="442" type="line"/>
      <point x="153" y="442" type="line"/>
      <point x="168" y="512" type="line"/>
      <point x="252" y="512" type="line"/>
      <point x="268" y="582" type="line" smooth="yes"/>
      <point x="293" y="695"/>
      <point x="333" y="742"/>
      <point x="421" y="742" type="curve" smooth="yes"/>
      <point x="465" y="742"/>
      <point x="499" y="729"/>
      <point x="522" y="723" type="curve"/>
      <point x="499" y="651" type="line"/>
      <point x="468" y="662"/>
      <point x="447" y="669"/>
      <point x="419" y="669" type="curve" smooth="yes"/>
      <point x="368" y="669"/>
      <point x="362" y="624"/>
      <point x="352" y="578" type="curve" smooth="yes"/>
      <point x="337" y="512" type="line"/>
      <point x="439" y="512" type="line"/>
      <point x="425" y="442" type="line"/>
      <point x="322" y="442" type="line"/>
      <point x="215" y="-57" type="line" smooth="yes"/>
      <point x="195" y="-155"/>
      <point x="150" y="-194"/>
    </contour>
  </outline>
</glyph>
<glyph name="uni0237" format="1">
  <advance width="260"/>
  <unicode hex="0237"/>
  <outline>
    <contour>
      <point x="134" y="519" type="move" name="top"/>
    </contour>
    <contour>
      <point x="22" y="-201" type="curve" smooth="yes"/>
      <point x="128" y="-201"/>
      <point x="177" y="-147"/>
      <point x="177" y="-31" type="curve" smooth="yes"/>
      <point x="177" y="519" type="line"/>
      <point x="88" y="519" type="line"/>
      <point x="88" y="-25" type="line" smooth="yes"/>
      <point x="88" y="-90"/>
      <point x="74" y="-128"/>
      <point x="21" y="-128" type="curve" smooth="yes"/>
      <point x="1" y="-128"/>
      <point x="-22" y="-124"/>
      <point x="-39" y="-117" type="curve"/>
      <point x="-55" y="-189" type="line"/>
      <point x="-31" y="-197"/>
      <point x="-7" y="-201"/>
    </contour>
  </outline>
</glyph>
<glyph name="uni02BC" format="1">
  <advance width="270"/>
  <unicode hex="02BC"/>
  <outline>
    <contour>
      <point x="138" y="519" type="move" smooth="yes"/>
    </contour>
    <contour>
      <point x="89" y="601" type="line"/>
      <point x="113" y="631"/>
      <point x="130" y="689"/>
      <point x="130" y="737" type="curve"/>
      <point x="91" y="737"/>
      <point x="76" y="753"/>
      <point x="76" y="792" type="curve" smooth="yes"/>
      <point x="76" y="828"/>
      <point x="92" y="847"/>
      <point x="135" y="847" type="curve" smooth="yes"/>
      <point x="178" y="847"/>
      <point x="195" y="825"/>
      <point x="195" y="782" type="curve" smooth="yes"/>
      <point x="195" y="702"/>
      <point x="166" y="632"/>
      <point x="140" y="601" type="curve"/>
    </contour>
  </outline>
</glyph>
<glyph name="circumflex" format="1">
  <advance width="600"/>
  <unicode hex="02C6"/>
  <outline>
    <contour>
      <point x="263" y="519" type="move" name="_top"/>
    </contour>
    <contour>
      <point x="102" y="590" type="line"/>
      <point x="175" y="590" type="line"/>
      <point x="265" y="706" type="line"/>
      <point x="355" y="590" type="line"/>
      <point x="428" y="590" type="line"/>
      <point x="317" y="766" type="line"/>
      <point x="214" y="766" type="line"/>
    </contour>
  </outline>
</glyph>
<glyph name="caron" format="1">
  <advance width="600"/>
  <unicode hex="02C7"/>
  <outline>
    <contour>
      <point x="262" y="519" type="move" smooth="yes"/>
    </contour>
    <contour>
      <point x="213" y="590" type="line"/>
      <point x="102" y="766" type="line"/>
      <point x="175" y="766" type="line"/>
      <point x="265" y="650" type="line"/>
      <point x="355" y="766" type="line"/>
      <point x="428" y="766" type="line"/>
      <point x="316" y="590" type="line"/>
    </contour>
  </outline>
</glyph>
<glyph name="uni02C9" format="1">
  <advance width="0"/>
  <unicode hex="02C9"/>
  <outline>
    <contour>
      <point x="-149" y="613" type="line"/>
      <point x="-149" y="681" type="line"/>
      <point x="149" y="681" type="line"/>
      <point x="149" y="613" type="line"/>
    </contour>
  </outline>
</glyph>
<glyph name="breve" format="1">
  <advance width="600"/>
  <unicode hex="02d8"/>
  <outline>
    <contour>
      <point x="262" y="519" type="move" smooth="yes"/>
    </contour>
    <contour>
      <point x="264" y="589" type="curve" smooth="yes"/>
      <point x="165" y="589"/>
      <point x="105" y="648"/>
      <point x="105" y="727" type="curve" smooth="no"/>
      <point x="167" y="727" type="line" smooth="no"/>
      <point x="176" y="686"/>
      <point x="212" y="666"/>
      <point x="263" y="666" type="curve" smooth="yes"/>
      <point x="330" y="666"/>
      <point x="355" y="686"/>
      <point x="363" y="727" type="curve" smooth="no"/>
      <point x="425" y="727" type="line" smooth="no"/>
      <point x="425" y="646"/>
      <point x="366" y="589"/>
    </contour>
  </outline>
</glyph>
<glyph name="dotaccent" format="1">
  <advance width="600"/>
  <unicode hex="02d9"/>
  <outline>
    <contour>
      <point x="266" y="519" type="move" smooth="yes"/>
    </contour>
    <contour>
      <point x="265" y="590" type="curve" smooth="yes"/>
      <point x="220" y="590"/>
      <point x="209" y="611"/>
      <point x="209" y="646" type="curve" smooth="yes"/>
      <point x="209" y="685"/>
      <point x="222" y="702"/>
      <point x="265" y="702" type="curve" smooth="yes"/>
      <point x="308" y="702"/>
      <point x="322" y="685"/>
      <point x="322" y="646" type="curve" smooth="yes"/>
      <point x="322" y="605"/>
      <point x="306" y="590"/>
    </contour>
  </outline>
</glyph>
<glyph name="ring" format="1">
  <advance width="600"/>
  <unicode hex="02DA"/>
  <outline>
    <contour>
      <point x="264" y="519" type="move" name="_top"/>
    </contour>
    <contour>
      <point x="260" y="728" type="move" name="top"/>
    </contour>
    <contour>
      <point x="264" y="612" type="curve" smooth="yes"/>
      <point x="232" y="612"/>
      <point x="217" y="628"/>
      <point x="217" y="661" type="curve" smooth="yes"/>
      <point x="217" y="694"/>
      <point x="232" y="710"/>
      <point x="264" y="710" type="curve" smooth="yes"/>
      <point x="296" y="710"/>
      <point x="312" y="694"/>
      <point x="312" y="661" type="curve" smooth="yes"/>
      <point x="312" y="628"/>
      <point x="296" y="612"/>
    </contour>
    <contour>
      <point x="264" y="565" type="curve" smooth="yes"/>
      <point x="331" y="565"/>
      <point x="361" y="603"/>
      <point x="361" y="661" type="curve" smooth="yes"/>
      <point x="361" y="720"/>
      <point x="332" y="757"/>
      <point x="264" y="757" type="curve" smooth="yes"/>
      <point x="197" y="757"/>
      <point x="168" y="718"/>
      <point x="168" y="661" type="curve" smooth="yes"/>
      <point x="168" y="605"/>
      <point x="196" y="565"/>
    </contour>
  </outline>
</glyph>
<glyph name="ogonek" format="1">
  <advance width="600"/>
  <unicode hex="02DB"/>
  <outline>
    <contour>
      <point x="294" y="0" type="move" smooth="yes"/>
    </contour>
    <contour>
      <point x="244" y="-193" type="curve" smooth="yes"/>
      <point x="184" y="-193"/>
      <point x="149" y="-162"/>
      <point x="149" y="-103" type="curve" smooth="yes"/>
      <point x="149" y="-43"/>
      <point x="199" y="8"/>
      <point x="307" y="37" type="curve"/>
      <point x="342" y="0" type="line"/>
      <point x="278" y="-21"/>
      <point x="218" y="-43"/>
      <point x="218" y="-90" type="curve" smooth="yes"/>
      <point x="218" y="-113"/>
      <point x="231" y="-125"/>
      <point x="254" y="-125" type="curve" smooth="yes"/>
      <point x="277" y="-125"/>
      <point x="294" y="-116"/>
      <point x="314" y="-106" type="curve"/>
      <point x="341" y="-159" type="line"/>
      <point x="306" y="-181"/>
      <point x="279" y="-193"/>
    </contour>
  </outline>
</glyph>
<glyph name="tilde" format="1">
  <advance width="600"/>
  <unicode hex="02DC"/>
  <outline>
    <contour>
      <point x="335" y="590" type="curve" smooth="yes"/>
      <point x="292" y="590"/>
      <point x="269" y="607"/>
      <point x="249" y="625" type="curve" smooth="yes"/>
      <point x="229" y="644"/>
      <point x="214" y="661"/>
      <point x="187" y="661" type="curve" smooth="yes"/>
      <point x="154" y="661"/>
      <point x="143" y="636"/>
      <point x="140" y="596" type="curve"/>
      <point x="81" y="596" type="line"/>
      <point x="85" y="678"/>
      <point x="128" y="724"/>
      <point x="193" y="724" type="curve" smooth="yes"/>
      <point x="229" y="724"/>
      <point x="254" y="707"/>
      <point x="277" y="689" type="curve" smooth="yes"/>
      <point x="300" y="672"/>
      <point x="318" y="655"/>
      <point x="342" y="655" type="curve" smooth="yes"/>
      <point x="371" y="655"/>
      <point x="386" y="676"/>
      <point x="389" y="718" type="curve"/>
      <point x="448" y="718" type="line"/>
      <point x="442" y="632"/>
      <point x="404" y="590"/>
    </contour>
  </outline>
</glyph>
<glyph name="hungarumlaut" format="1">
  <advance width="600"/>
  <unicode hex="02DD"/>
  <outline>
    <contour>
      <point x="222" y="519" type="move" smooth="yes"/>
    </contour>
    <contour>
      <point x="110" y="590" type="line"/>
      <point x="197" y="766" type="line"/>
      <point x="312" y="766" type="line"/>
      <point x="179" y="590" type="line"/>
    </contour>
    <contour>
      <point x="280" y="590" type="line"/>
      <point x="367" y="766" type="line"/>
      <point x="482" y="766" type="line"/>
      <point x="349" y="590" type="line"/>
    </contour>
  </outline>
</glyph>
<glyph name="gravecomb" format="1">
  <advance width="600"/>
  <unicode hex="0300"/>
  <outline>
    <contour>
      <point x="-1" y="590" type="line"/>
      <point x="-134" y="766" type="line"/>
      <point x="-19" y="766" type="line"/>
      <point x="68" y="590" type="line"/>
    </contour>
  </outline>
</glyph>
<glyph name="acutecomb" format="1">
  <advance width="600"/>
  <unicode hex="0301"/>
  <outline>
    <contour>
      <point x="-30" y="590" type="line" smooth="no"/>
      <point x="57" y="766" type="line" smooth="no"/>
      <point x="172" y="766" type="line" smooth="no"/>
      <point x="39" y="590" type="line" smooth="no"/>
    </contour>
  </outline>
</glyph>
<glyph name="uni0302" format="1">
  <advance width="600"/>
  <unicode hex="0302"/>
  <outline>
    <contour>
      <point x="-163" y="590" type="line" smooth="no"/>
      <point x="-51" y="766" type="line" smooth="no"/>
      <point x="52" y="766" type="line" smooth="no"/>
      <point x="163" y="590" type="line" smooth="no"/>
      <point x="90" y="590" type="line" smooth="no"/>
      <point x="0" y="706" type="line" smooth="no"/>
      <point x="-90" y="590" type="line" smooth="no"/>
    </contour>
  </outline>
</glyph>
<glyph name="tildecomb" format="1">
  <advance width="600"/>
  <unicode hex="0303"/>
  <outline>
    <contour>
      <point x="70" y="590" type="curve" smooth="yes"/>
      <point x="27" y="590"/>
      <point x="4" y="607"/>
      <point x="-16" y="625" type="curve" smooth="yes"/>
      <point x="-36" y="644"/>
      <point x="-51" y="661"/>
      <point x="-78" y="661" type="curve" smooth="yes"/>
      <point x="-111" y="661"/>
      <point x="-123" y="636"/>
      <point x="-125" y="596" type="curve"/>
      <point x="-184" y="596" type="line"/>
      <point x="-180" y="678"/>
      <point x="-138" y="724"/>
      <point x="-72" y="724" type="curve" smooth="yes"/>
      <point x="-36" y="724"/>
      <point x="-10" y="707"/>
      <point x="12" y="689" type="curve"/>
      <point x="35" y="672"/>
      <point x="53" y="655"/>
      <point x="77" y="655" type="curve" smooth="yes"/>
      <point x="105" y="655"/>
      <point x="121" y="676"/>
      <point x="124" y="718" type="curve"/>
      <point x="183" y="718" type="line"/>
      <point x="178" y="638"/>
      <point x="142" y="590"/>
    </contour>
  </outline>
</glyph>
<glyph name="uni0304" format="1">
  <advance width="600"/>
  <unicode hex="0304"/>
  <outline>
    <contour>
      <point x="-149" y="613" type="line"/>
      <point x="-149" y="681" type="line"/>
      <point x="149" y="681" type="line"/>
      <point x="149" y="613" type="line"/>
    </contour>
  </outline>
</glyph>
<glyph name="uni0306" format="1">
  <advance width="600"/>
  <unicode hex="0306"/>
  <outline>
    <contour>
      <point x="-1" y="589" type="curve" smooth="yes"/>
      <point x="100" y="589"/>
      <point x="160" y="646"/>
      <point x="160" y="727" type="curve"/>
      <point x="98" y="727" type="line"/>
      <point x="90" y="686"/>
      <point x="64" y="666"/>
      <point x="-2" y="666" type="curve" smooth="yes"/>
      <point x="-57" y="666"/>
      <point x="-89" y="687"/>
      <point x="-98" y="727" type="curve"/>
      <point x="-160" y="727" type="line"/>
      <point x="-160" y="648"/>
      <point x="-100" y="589"/>
    </contour>
  </outline>
</glyph>
<glyph name="uni0308" format="1">
  <advance width="600"/>
  <unicode hex="0308"/>
  <outline>
    <contour>
      <point x="96" y="590" type="curve" smooth="yes"/>
      <point x="55" y="590"/>
      <point x="44" y="610"/>
      <point x="44" y="642" type="curve" smooth="yes"/>
      <point x="44" y="677"/>
      <point x="57" y="694"/>
      <point x="96" y="694" type="curve" smooth="yes"/>
      <point x="136" y="694"/>
      <point x="149" y="678"/>
      <point x="149" y="642" type="curve" smooth="yes"/>
      <point x="149" y="603"/>
      <point x="135" y="590"/>
    </contour>
    <contour>
      <point x="-97" y="590" type="curve" smooth="yes"/>
      <point x="-138" y="590"/>
      <point x="-149" y="610"/>
      <point x="-149" y="642" type="curve" smooth="yes"/>
      <point x="-149" y="677"/>
      <point x="-136" y="694"/>
      <point x="-97" y="694" type="curve" smooth="yes"/>
      <point x="-57" y="694"/>
      <point x="-44" y="678"/>
      <point x="-44" y="642" type="curve" smooth="yes"/>
      <point x="-44" y="603"/>
      <point x="-58" y="590"/>
    </contour>
  </outline>
</glyph>
<glyph name="hookabovecomb" format="1">
  <advance width="600"/>
  <unicode hex="0309"/>
  <outline>
    <contour>
      <point x="-32" y="567" type="line" smooth="no"/>
      <point x="-32" y="622" type="line" smooth="no"/>
      <point x="-20" y="622" type="line" smooth="yes"/>
      <point x="4" y="622"/>
      <point x="16" y="631"/>
      <point x="16" y="649" type="curve" smooth="yes"/>
      <point x="16" y="667"/>
      <point x="7" y="676"/>
      <point x="-18" y="676" type="curve" smooth="yes"/>
      <point x="-31" y="676"/>
      <point x="-53" y="670"/>
      <point x="-67" y="660" type="curve" smooth="no"/>
      <point x="-89" y="702" type="line" smooth="no"/>
      <point x="-75" y="715"/>
      <point x="-42" y="728"/>
      <point x="-3" y="728" type="curve" smooth="yes"/>
      <point x="56" y="728"/>
      <point x="88" y="701"/>
      <point x="88" y="661" type="curve" smooth="yes"/>
      <point x="88" y="617"/>
      <point x="64" y="591"/>
      <point x="16" y="585" type="curve" smooth="no"/>
      <point x="16" y="567" type="line" smooth="no"/>
    </contour>
  </outline>
</glyph>
<glyph name="uni030A" format="1">
  <advance width="600"/>
  <unicode hex="030A"/>
  <outline>
    <contour>
      <point x="-1" y="605" type="curve" smooth="yes"/>
      <point x="-34" y="605"/>
      <point x="-51" y="623"/>
      <point x="-51" y="657" type="curve" smooth="yes"/>
      <point x="-51" y="692"/>
      <point x="-34" y="709"/>
      <point x="-1" y="709" type="curve" smooth="yes"/>
      <point x="33" y="709"/>
      <point x="50" y="692"/>
      <point x="50" y="657" type="curve" smooth="yes"/>
      <point x="50" y="623"/>
      <point x="33" y="605"/>
    </contour>
    <contour>
      <point x="-1" y="565" type="curve" smooth="yes"/>
      <point x="63" y="565"/>
      <point x="92" y="601"/>
      <point x="92" y="657" type="curve" smooth="yes"/>
      <point x="92" y="713"/>
      <point x="63" y="749"/>
      <point x="-1" y="749" type="curve" smooth="yes"/>
      <point x="-65" y="749"/>
      <point x="-93" y="713"/>
      <point x="-93" y="657" type="curve" smooth="yes"/>
      <point x="-93" y="604"/>
      <point x="-66" y="565"/>
    </contour>
  </outline>
</glyph>
<glyph name="uni030C" format="1">
  <advance width="600"/>
  <unicode hex="030C"/>
  <outline>
    <contour>
      <point x="-52" y="590" type="line"/>
      <point x="51" y="590" type="line"/>
      <point x="163" y="766" type="line"/>
      <point x="90" y="766" type="line"/>
      <point x="0" y="650" type="line"/>
      <point x="-90" y="766" type="line"/>
      <point x="-163" y="766" type="line"/>
    </contour>
  </outline>
</glyph>
<glyph name="uni030C" format="1">
  <advance width="600"/>
  <unicode hex="030c"/>
  <outline>
    <contour>
      <point x="-52" y="590" type="line" smooth="no"/>
      <point x="-163" y="766" type="line" smooth="no"/>
      <point x="-90" y="766" type="line" smooth="no"/>
      <point x="0" y="650" type="line" smooth="no"/>
      <point x="90" y="766" type="line" smooth="no"/>
      <point x="163" y="766" type="line" smooth="no"/>
      <point x="51" y="590" type="line" smooth="no"/>
    </contour>
  </outline>
</glyph>
<glyph name="uni030F" format="1">
  <advance width="270"/>
  <unicode hex="030F"/>
  <outline>
    <contour>
      <point x="-262" y="766" type="line"/>
      <point x="-147" y="766" type="line"/>
      <point x="-60" y="590" type="line"/>
      <point x="-129" y="590" type="line"/>
    </contour>
    <contour>
      <point x="-92" y="766" type="line"/>
      <point x="23" y="766" type="line"/>
      <point x="110" y="590" type="line"/>
      <point x="41" y="590" type="line"/>
    </contour>
  </outline>
</glyph>
<glyph name="uni0311" format="1">
  <advance width="270"/>
  <unicode hex="0311"/>
  <outline>
    <contour>
      <point x="-1" y="519" type="move" name="_top"/>
    </contour>
    <contour>
      <point x="-160" y="589" type="curve"/>
      <point x="-98" y="589" type="line"/>
      <point x="-89" y="629"/>
      <point x="-57" y="650"/>
      <point x="-2" y="650" type="curve" smooth="yes"/>
      <point x="64" y="650"/>
      <point x="90" y="630"/>
      <point x="98" y="589" type="curve"/>
      <point x="160" y="589" type="line"/>
      <point x="160" y="670"/>
      <point x="100" y="727"/>
      <point x="-1" y="727" type="curve" smooth="yes"/>
      <point x="-100" y="727"/>
      <point x="-160" y="668"/>
    </contour>
  </outline>
</glyph>
<glyph name="uni0312" format="1">
  <advance width="270"/>
  <unicode hex="0312"/>
  <outline>
    <contour>
      <point x="182" y="847" type="line"/>
      <point x="158" y="817"/>
      <point x="141" y="759"/>
      <point x="141" y="711" type="curve"/>
      <point x="180" y="711"/>
      <point x="195" y="695"/>
      <point x="195" y="656" type="curve" smooth="yes"/>
      <point x="195" y="620"/>
      <point x="179" y="601"/>
      <point x="136" y="601" type="curve" smooth="yes"/>
      <point x="93" y="601"/>
      <point x="76" y="623"/>
      <point x="76" y="666" type="curve" smooth="yes"/>
      <point x="76" y="746"/>
      <point x="105" y="816"/>
      <point x="131" y="847" type="curve"/>
    </contour>
  </outline>
</glyph>
<glyph name="dotbelowcomb" format="1">
  <advance width="600"/>
  <unicode hex="0323"/>
  <outline>
    <contour>
      <point x="265" y="-182" type="curve" smooth="yes"/>
      <point x="306" y="-182"/>
      <point x="322" y="-167"/>
      <point x="322" y="-126" type="curve" smooth="yes"/>
      <point x="322" y="-87"/>
      <point x="308" y="-70"/>
      <point x="265" y="-70" type="curve" smooth="yes"/>
      <point x="222" y="-70"/>
      <point x="209" y="-87"/>
      <point x="209" y="-126" type="curve" smooth="yes"/>
      <point x="209" y="-161"/>
      <point x="220" y="-182"/>
    </contour>
  </outline>
</glyph>
<glyph name="uni0326" format="1">
  <advance width="600"/>
  <unicode hex="0326"/>
  <outline>
    <contour>
      <point x="135" y="0" type="move" smooth="yes"/>
    </contour>
    <contour>
      <point x="91" y="-259" type="line"/>
      <point x="110" y="-234"/>
      <point x="131" y="-207"/>
      <point x="131" y="-180" type="curve"/>
      <point x="92" y="-180"/>
      <point x="76" y="-165"/>
      <point x="76" y="-126" type="curve" smooth="yes"/>
      <point x="76" y="-90"/>
      <point x="91" y="-70"/>
      <point x="134" y="-70" type="curve" smooth="yes"/>
      <point x="177" y="-70"/>
      <point x="195" y="-91"/>
      <point x="195" y="-134" type="curve" smooth="yes"/>
      <point x="195" y="-193"/>
      <point x="166" y="-229"/>
      <point x="142" y="-259" type="curve"/>
    </contour>
  </outline>
</glyph>
